{
.appVersion = "3434";
.formatVersion = 3;
DisplayStrings = (
"oooooo
nnnnn
nonononon
nooonononononola

La Pomm
nonononono
nenenenen
oeoeoeoeo
hohohoh
hhnhnhnhnm
adhesion
gardens of eden
baby celoatfhing
thingfgs t
figma ADHESION
LA POMME
",
"di


   

D .     


g dooing
",
"d   offee Lab bo oih 
the flo  
of coffe
nicid ",
coeef,
"CA
AC
TO
ev
v.
97
Ze
Fa
FA
HX

TEHAVDIV TEHXDIV ",
"cablings sterlings escarpments glossator thyrsoidal Norma competent lammers dead-set sympathetic bottle-blonds crooning short bone-dry ontologists psychobiography consimilarity sniff factorship entering shamelessness bretasche foster-father shet frostbite mishap thlipsis chad spaceless sedentariness moraines ript dispensing prebendary torpescent shinties seamster impennate Prado thymocyte trior stroam misproportion monotints farina",
g,
tic,
"the neu
play-ground
baby three
yello fetrs
osborn

",
"happy chilvqo
hapy children day",
abcdefghi,
"garden xin loi con mua
vua qua 
A",
"tttt/adu t
tntntnntnt
totoototo
tiary",
abcdefghijklmnopqrstuvwxyz,
"ABCEFGHIJuMPj iKLMNOPDQRSTUVWXYZcinnernDEFGHIJKLMNOPQRSTUVWXYZ",
"ABCDEFGHIJCOOJKLMNOPQRSTUwW VIERdignityllkLMNOPQRSsTUHVWHATXYIZ",

glyphs = (
{
glyphname = .notdef;
lastChange = "2025-10-03 15:49:50 +0000";
layers = (
{
layerId = m01;
shapes = (
{
closed = 1;
nodes = (
(450,-200,l),
(450,800,l),
(50,800,l),
(50,-200,l)
);
},
{
closed = 1;
nodes = (
(100,750,l),
(400,750,l),
(400,-150,l),
(100,-150,l)
);
}
);
width = 500;
}
);
note = .notdef;
},
{
glyphname = A;
kernLeft = KO_A;
kernRight = KO_A;
lastChange = "2025-10-11 16:12:11 +0000";
layers = (
{
anchors = (
{
name = bottom;
pos = (306,0);
},
{
name = ogonek;
pos = (551,10);
},
{
name = top;
pos = (306,533);
}
);
hints = (
{
name = _corner.ink;
origin = (1,1);
type = Corner;
},
{
name = _corner.ink;
options = 2;
origin = (1,2);
scale = (-1,1);
type = Corner;
},
{
name = _corner.ink;
origin = (1,3);
type = Corner;
},
{
name = _corner.ink;
options = 2;
origin = (1,4);
scale = (-1,1);
type = Corner;
},
{
name = _corner.ink;
origin = (1,5);
type = Corner;
},
{
name = _corner.ink;
options = 2;
origin = (1,6);
scale = (-1,1);
type = Corner;
}
);
layerId = m01;
shapes = (
{
closed = 1;
nodes = (
(404,241,l,{
"Letterink-NibData" = {
AngleInDegrees = 359.99999;
};
}),
(201,240,l,{
"Letterink-NibData" = {
AngleInDegrees = 360;
};
}),
(171,171,l,{
"Letterink-NibData" = {
AngleInDegrees = 360;
};
}),
(432,170,l,{
"Letterink-NibData" = {
AngleInDegrees = 359.99999;
};
})
);
},
{
closed = 1;
nodes = (
(409,176,l,{
"Letterink-NibData" = {
AngleInDegrees = 360;
};
}),
(489,0,l),
(595,0,l,{
"Letterink-NibData" = {
AngleInDegrees = 0;
};
}),
(341,533,l,{
"Letterink-NibData" = {
AngleInDegrees = 359.99999;
};
}),
(257,533,l,{
"Letterink-NibData" = {
AngleInDegrees = 359.99999;
};
}),
(13,0,l),
(116,0,l,{
"Letterink-NibData" = {
AngleInDegrees = 0;
};
}),
(193,175,l,{
"Letterink-NibData" = {
AngleInDegrees = 0;
};
}),
(211,235,l,{
"Letterink-NibData" = {
AngleInDegrees = 360;
};
}),
(302,448,l,{
"Letterink-NibData" = {
AngleInDegrees = 360;
};
}),
(394,235,l,{
"Letterink-NibData" = {
AngleInDegrees = 0;
};
})
);
}
);
width = 612;
}
);
note = A;
unicode = 65;
userData = {
KernOnName = A;
};
},
{
glyphname = B;
kernLeft = KO_H;
kernRight = KO_B;
lastChange = "2025-10-11 16:12:09 +0000";
layers = (
{
anchors = (
{
name = bottom;
pos = (265,0);
},
{
name = center;
pos = (132,160);
},
{
name = top;
pos = (265,533);
}
);
hints = (
{
name = _corner.ink;
origin = (0,1);
type = Corner;
},
{
name = _corner.ink;
options = 2;
origin = (0,2);
scale = (-1,1);
type = Corner;
}
);
layerId = m01;
shapes = (
{
closed = 1;
nodes = (
(131,534,l,{
"Letterink-NibData" = {
AngleInDegrees = "360";
};
}),
(70,534,l),
(70,0,l),
(179,0,l),
(244,-1,ls),
(375,-1,o),
(479,25,o),
(479,164,cs),
(479,242,o),
(416,310,o),
(305,318,c),
(291,287,l),
(388,315,o),
(418,354,o),
(418,411,cs),
(418,493,o),
(358,534,o),
(177,534,cs),
(162,534,l)
);
},
{
closed = 1;
nodes = (
(162,272,l),
(252,272,ls),
(353,270,o),
(394,229,o),
(394,170,cs),
(394,116,o),
(358,74,o),
(257,74,cs),
(162,74,l)
);
},
{
closed = 1;
nodes = (
(162,469,l),
(189,469,ls),
(290,469,o),
(339,454,o),
(339,394,cs),
(339,352,o),
(303,333,o),
(224,331,c),
(162,331,l)
);
}
);
width = 529;
}
);
metricLeft = "=H";
unicode = 66;
},
{
glyphname = C;
kernLeft = KO_O;
kernRight = KO_C;
lastChange = "2025-10-11 16:12:09 +0000";
layers = (
{
anchors = (
{
name = bottom;
pos = (303,0);
},
{
name = top;
pos = (303,533);
}
);
hints = (
{
name = _corner.ink;
origin = (0,17);
type = Corner;
},
{
name = _corner.ink;
origin = (0,2);
type = Corner;
}
);
layerId = m01;
shapes = (
{
closed = 1;
nodes = (
(555,161,o),
(537,177,o),
(501,185,c),
(470,103,o),
(412,73,o),
(345,73,cs),
(267,73,o),
(188,117,o),
(163,226,cs,{
"Letterink-NibData" = {
AngleInDegrees = 0;
};
}),
(158,247,o),
(156,268,o),
(156,286,cs),
(156,400,o),
(235,469,o),
(325,469,cs),
(380,469,o),
(431,447,o),
(452,368,c),
(573,381,o),
(549,548,o),
(333,548,cs),
(178,548,o),
(60,429,o),
(60,267,cs),
(60,106,o),
(166,-15,o),
(323,-15,cs),
(431,-15,o),
(555,30,o),
(555,129,cs)
);
}
);
width = 605;
}
);
unicode = 67;
},
{
glyphname = D;
kernLeft = KO_D;
kernRight = KO_D;
lastChange = "2025-10-11 16:12:11 +0000";
layers = (
{
anchors = (
{
name = bottom;
pos = (308,0);
},
{
name = center;
pos = (154,267);
},
{
name = top;
pos = (308,533);
}
);
guides = (
{
pos = (304,610);
}
);
hints = (
{
name = _corner.ink;
origin = (0,0);
type = Corner;
},
{
name = _corner.ink;
options = 2;
origin = (0,1);
scale = (-1,1);
type = Corner;
}
);
layerId = m01;
shapes = (
{
closed = 1;
nodes = (
(92,533,l),
(92,0,l),
(182,0,l),
(182,533,l)
);
},
{
closed = 1;
nodes = (
(149,465,l),
(285,465,ls),
(386,465,o),
(465,377,o),
(465,267,cs),
(465,156,o),
(386,68,o),
(285,68,cs),
(147,68,l),
(147,0,l),
(285,0,ls),
(451,0,o),
(556,103,o),
(556,267,cs),
(556,432,o),
(451,533,o),
(285,533,cs),
(162,533,l,{
"Letterink-NibData" = {
AngleInDegrees = 360;
};
})
);
}
);
width = 616;
}
);
metricRight = "=O";
note = D;
unicode = 68;
userData = {
KernOnName = D;
};
},
{
glyphname = E;
kernLeft = KO_E;
kernRight = KO_E;
lastChange = "2025-10-11 16:14:02 +0000";
layers = (
{
anchors = (
{
name = bottom;
pos = (286,0);
},
{
name = ogonek;
pos = (514,10);
},
{
name = top;
pos = (286,533);
},
{
name = topleft;
pos = (20,533);
}
);
hints = (
{
name = _corner.ink;
origin = (0,2);
type = Corner;
},
{
name = _corner.ink;
options = 2;
origin = (0,3);
scale = (-1,1);
type = Corner;
},
{
name = _corner.ink;
options = 2;
origin = (0,6);
scale = (-1,1);
type = Corner;
},
{
name = _corner.ink;
origin = (0,7);
type = Corner;
},
{
name = _corner.ink;
origin = (0,10);
type = Corner;
},
{
name = _corner.ink;
options = 2;
origin = (0,11);
scale = (-1,1);
type = Corner;
},
{
name = _corner.ink;
origin = (0,0);
type = Corner;
},
{
name = _corner.ink;
options = 2;
origin = (0,1);
scale = (-1,1);
type = Corner;
}
);
layerId = m01;
shapes = (
{
closed = 1;
nodes = (
(101,533,l),
(101,0,l),
(481,0,l),
(481,78,l),
(193,78,l),
(193,258,l),
(432,258,l),
(432,329,l),
(193,329,l),
(193,455,l),
(481,455,l),
(481,533,l)
);
}
);
width = 571;
}
);
note = E;
unicode = 69;
userData = {
KernOnName = E;
};
},
{
glyphname = F;
kernLeft = KO_E;
kernRight = KO_F;
lastChange = "2025-10-11 16:12:09 +0000";
layers = (
{
anchors = (
{
name = bottom;
pos = (300,0);
},
{
name = top;
pos = (300,533);
}
);
hints = (
{
name = _corner.ink;
origin = (0,4);
type = Corner;
},
{
name = _corner.ink;
options = 2;
origin = (0,5);
scale = (-1,1);
type = Corner;
},
{
name = _corner.ink;
options = 2;
origin = (0,8);
scale = (-1,1);
type = Corner;
},
{
name = _corner.ink;
origin = (0,9);
type = Corner;
},
{
name = _corner.ink;
origin = (0,0);
type = Corner;
},
{
name = _corner.ink;
options = 2;
origin = (0,1);
scale = (-1,1);
type = Corner;
}
);
layerId = m01;
shapes = (
{
closed = 1;
nodes = (
(101,533,l),
(101,0,l),
(193,0,l),
(193,243,l),
(464,243,l),
(464,314,l),
(193,314,l),
(193,455,l),
(481,455,l),
(481,533,l)
);
}
);
width = 600;
}
);
unicode = 70;
},
{
glyphname = G;
kernLeft = KO_O;
kernRight = KO_G;
lastChange = "2025-10-11 14:49:05 +0000";
layers = (
{
anchors = (
{
name = bottom;
pos = (314,0);
},
{
name = top;
pos = (314,533);
}
);
background = {
shapes = (
{
ref = O;
}
);
};
hints = (
{
name = _corner.ink;
origin = (0,30);
type = Corner;
},
{
name = _corner.ink;
origin = (1,0);
type = Corner;
}
);
layerId = m01;
shapes = (
{
closed = 1;
nodes = (
(501,286,l,{
"Letterink-NibData" = {
AngleInDegrees = 0;
};
}),
(518,172,o),
(445,60,o),
(339,60,cs),
(255,60,o),
(186,125,o),
(163,226,cs,{
"Letterink-NibData" = {
AngleInDegrees = 0;
};
}),
(158,247,o),
(156,267,o),
(156,286,cs),
(156,406,o),
(240,473,o),
(328,473,cs),
(393,473,o),
(448,445,o),
(490,360,cs),
(503,334,o),
(554,355,o),
(554,419,cs),
(554,505,o),
(450,548,o),
(347,548,cs),
(178,548,o),
(60,429,o),
(60,267,cs),
(60,106,o),
(176,-15,o),
(333,-15,cs),
(500,-15,o),
(607,126,o),
(599,286,c)
);
},
{
closed = 1;
nodes = (
(357,286,l,{
"Letterink-NibData" = {
AngleInDegrees = 360;
};
}),
(358,242,o),
(391,210,o),
(456,210,cs),
(583,210,l,{
"Letterink-NibData" = {
AngleInDegrees = 360;
};
}),
(584,286,l)
);
}
);
width = 627;
}
);
unicode = 71;
},
{
glyphname = H;
kernLeft = KO_H;
kernRight = KO_H;
lastChange = "2025-10-11 16:12:11 +0000";
layers = (
{
anchors = (
{
name = bottom;
pos = (300,0);
},
{
name = center;
pos = (300,426);
},
{
name = top;
pos = (300,533);
},
{
name = topleft;
pos = (20,533);
}
);
hints = (
{
name = _corner.ink;
origin = (0,0);
type = Corner;
},
{
name = _corner.ink;
options = 2;
origin = (0,1);
scale = (-1,1);
type = Corner;
},
{
name = _corner.ink;
origin = (0,2);
type = Corner;
},
{
name = _corner.ink;
options = 2;
origin = (0,3);
scale = (-1,1);
type = Corner;
},
{
name = _corner.ink;
options = 2;
origin = (1,0);
scale = (-1,1);
type = Corner;
},
{
name = _corner.ink;
origin = (1,1);
type = Corner;
},
{
name = _corner.ink;
options = 2;
origin = (1,2);
scale = (-1,1);
type = Corner;
},
{
name = _corner.ink;
origin = (1,3);
type = Corner;
}
);
layerId = m01;
shapes = (
{
closed = 1;
nodes = (
(438,0,l),
(530,0,l),
(530,533,l),
(438,533,l)
);
},
{
closed = 1;
nodes = (
(162,533,l),
(70,533,l),
(70,0,l),
(162,0,l)
);
},
{
closed = 1;
nodes = (
(454,329,l),
(146,329,l),
(146,259,l),
(454,259,l)
);
}
);
width = 600;
}
);
note = H;
unicode = 72;
userData = {
KernOnName = H;
};
},
{
glyphname = I;
kernLeft = KO_H;
kernRight = KO_H;
lastChange = "2025-10-11 14:49:05 +0000";
layers = (
{
anchors = (
{
name = bottom;
pos = (118,0);
},
{
name = ogonek;
pos = (212,10);
},
{
name = top;
pos = (118,533);
},
{
name = topleft;
pos = (20,533);
}
);
hints = (
{
name = _corner.ink;
origin = (0,0);
type = Corner;
},
{
name = _corner.ink;
options = 2;
origin = (0,1);
scale = (-1,1);
type = Corner;
},
{
name = _corner.ink;
origin = (0,2);
type = Corner;
},
{
name = _corner.ink;
options = 2;
origin = (0,3);
scale = (-1,1);
type = Corner;
}
);
layerId = m01;
shapes = (
{
closed = 1;
nodes = (
(70,533,l),
(70,0,l),
(165,0,l),
(165,533,l)
);
}
);
width = 235;
}
);
metricLeft = "=H";
metricRight = "=H";
note = I;
unicode = 73;
},
{
glyphname = J;
kernLeft = KO_H;
kernRight = KO_J;
lastChange = "2025-10-11 14:49:05 +0000";
layers = (
{
anchors = (
{
name = bottom;
pos = (118,0);
},
{
name = top;
pos = (118,533);
}
);
hints = (
{
name = _corner.ink;
origin = (0,0);
type = Corner;
},
{
name = _corner.ink;
options = 2;
origin = (0,8);
scale = (-1,1);
type = Corner;
},
{
name = _corner.ink;
options = 2;
origin = (0,4);
scale = (-1,1);
type = Corner;
}
);
layerId = m01;
shapes = (
{
closed = 1;
nodes = (
(70,533,l),
(70,62,l),
(70,15,o),
(48,-47,o),
(13,-88,c,{
"Letterink-NibData" = {
AngleInDegrees = "0";
};
}),
(126,-124,o),
(165,23,o),
(165,82,c),
(165,533,l)
);
}
);
width = 235;
}
);
unicode = 74;
},
{
glyphname = K;
kernLeft = KO_H;
kernRight = KO_K;
lastChange = "2025-10-11 16:12:11 +0000";
layers = (
{
anchors = (
{
name = bottom;
pos = (273,0);
},
{
name = top;
pos = (273,533);
}
);
hints = (
{
name = _corner.ink;
origin = (0,0);
type = Corner;
},
{
name = _corner.ink;
options = 2;
origin = (0,1);
scale = (-1,1);
type = Corner;
},
{
name = _corner.ink;
origin = (0,2);
type = Corner;
},
{
name = _corner.ink;
options = 2;
origin = (0,3);
scale = (-1,1);
type = Corner;
},
{
name = _corner.ink;
origin = (1,6);
type = Corner;
},
{
name = _corner.ink;
options = 2;
origin = (2,4);
scale = (-1,1);
type = Corner;
}
);
layerId = m01;
shapes = (
{
closed = 1;
nodes = (
(70,533,l),
(70,0,l),
(165,0,l),
(165,533,l)
);
},
{
closed = 1;
nodes = (
(176,276,l,{
"Letterink-NibData" = {
AngleInDegrees = "0";
};
}),
(231,141,o),
(331,26,o),
(410,-3,cs,{
"Letterink-NibData" = {
AngleInDegrees = "0";
};
}),
(465,-23,o),
(492,10,o),
(502,27,c,{
"Letterink-NibData" = {
AngleInDegrees = "359.99999";
};
}),
(384,123,o),
(289,213,o),
(233,319,c,{
"Letterink-NibData" = {
AngleInDegrees = "360";
};
})
);
},
{
closed = 1;
nodes = (
(146,220,l,{
"Letterink-NibData" = {
AngleInDegrees = "360";
};
}),
(428,413,l,{
"Letterink-NibData" = {
AngleInDegrees = "360";
};
}),
(478,451,o),
(462,521,o),
(406,533,c,{
"Letterink-NibData" = {
AngleInDegrees = "359.99999";
};
}),
(135,295,l,{
"Letterink-NibData" = {
AngleInDegrees = "0";
};
})
);
}
);
width = 546;
}
);
unicode = 75;
userData = {
KernOnName = K;
};
},
{
glyphname = L;
kernLeft = KO_E;
kernRight = KO_L;
lastChange = "2025-10-11 16:12:11 +0000";
layers = (
{
anchors = (
{
name = bottom;
pos = (225,0);
},
{
name = center;
pos = (225,267);
},
{
name = top;
pos = (225,533);
},
{
name = topright;
pos = (429,533);
}
);
hints = (
{
name = _corner.ink;
origin = (0,0);
type = Corner;
},
{
name = _corner.ink;
origin = (0,2);
type = Corner;
},
{
name = _corner.ink;
options = 2;
origin = (0,3);
scale = (-1,1);
type = Corner;
},
{
name = _corner.ink;
options = 2;
origin = (0,5);
scale = (-1,1);
type = Corner;
}
);
layerId = m01;
shapes = (
{
closed = 1;
nodes = (
(101,548,l),
(101,0,l),
(449,0,l),
(449,80,l),
(191,80,l),
(191,548,l)
);
}
);
width = 449;
}
);
note = L;
unicode = 76;
userData = {
KernOnName = L;
};
},
{
glyphname = M;
kernLeft = KO_M;
kernRight = KO_M;
lastChange = "2025-10-11 16:12:11 +0000";
layers = (
{
anchors = (
{
name = bottom;
pos = (353,0);
},
{
name = top;
pos = (353,533);
}
);
hints = (
{
name = _corner.ink;
origin = (0,0);
type = Corner;
},
{
name = _corner.ink;
origin = (0,3);
type = Corner;
},
{
name = _corner.ink;
options = 2;
origin = (0,4);
scale = (-1,1);
type = Corner;
},
{
name = _corner.ink;
origin = (0,5);
type = Corner;
},
{
name = _corner.ink;
options = 2;
origin = (0,6);
scale = (-1,1);
type = Corner;
},
{
name = _corner.ink;
options = 2;
origin = (0,8);
scale = (-1,1);
type = Corner;
},
{
name = _corner.ink;
origin = (0,9);
type = Corner;
},
{
name = _corner.ink;
options = 2;
origin = (0,10);
scale = (-1,1);
type = Corner;
},
{
name = _corner.ink;
origin = (0,11);
type = Corner;
},
{
name = _corner.ink;
origin = (0,14);
type = Corner;
}
);
layerId = m01;
shapes = (
{
closed = 1;
nodes = (
(377,86,l,{
"Letterink-NibData" = {
AngleInDegrees = 0;
};
}),
(546,400,l,{
"Letterink-NibData" = {
AngleInDegrees = 0;
};
}),
(516,375,l,{
"Letterink-NibData" = {
AngleInDegrees = 359.99999;
};
}),
(563,0,l),
(652,0,l,{
"Letterink-NibData" = {
AngleInDegrees = 359.99999;
};
}),
(579,532,l),
(523,534,l,{
"Letterink-NibData" = {
AngleInDegrees = 0;
};
}),
(352,198,l,{
"Letterink-NibData" = {
AngleInDegrees = 0;
};
}),
(196,533,l),
(125,532,l,{
"Letterink-NibData" = {
AngleInDegrees = 359.99999;
};
}),
(51,0,l),
(142,0,l,{
"Letterink-NibData" = {
AngleInDegrees = 360;
};
}),
(186,378,l,{
"Letterink-NibData" = {
AngleInDegrees = 360;
};
}),
(157,399,l,{
"Letterink-NibData" = {
AngleInDegrees = 0;
};
}),
(327,86,l)
);
}
);
width = 705;
}
);
note = M;
unicode = 77;
userData = {
KernOnName = M;
};
},
{
glyphname = N;
kernLeft = KO_H;
kernRight = KO_H;
lastChange = "2025-10-11 14:49:05 +0000";
layers = (
{
anchors = (
{
name = bottom;
pos = (314,0);
},
{
name = top;
pos = (314,533);
}
);
hints = (
{
name = _corner.ink;
origin = (0,0);
type = Corner;
},
{
name = _corner.ink;
options = 2;
origin = (0,1);
scale = (-1,1);
type = Corner;
},
{
name = _corner.ink;
origin = (0,2);
type = Corner;
},
{
name = _corner.ink;
options = 2;
origin = (0,9);
scale = (-1,1);
type = Corner;
},
{
name = _corner.ink;
origin = (0,10);
type = Corner;
},
{
name = _corner.ink;
options = 2;
origin = (0,11);
scale = (-1,1);
type = Corner;
}
);
layerId = m01;
shapes = (
{
closed = 1;
nodes = (
(557,1,l),
(557,536,l),
(467,536,l),
(467,126,l,{
"Letterink-NibData" = {
AngleInDegrees = 359.99999;
};
}),
(498,117,l,{
"Letterink-NibData" = {
AngleInDegrees = 359.99999;
};
}),
(144,515,l),
(135,525,o),
(130,533,o),
(113,533,cs),
(70,533,l),
(70,-7,l),
(160,-7,l),
(160,402,l,{
"Letterink-NibData" = {
AngleInDegrees = 360;
};
}),
(129,406,l,{
"Letterink-NibData" = {
AngleInDegrees = 360;
};
}),
(488,9,ls),
(497,-1,o),
(503,1,o),
(515,1,cs)
);
}
);
width = 627;
}
);
metricLeft = "=H";
metricRight = "=H";
note = N;
unicode = 78;
},
{
glyphname = O;
kernLeft = KO_O;
kernRight = KO_D;
lastChange = "2025-10-11 16:12:11 +0000";
layers = (
{
anchors = (
{
name = bottom;
pos = (334,0);
},
{
name = center;
pos = (334,267);
},
{
name = ogonek;
pos = (600,10);
},
{
name = top;
pos = (334,533);
},
{
name = topleft;
pos = (20,533);
},
{
name = topright;
pos = (647,533);
}
);
layerId = m01;
shapes = (
{
closed = 1;
nodes = (
(60,106,o),
(176,-15,o),
(333,-15,cs),
(491,-15,o),
(607,106,o),
(607,267,cs),
(607,429,o),
(490,548,o),
(333,548,cs),
(178,548,o),
(60,429,o),
(60,267,cs)
);
},
{
closed = 1;
nodes = (
(137,344,o),
(187,444,o),
(287,468,cs,{
"Letterink-NibData" = {
AngleInDegrees = 0;
};
}),
(392,493,o),
(477,426,o),
(504,308,cs,{
"Letterink-NibData" = {
AngleInDegrees = 360;
};
}),
(530,192,o),
(481,90,o),
(379,65,cs,{
"Letterink-NibData" = {
AngleInDegrees = 0;
};
}),
(277,41,o),
(190,109,o),
(163,226,cs,{
"Letterink-NibData" = {
AngleInDegrees = 0;
};
})
);
}
);
width = 667;
}
);
note = O;
unicode = 79;
userData = {
KernOnName = O;
};
},
{
glyphname = P;
kernLeft = KO_R;
kernRight = KO_P;
lastChange = "2025-10-11 16:12:11 +0000";
layers = (
{
anchors = (
{
name = bottom;
pos = (262,0);
},
{
name = top;
pos = (262,533);
}
);
hints = (
{
name = _corner.ink;
origin = (0,0);
type = Corner;
},
{
name = _corner.ink;
options = 2;
origin = (0,1);
scale = (-1,1);
type = Corner;
},
{
name = _corner.ink;
origin = (0,2);
type = Corner;
}
);
layerId = m01;
shapes = (
{
closed = 1;
nodes = (
(90,548,l),
(90,0,l),
(182,0,l),
(182,548,l)
);
},
{
closed = 1;
nodes = (
(149,474,l),
(267,474,ls),
(355,474,o),
(417,430,o),
(417,346,cs),
(417,261,o),
(355,217,o),
(267,217,cs),
(147,217,l),
(147,143,l),
(267,143,ls),
(412,143,o),
(504,221,o),
(504,346,cs),
(504,471,o),
(412,548,o),
(267,548,cs),
(160,548,l,{
"Letterink-NibData" = {
AngleInDegrees = 0;
};
})
);
}
);
width = 524;
}
);
note = P;
unicode = 80;
userData = {
KernOnName = P;
};
},
{
glyphname = Q;
kernLeft = KO_O;
kernRight = KO_D;
lastChange = "2025-10-11 14:49:05 +0000";
layers = (
{
anchors = (
{
name = bottom;
pos = (334,0);
},
{
name = top;
pos = (334,533);
}
);
hints = (
{
name = _corner.ink;
origin = (2,5);
type = Corner;
}
);
layerId = m01;
shapes = (
{
closed = 1;
nodes = (
(60,106,o),
(176,-15,o),
(333,-15,cs),
(491,-15,o),
(607,106,o),
(607,267,cs),
(607,429,o),
(490,548,o),
(333,548,cs),
(178,548,o),
(60,429,o),
(60,267,cs)
);
},
{
closed = 1;
nodes = (
(137,344,o),
(187,444,o),
(287,468,cs,{
"Letterink-NibData" = {
AngleInDegrees = 0;
};
}),
(392,493,o),
(477,426,o),
(504,308,cs,{
"Letterink-NibData" = {
AngleInDegrees = 360;
};
}),
(530,192,o),
(481,90,o),
(379,65,cs,{
"Letterink-NibData" = {
AngleInDegrees = 0;
};
}),
(277,41,o),
(190,109,o),
(163,226,cs,{
"Letterink-NibData" = {
AngleInDegrees = 0;
};
})
);
},
{
closed = 1;
nodes = (
(263,-74,o),
(376,-209,o),
(476,-140,cs,{
"Letterink-NibData" = {
AngleInDegrees = 360;
};
}),
(489,-131,o),
(495,-115,o),
(495,-98,c,{
"Letterink-NibData" = {
AngleInDegrees = 0;
};
}),
(422,-79,o),
(374,-40,o),
(345,17,cs,{
"Letterink-NibData" = {
AngleInDegrees = 0;
};
}),
(339,28,o),
(309,30,o),
(302,41,c,{
"Letterink-NibData" = {
AngleInDegrees = 0;
};
})
);
}
);
width = 667;
}
);
metricRight = "=O";
unicode = 81;
},
{
glyphname = R;
kernLeft = KO_R;
kernRight = KO_R;
lastChange = "2025-10-11 14:49:05 +0000";
layers = (
{
anchors = (
{
name = bottom;
pos = (300,0);
},
{
name = top;
pos = (300,533);
}
);
hints = (
{
name = _corner.ink;
origin = (2,6);
type = Corner;
},
{
name = _corner.ink;
origin = (0,0);
type = Corner;
},
{
name = _corner.ink;
options = 2;
origin = (0,1);
scale = (-1,1);
type = Corner;
},
{
name = _corner.ink;
origin = (0,2);
type = Corner;
}
);
layerId = m01;
shapes = (
{
closed = 1;
nodes = (
(90,548,l),
(90,0,l),
(182,0,l),
(182,548,l)
);
},
{
closed = 1;
nodes = (
(149,473,l),
(267,473,ls),
(355,473,o),
(408,446,o),
(408,373,cs),
(408,300,o),
(355,272,o),
(267,272,cs),
(147,272,l),
(147,198,l),
(267,198,ls),
(412,198,o),
(495,265,o),
(495,373,cs),
(495,482,o),
(412,548,o),
(267,548,cs),
(160,548,l,{
"Letterink-NibData" = {
AngleInDegrees = 359.99999;
};
})
);
},
{
closed = 1;
nodes = (
(239,198,l,{
"Letterink-NibData" = {
AngleInDegrees = 0;
};
}),
(262,96,o),
(327,-9,o),
(409,-10,cs),
(450,-10,o),
(471,11,o),
(480,42,c,{
"Letterink-NibData" = {
AngleInDegrees = 360;
};
}),
(409,71,o),
(339,124,o),
(313,203,c,{
"Letterink-NibData" = {
AngleInDegrees = 0;
};
})
);
}
);
width = 600;
}
);
unicode = 82;
},
{
glyphname = S;
kernLeft = KO_S;
kernRight = KO_S;
lastChange = "2025-10-11 14:49:05 +0000";
layers = (
{
anchors = (
{
name = bottom;
pos = (239,0);
},
{
name = top;
pos = (239,533);
}
);
hints = (
{
name = _corner.ink;
origin = (0,11);
type = Corner;
},
{
name = _corner.ink;
options = 2;
origin = (0,20);
scale = (-1,1);
type = Corner;
}
);
layerId = m01;
shapes = (
{
closed = 1;
nodes = (
(11,30,o),
(105,-10,o),
(204,-10,cs),
(316,-10,o),
(428,28,o),
(428,148,cs),
(428,339,o),
(150,301,o),
(150,421,cs),
(150,496,o),
(306,494,o),
(391,398,c),
(515,582,o),
(52,620,o),
(52,410,cs),
(52,226,o),
(339,258,o),
(339,134,cs),
(339,44,o),
(173,64,o),
(50,139,c)
);
}
);
width = 478;
}
);
note = S;
unicode = 83;
},
{
glyphname = T;
kernLeft = KO_T;
kernRight = KO_T;
lastChange = "2025-10-11 16:12:11 +0000";
layers = (
{
anchors = (
{
name = bottom;
pos = (258,0);
},
{
name = center;
pos = (258,267);
},
{
name = top;
pos = (258,533);
}
);
hints = (
{
name = _corner.ink;
origin = (0,0);
type = Corner;
},
{
name = _corner.ink;
options = 2;
origin = (0,1);
scale = (-1,1);
type = Corner;
},
{
name = _corner.ink;
origin = (0,2);
type = Corner;
},
{
name = _corner.ink;
options = 2;
origin = (0,3);
scale = (-1,1);
type = Corner;
},
{
name = _corner.ink;
options = 2;
origin = (1,0);
scale = (-1,1);
type = Corner;
},
{
name = _corner.ink;
origin = (1,1);
type = Corner;
},
{
name = _corner.ink;
options = 2;
origin = (1,2);
scale = (-1,1);
type = Corner;
},
{
name = _corner.ink;
origin = (1,3);
type = Corner;
}
);
layerId = m01;
shapes = (
{
closed = 1;
nodes = (
(212,519,l),
(212,0,l),
(304,0,l),
(304,519,l)
);
},
{
closed = 1;
nodes = (
(30,455,l),
(486,455,l),
(486,533,l),
(30,533,l)
);
}
);
width = 516;
}
);
unicode = 84;
userData = {
KernOnName = T;
};
},
{
glyphname = U;
kernLeft = KO_U;
kernRight = KO_U;
lastChange = "2025-10-11 14:49:05 +0000";
layers = (
{
anchors = (
{
name = bottom;
pos = (300,0);
},
{
name = ogonek;
pos = (540,10);
},
{
name = top;
pos = (300,533);
},
{
name = topright;
pos = (580,533);
}
);
guides = (
{
}
);
hints = (
{
name = _corner.ink;
origin = (0,16);
type = Corner;
},
{
name = _corner.ink;
options = 2;
origin = (0,17);
scale = (-1,1);
type = Corner;
},
{
name = _corner.ink;
options = 2;
origin = (0,7);
scale = (-1,1);
type = Corner;
},
{
name = _corner.ink;
origin = (0,8);
type = Corner;
}
);
layerId = m01;
shapes = (
{
closed = 1;
nodes = (
(438,222,ls),
(438,135,o),
(385,80,o),
(300,80,cs),
(215,80,o),
(162,135,o),
(162,222,cs),
(162,533,l),
(70,533,l),
(70,222,ls),
(70,81,o),
(159,-7,o),
(300,-7,cs),
(441,-7,o),
(530,81,o),
(530,222,cs),
(530,533,l),
(438,533,l)
);
}
);
width = 600;
}
);
unicode = 85;
},
{
glyphname = V;
kernLeft = KO_V;
kernRight = KO_V;
lastChange = "2025-10-11 16:12:11 +0000";
layers = (
{
anchors = (
{
name = bottom;
pos = (347,0);
},
{
name = top;
pos = (347,533);
}
);
hints = (
{
name = _corner.ink;
options = 2;
origin = (0,1);
scale = (-1,1);
type = Corner;
},
{
name = _corner.ink;
origin = (0,2);
type = Corner;
},
{
name = _corner.ink;
origin = (0,7);
type = Corner;
},
{
name = _corner.ink;
options = 2;
origin = (0,8);
scale = (-1,1);
type = Corner;
},
{
name = _corner.ink;
origin = (0,9);
type = Corner;
}
);
layerId = m01;
shapes = (
{
closed = 1;
nodes = (
(302,85,l,{
"Letterink-NibData" = {
AngleInDegrees = "360";
};
}),
(116,533,l,{
"Letterink-NibData" = {
AngleInDegrees = "0";
};
}),
(13,533,l),
(252,14,ls),
(258,2,o),
(264,0,o),
(277,0,cs),
(341,0,l,{
"Letterink-NibData" = {
AngleInDegrees = "359.99999";
};
}),
(595,533,l,{
"Letterink-NibData" = {
AngleInDegrees = "0";
};
}),
(489,533,l)
);
}
);
width = 613;
}
);
unicode = 86;
userData = {
KernOnName = V;
};
},
{
glyphname = W;
kernLeft = KO_W;
kernRight = KO_W;
lastChange = "2025-10-11 14:49:05 +0000";
layers = (
{
anchors = (
{
name = bottom;
pos = (347,0);
},
{
name = top;
pos = (347,533);
}
);
hints = (
{
name = _corner.ink;
origin = (0,13);
type = Corner;
},
{
name = _corner.ink;
origin = (0,10);
type = Corner;
},
{
name = _corner.ink;
options = 2;
origin = (0,9);
scale = (-1,1);
type = Corner;
},
{
name = _corner.ink;
origin = (0,8);
type = Corner;
},
{
name = _corner.ink;
options = 2;
origin = (0,7);
scale = (-1,1);
type = Corner;
},
{
name = _corner.ink;
options = 2;
origin = (0,5);
scale = (-1,1);
type = Corner;
},
{
name = _corner.ink;
origin = (0,4);
type = Corner;
},
{
name = _corner.ink;
options = 2;
origin = (0,3);
scale = (-1,1);
type = Corner;
},
{
name = _corner.ink;
origin = (0,2);
type = Corner;
},
{
name = _corner.ink;
origin = (0,14);
type = Corner;
}
);
layerId = m01;
shapes = (
{
closed = 1;
nodes = (
(180,111,l,{
"Letterink-NibData" = {
AngleInDegrees = "0";
};
}),
(205,132,l,{
"Letterink-NibData" = {
AngleInDegrees = "360";
};
}),
(101,534,l,{
"Letterink-NibData" = {
AngleInDegrees = "360";
};
}),
(7,534,l),
(144,2,l,{
"Letterink-NibData" = {
AngleInDegrees = "359.99999";
};
}),
(223,1,l),
(341,286,l,{
"Letterink-NibData" = {
AngleInDegrees = "0";
};
}),
(463,0,l,{
"Letterink-NibData" = {
AngleInDegrees = "0";
};
}),
(526,2,l),
(686,534,l,{
"Letterink-NibData" = {
AngleInDegrees = "359.99999";
};
}),
(594,534,l),
(465,135,l,{
"Letterink-NibData" = {
AngleInDegrees = "359.99999";
};
}),
(500,110,l,{
"Letterink-NibData" = {
AngleInDegrees = "0";
};
}),
(379,409,l,{
"Letterink-NibData" = {
AngleInDegrees = "0";
};
}),
(313,409,l)
);
}
);
width = 694;
}
);
unicode = 87;
},
{
glyphname = X;
kernLeft = KO_X;
kernRight = KO_X;
lastChange = "2025-10-11 16:12:11 +0000";
layers = (
{
anchors = (
{
name = bottom;
pos = (300,0);
},
{
name = top;
pos = (300,533);
}
);
hints = (
{
name = _corner.ink;
origin = (0,1);
type = Corner;
},
{
name = _corner.ink;
options = 2;
origin = (0,2);
scale = (-1,1);
type = Corner;
},
{
name = _corner.ink;
options = 2;
origin = (1,1);
scale = (-1,1);
type = Corner;
},
{
name = _corner.ink;
origin = (1,2);
type = Corner;
},
{
name = _corner.ink;
origin = (2,0);
type = Corner;
},
{
name = _corner.ink;
options = 2;
origin = (2,1);
scale = (-1,1);
type = Corner;
},
{
name = _corner.ink;
origin = (2,2);
type = Corner;
},
{
name = _corner.ink;
options = 2;
origin = (2,3);
scale = (-1,1);
type = Corner;
}
);
layerId = m01;
shapes = (
{
closed = 1;
nodes = (
(221,290,l),
(8,0,l),
(118,0,l),
(263,218,l)
);
},
{
closed = 1;
nodes = (
(304,264,l),
(500,533,l),
(390,530,l),
(264,337,l)
);
},
{
closed = 1;
nodes = (
(412,-1,l),
(515,0,l),
(146,533,l),
(42,532,l)
);
}
);
width = 531;
}
);
unicode = 88;
userData = {
KernOnName = X;
};
},
{
glyphname = Y;
kernLeft = KO_Y;
kernRight = KO_Y;
lastChange = "2025-10-11 16:12:11 +0000";
layers = (
{
anchors = (
{
name = bottom;
pos = (300,0);
},
{
name = top;
pos = (300,533);
},
{
name = topleft;
pos = (20,533);
}
);
hints = (
{
name = _corner.ink;
origin = (0,9);
type = Corner;
},
{
name = _corner.ink;
options = 2;
origin = (0,8);
scale = (-1,1);
type = Corner;
},
{
name = _corner.ink;
origin = (0,7);
type = Corner;
},
{
name = _corner.ink;
origin = (0,2);
type = Corner;
},
{
name = _corner.ink;
options = 2;
origin = (0,1);
scale = (-1,1);
type = Corner;
},
{
name = _corner.ink;
origin = (1,0);
type = Corner;
},
{
name = _corner.ink;
options = 2;
origin = (1,1);
scale = (-1,1);
type = Corner;
},
{
name = _corner.ink;
origin = (1,2);
type = Corner;
},
{
name = _corner.ink;
options = 2;
origin = (1,3);
scale = (-1,1);
type = Corner;
}
);
layerId = m01;
shapes = (
{
closed = 1;
nodes = (
(305,255,l,{
"Letterink-NibData" = {
AngleInDegrees = "360";
};
}),
(147,533,l,{
"Letterink-NibData" = {
AngleInDegrees = "0";
};
}),
(44,533,l),
(255,184,ls),
(262,173,o),
(267,170,o),
(280,170,cs),
(344,170,l,{
"Letterink-NibData" = {
AngleInDegrees = "359.99999";
};
}),
(566,533,l,{
"Letterink-NibData" = {
AngleInDegrees = "0";
};
}),
(460,533,l)
);
},
{
closed = 1;
nodes = (
(261,231,l),
(261,0,l),
(356,0,l),
(356,231,l)
);
}
);
width = 600;
}
);
unicode = 89;
userData = {
KernOnName = Y;
};
},
{
glyphname = Z;
kernLeft = KO_Z;
kernRight = KO_Z;
lastChange = "2025-10-11 16:12:09 +0000";
layers = (
{
anchors = (
{
name = bottom;
pos = (300,0);
},
{
name = center;
pos = (300,267);
},
{
name = top;
pos = (300,533);
}
);
hints = (
{
name = _corner.ink;
origin = (0,0);
type = Corner;
},
{
name = _corner.ink;
origin = (0,2);
type = Corner;
},
{
name = _corner.ink;
options = 2;
origin = (0,3);
scale = (-1,1);
type = Corner;
},
{
name = _corner.ink;
origin = (0,4);
type = Corner;
},
{
name = _corner.ink;
origin = (0,6);
type = Corner;
},
{
name = _corner.ink;
options = 2;
origin = (0,7);
scale = (-1,1);
type = Corner;
}
);
layerId = m01;
shapes = (
{
closed = 1;
nodes = (
(39,450,l),
(303,450,l),
(13,0,l),
(442,0,l),
(442,81,l),
(172,81,l),
(464,533,l),
(39,533,l)
);
}
);
width = 600;
}
);
unicode = 90;
},
{
glyphname = Dcroat;
kernRight = KO_D;
lastChange = "2025-10-11 15:31:57 +0000";
layers = (
{
hints = (
{
name = _corner.ink;
origin = (1,0);
type = Corner;
},
{
name = _corner.ink;
options = 2;
origin = (1,1);
scale = (-1,1);
type = Corner;
},
{
name = _corner.ink;
origin = (1,2);
type = Corner;
},
{
name = _corner.ink;
options = 2;
origin = (1,3);
scale = (-1,1);
type = Corner;
}
);
layerId = m01;
shapes = (
{
ref = D;
},
{
closed = 1;
nodes = (
(282,245,l),
(282,305,l),
(11,305,l),
(11,245,l)
);
}
);
width = 616;
}
);
unicode = 272;
},
{
glyphname = a;
kernLeft = KO_a;
kernRight = KO_a;
lastChange = "2025-10-11 16:12:09 +0000";
layers = (
{
anchors = (
{
name = bottom;
pos = (279,0);
},
{
name = ogonek;
pos = (502,10);
},
{
name = top;
pos = (279,460);
}
);
hints = (
{
name = _corner.ink;
origin = (0,0);
type = Corner;
},
{
name = _corner.ink;
options = 2;
origin = (0,1);
scale = (-1,1);
type = Corner;
}
);
layerId = m01;
shapes = (
{
closed = 1;
nodes = (
(497,462,l),
(412,462,l),
(412,375,l,{
"Letterink-NibData" = {
AngleInDegrees = 360;
};
}),
(429,391,l,{
"Letterink-NibData" = {
AngleInDegrees = 360;
};
}),
(400,436,o),
(336,470,o),
(264,470,cs),
(165,470,o),
(50,402,o),
(50,233,cs),
(50,79,o),
(136,-10,o),
(256,-10,cs),
(336,-10,o),
(397,34,o),
(427,109,c,{
"Letterink-NibData" = {
AngleInDegrees = 0;
};
}),
(412,116,l,{
"Letterink-NibData" = {
AngleInDegrees = 0;
};
}),
(402,27,o),
(452,-29,o),
(506,-5,cs,{
"Letterink-NibData" = {
AngleInDegrees = 360;
};
}),
(519,0,o),
(522,8,o),
(519,16,cs,{
"Letterink-NibData" = {
AngleInDegrees = 0;
};
}),
(501,67,o),
(497,105,o),
(497,142,cs),
(497,273,l)
);
},
{
closed = 1;
nodes = (
(141,353,o),
(208,404,o),
(278,404,cs),
(343,404,o),
(411,361,o),
(411,233,cs),
(411,125,o),
(343,60,o),
(275,60,cs),
(194,60,o),
(143,133,o),
(142,233,cs,{
"Letterink-NibData" = {
AngleInDegrees = 0;
};
})
);
}
);
width = 558;
}
);
metricLeft = "=o";
note = a;
unicode = 97;
},
{
glyphname = b;
kernLeft = KO_b;
kernRight = KO_b;
lastChange = "2025-10-11 16:21:47 +0000";
layers = (
{
anchors = (
{
name = bottom;
pos = (295,0);
},
{
name = center;
pos = (147,488);
},
{
name = top;
pos = (295,460);
}
);
hints = (
{
name = _corner.ink;
origin = (0,0);
type = Corner;
},
{
name = _corner.ink;
options = 2;
origin = (0,1);
scale = (-1,1);
type = Corner;
}
);
layerId = m01;
shapes = (
{
closed = 1;
nodes = (
(174,610,l),
(90,610,l),
(90,460,l),
(90,228,ls),
(90,105,o),
(149,-10,o),
(314,-7,cs,{
"Letterink-NibData" = {
AngleInDegrees = 360;
};
}),
(439,-5,o),
(537,100,o),
(537,250,cs),
(537,384,o),
(451,473,o),
(331,473,cs),
(262,473,o),
(207,440,o),
(174,383,c)
);
},
{
closed = 1;
nodes = (
(225,67,o),
(181,147,o),
(181,240,cs),
(181,327,o),
(234,395,o),
(311,395,cs),
(404,395,o),
(449,315,o),
(449,222,cs),
(449,131,o),
(395,67,o),
(318,67,cs)
);
}
);
width = 589;
}
);
note = b;
unicode = 98;
},
{
glyphname = c;
kernLeft = KO_e;
kernRight = KO_c;
lastChange = "2025-10-11 15:38:50 +0000";
layers = (
{
anchors = (
{
name = bottom;
pos = (253,0);
},
{
name = top;
pos = (253,460);
}
);
background = {
shapes = (
{
closed = 1;
nodes = (
(406,145,l),
(383,77,o),
(332,56,o),
(286,56,cs),
(206,56,o),
(150,139,o),
(143,228,cs),
(134,342,o),
(199,405,o),
(283,405,cs),
(405,405,o),
(419,249,o),
(129,210,c),
(142,158,l),
(374,192,o),
(451,249,o),
(459,328,cs),
(468,413,o),
(394,470,o),
(289,470,cs),
(157,470,o),
(50,373,o),
(50,230,cs),
(50,90,o),
(144,-10,o),
(272,-10,cs),
(350,-10,o),
(430,23,o),
(474,116,c)
);
}
);
};
hints = (
{
name = _corner.ink;
origin = (0,5);
type = Corner;
},
{
name = _corner.ink;
origin = (0,17);
type = Corner;
}
);
layerId = m01;
shapes = (
{
closed = 1;
nodes = (
(141,350,o),
(202,405,o),
(283,405,cs),
(347,405,o),
(378,368,o),
(378,297,c,{
"Letterink-NibData" = {
AngleInDegrees = 0;
};
}),
(510,296,o),
(473,470,o),
(289,470,cs),
(147,470,o),
(49,368,o),
(49,226,cs),
(49,85,o),
(137,-10,o),
(263,-10,cs),
(466,-10,o),
(495,151,o),
(394,151,c,{
"Letterink-NibData" = {
AngleInDegrees = 0;
};
}),
(384,95,o),
(331,65,o),
(279,65,cs),
(204,65,o),
(141,129,o),
(141,237,cs)
);
}
);
width = 505;
}
);
note = c;
unicode = 99;
},
{
glyphname = d;
kernLeft = KO_d;
kernRight = KO_d;
lastChange = "2025-10-11 14:49:05 +0000";
layers = (
{
anchors = (
{
name = bottom;
pos = (290,0);
},
{
name = center;
pos = (435,488);
},
{
name = top;
pos = (290,460);
},
{
name = topright;
pos = (515,610);
}
);
hints = (
{
name = _corner.ink;
origin = (0,0);
type = Corner;
},
{
name = _corner.ink;
options = 2;
origin = (0,1);
scale = (-1,1);
type = Corner;
},
{
name = _corner.ink;
origin = (0,18);
type = Corner;
}
);
layerId = m01;
shapes = (
{
closed = 1;
nodes = (
(499,613,l),
(414,613,l),
(414,375,l,{
"Letterink-NibData" = {
AngleInDegrees = 360;
};
}),
(431,391,l,{
"Letterink-NibData" = {
AngleInDegrees = 360;
};
}),
(402,436,o),
(338,470,o),
(266,470,cs),
(167,470,o),
(52,402,o),
(52,233,cs),
(52,79,o),
(138,-10,o),
(258,-10,cs),
(327,-10,o),
(382,23,o),
(415,80,c),
(415,17,o),
(446,-30,o),
(520,3,c,{
"Letterink-NibData" = {
AngleInDegrees = 0;
};
}),
(502,41,o),
(499,70,o),
(499,127,cs),
(499,273,l)
);
},
{
closed = 1;
nodes = (
(143,353,o),
(210,404,o),
(280,404,cs),
(345,404,o),
(413,361,o),
(413,233,cs),
(413,125,o),
(345,60,o),
(277,60,cs),
(196,60,o),
(145,133,o),
(144,233,cs,{
"Letterink-NibData" = {
AngleInDegrees = 0;
};
})
);
}
);
width = 580;
}
);
note = d;
unicode = 100;
},
{
glyphname = e;
kernLeft = KO_e;
kernRight = KO_e;
lastChange = "2025-10-11 16:12:11 +0000";
layers = (
{
anchors = (
{
name = bottom;
pos = (257,0);
},
{
name = ogonek;
pos = (463,10);
},
{
name = top;
pos = (285,458);
}
);
background = {
shapes = (
{
ref = c;
}
);
};
hints = (
{
name = _corner.ink;
origin = (0,0);
type = Corner;
}
);
layerId = m01;
shapes = (
{
closed = 1;
nodes = (
(396,150,c,{
"Letterink-NibData" = {
AngleInDegrees = 360;
};
}),
(376,92,o),
(325,65,o),
(279,65,cs),
(199,65,o),
(148,132,o),
(141,221,cs,{
"Letterink-NibData" = {
AngleInDegrees = 0;
};
}),
(132,335,o),
(199,405,o),
(283,405,cs),
(388,405,o),
(385,253,o),
(128,214,c,{
"Letterink-NibData" = {
AngleInDegrees = 0;
};
}),
(142,158,l,{
"Letterink-NibData" = {
AngleInDegrees = 360;
};
}),
(374,192,o),
(439,262,o),
(441,335,cs,{
"Letterink-NibData" = {
AngleInDegrees = 0;
};
}),
(444,413,o),
(394,470,o),
(289,470,cs),
(157,470,o),
(50,373,o),
(50,228,cs),
(50,-26,o),
(296,-46,o),
(390,28,cs,{
"Letterink-NibData" = {
AngleInDegrees = 360;
};
}),
(452,80,o),
(444,137,o)
);
}
);
width = 514;
}
);
metricLeft = "=o";
note = e;
unicode = 101;
userData = {
KernOnName = e;
};
},
{
glyphname = f;
kernLeft = KO_f;
lastChange = "2025-10-11 16:12:11 +0000";
layers = (
{
anchors = (
{
name = bottom;
pos = (150,0);
},
{
name = top;
pos = (150,610);
}
);
background = {
shapes = (
{
angle = 180;
pos = (605,463);
ref = g;
}
);
};
hints = (
{
name = _corner.ink;
origin = (1,0);
type = Corner;
},
{
name = _corner.ink;
options = 2;
origin = (1,1);
scale = (-1,1);
type = Corner;
},
{
name = _corner.ink;
origin = (1,2);
type = Corner;
},
{
name = _corner.ink;
options = 2;
origin = (1,3);
scale = (-1,1);
type = Corner;
},
{
name = _corner.ink;
origin = (0,0);
type = Corner;
},
{
name = _corner.ink;
origin = (0,14);
type = Corner;
}
);
layerId = m01;
shapes = (
{
closed = 1;
nodes = (
(191,1,l),
(191,472,ls),
(191,548,o),
(279,515,o),
(315,554,cs,{
"Letterink-NibData" = {
AngleInDegrees = 0;
};
}),
(332,573,o),
(330,600,o),
(318,614,cs,{
"Letterink-NibData" = {
AngleInDegrees = 360;
};
}),
(313,620,o),
(307,621,o),
(299,621,cs,{
"Letterink-NibData" = {
AngleInDegrees = 359.99999;
};
}),
(171,617,o),
(106,534,o),
(106,447,cs),
(106,1,l)
);
},
{
closed = 1;
nodes = (
(309,395,l),
(309,455,l),
(38,455,l),
(38,395,l)
);
}
);
width = 300;
}
);
note = f;
unicode = 102;
userData = {
KernOnName = f;
};
},
{
glyphname = g;
kernLeft = KO_a;
kernRight = KO_g;
lastChange = "2025-10-11 16:12:11 +0000";
layers = (
{
anchors = (
{
name = bottom;
pos = (279,-150);
},
{
name = top;
pos = (279,460);
}
);
hints = (
{
name = _corner.ink;
origin = (2,6);
type = Corner;
},
{
name = _corner.ink;
origin = (0,4);
type = Corner;
},
{
name = _corner.ink;
options = 2;
origin = (2,17);
scale = (-1,1);
type = Corner;
}
);
layerId = m01;
shapes = (
{
closed = 1;
nodes = (
(497,51,l),
(497,110,l),
(497,203,l),
(497,273,l),
(497,462,l),
(412,462,l),
(412,412,l,{
"Letterink-NibData" = {
AngleInDegrees = 0;
};
}),
(378,447,o),
(324,470,o),
(264,470,cs),
(165,470,o),
(50,402,o),
(50,233,cs),
(50,79,o),
(136,-10,o),
(256,-10,cs),
(325,-10,o),
(380,23,o),
(413,80,c),
(413,44,l,{
"Letterink-NibData" = {
AngleInDegrees = 0;
};
})
);
},
{
closed = 1;
nodes = (
(141,353,o),
(208,404,o),
(278,404,cs),
(343,404,o),
(411,361,o),
(411,233,cs),
(411,125,o),
(343,60,o),
(275,60,cs),
(194,60,o),
(143,133,o),
(142,233,cs,{
"Letterink-NibData" = {
AngleInDegrees = 0;
};
})
);
},
{
closed = 1;
nodes = (
(409,61,ls),
(409,-39,o),
(345,-75,o),
(260,-75,cs),
(215,-75,o),
(158,-64,o),
(105,-39,c,{
"Letterink-NibData" = {
AngleInDegrees = 0;
};
}),
(104,-44,o),
(104,-49,o),
(104,-53,cs),
(104,-122,o),
(177,-161,o),
(260,-161,cs),
(369,-161,o),
(497,-113,o),
(497,68,cs),
(497,462,l),
(409,462,l)
);
}
);
width = 557;
}
);
metricLeft = "=o";
note = g;
unicode = 103;
userData = {
KernOnName = g;
};
},
{
glyphname = h;
kernLeft = KO_l;
kernRight = KO_n;
lastChange = "2025-10-11 15:38:50 +0000";
layers = (
{
anchors = (
{
name = bottom;
pos = (283,0);
},
{
name = center;
pos = (142,488);
},
{
name = top;
pos = (283,610);
}
);
hints = (
{
name = _corner.ink;
origin = (0,10);
type = Corner;
}
);
layerId = m01;
shapes = (
{
closed = 1;
nodes = (
(170,258,l),
(170,357,o),
(247,393,o),
(309,393,cs),
(374,393,o),
(411,359,o),
(411,247,cs),
(411,105,ls),
(411,26,o),
(436,-26,o),
(519,0,c,{
"Letterink-NibData" = {
AngleInDegrees = 0;
};
}),
(502,54,o),
(499,67,o),
(499,107,cs),
(499,270,ls),
(499,391,o),
(442,470,o),
(336,470,cs),
(267,470,o),
(191,436,o),
(152,365,c,{
"Letterink-NibData" = {
AngleInDegrees = 0;
};
})
);
},
{
pos = (2,0);
ref = l;
}
);
width = 566;
}
);
metricRight = "=n";
note = h;
unicode = 104;
},
{
glyphname = i;
kernLeft = KO_i;
kernRight = KO_i;
lastChange = "2025-10-11 14:49:05 +0000";
layers = (
{
anchors = (
{
name = bottom;
pos = (134,0);
}
);
layerId = m01;
shapes = (
{
closed = 1;
nodes = (
(59,555,o),
(83,532,o),
(112,532,cs),
(142,532,o),
(166,555,o),
(166,584,cs),
(166,613,o),
(142,636,o),
(112,636,cs),
(83,636,o),
(59,613,o),
(59,584,cs)
);
},
{
ref = idotless;
}
);
width = 267;
}
);
note = i;
unicode = 105;
},
{
glyphname = j;
kernLeft = KO_j;
kernRight = KO_j;
lastChange = "2025-10-09 07:23:11 +0000";
layers = (
{
hints = (
{
name = _corner.ink;
origin = (0,3);
type = Corner;
},
{
name = _corner.ink;
options = 2;
origin = (2,3);
scale = (-1,1);
type = Corner;
},
{
name = _corner.ink;
options = 2;
origin = (2,7);
scale = (-1,1);
type = Corner;
},
{
name = _corner.ink;
origin = (2,8);
type = Corner;
}
);
layerId = m01;
shapes = (
{
closed = 1;
nodes = (
(162,61,ls),
(162,-80,o),
(107,-98,o),
(1,-46,c,{
"Letterink-NibData" = {
AngleInDegrees = 359.99999;
};
}),
(-8,-109,o),
(36,-158,o),
(110,-158,cs),
(221,-158,o),
(250,-68,o),
(250,68,cs),
(250,312,l),
(162,312,l)
);
},
{
closed = 1;
nodes = (
(140,555,o),
(164,532,o),
(193,532,cs),
(223,532,o),
(247,555,o),
(247,584,cs),
(247,613,o),
(223,636,o),
(193,636,cs),
(164,636,o),
(140,613,o),
(140,584,cs)
);
},
{
closed = 1;
nodes = (
(250,362,l),
(250,421,o),
(237,497,o),
(139,461,c,{
"Letterink-NibData" = {
AngleInDegrees = "0";
};
}),
(154,420,o),
(162,377,o),
(162,333,cs),
(162,3,l),
(250,3,l)
);
}
);
width = 339;
}
);
metricRight = "=l";
unicode = 106;
},
{
glyphname = k;
kernLeft = KO_l;
kernRight = KO_k;
lastChange = "2025-10-11 16:12:11 +0000";
layers = (
{
anchors = (
{
name = bottom;
pos = (238,0);
},
{
name = top;
pos = (238,610);
}
);
hints = (
{
name = _corner.ink;
options = 2;
origin = (2,4);
scale = (-1,1);
type = Corner;
},
{
name = _corner.ink;
origin = (1,6);
type = Corner;
}
);
layerId = m01;
shapes = (
{
ref = l;
},
{
closed = 1;
nodes = (
(205,242,l,{
"Letterink-NibData" = {
AngleInDegrees = 0;
};
}),
(240,120,o),
(300,24,o),
(376,0,cs,{
"Letterink-NibData" = {
AngleInDegrees = 0;
};
}),
(429,-17,o),
(455,11,o),
(465,25,c,{
"Letterink-NibData" = {
AngleInDegrees = 359.99999;
};
}),
(351,107,o),
(306,188,o),
(260,291,c,{
"Letterink-NibData" = {
AngleInDegrees = 360;
};
})
);
},
{
closed = 1;
nodes = (
(146,195,l,{
"Letterink-NibData" = {
AngleInDegrees = 360;
};
}),
(380,363,l,{
"Letterink-NibData" = {
AngleInDegrees = 360;
};
}),
(428,397,o),
(427,464,o),
(373,475,c,{
"Letterink-NibData" = {
AngleInDegrees = 359.99999;
};
}),
(135,262,l,{
"Letterink-NibData" = {
AngleInDegrees = 0;
};
})
);
}
);
width = 475;
}
);
unicode = 107;
userData = {
KernOnName = k;
};
},
{
glyphname = l;
kernLeft = KO_l;
kernRight = KO_l;
lastChange = "2025-10-11 16:12:11 +0000";
layers = (
{
anchors = (
{
name = bottom;
pos = (123,0);
},
{
name = center;
pos = (123,230);
},
{
name = top;
pos = (123,610);
},
{
name = topright;
pos = (168,610);
}
);
hints = (
{
name = _corner.ink;
origin = (0,0);
type = Corner;
},
{
name = _corner.ink;
options = 2;
origin = (0,3);
scale = (-1,1);
type = Corner;
},
{
name = _corner.ink;
origin = (1,4);
type = Corner;
}
);
layerId = m01;
shapes = (
{
closed = 1;
nodes = (
(80,613,l),
(80,228,l),
(168,228,l),
(168,613,l)
);
},
{
closed = 1;
nodes = (
(80,247,l),
(80,105,ls),
(80,26,o),
(105,-26,o),
(188,0,c,{
"Letterink-NibData" = {
AngleInDegrees = "0";
};
}),
(171,54,o),
(168,67,o),
(168,107,cs),
(168,270,l)
);
}
);
width = 246;
}
);
note = l;
unicode = 108;
userData = {
KernOnName = l;
};
},
{
glyphname = m;
kernLeft = KO_n;
kernRight = KO_n;
lastChange = "2025-10-11 14:49:05 +0000";
layers = (
{
anchors = (
{
name = bottom;
pos = (422,0);
},
{
name = top;
pos = (422,460);
}
);
hints = (
{
name = _corner.ink;
origin = (0,7);
type = Corner;
},
{
name = _corner.ink;
options = 2;
origin = (0,8);
scale = (-1,1);
type = Corner;
},
{
name = _corner.ink;
origin = (2,4);
type = Corner;
},
{
name = _corner.ink;
options = 2;
origin = (3,3);
scale = (-1,1);
type = Corner;
},
{
name = _corner.ink;
options = 2;
origin = (3,7);
scale = (-1,1);
type = Corner;
},
{
name = _corner.ink;
origin = (3,8);
type = Corner;
}
);
layerId = m01;
shapes = (
{
closed = 1;
nodes = (
(170,246,l),
(170,345,o),
(241,394,o),
(295,394,cs),
(359,394,o),
(389,337,o),
(389,230,cs),
(389,0,l),
(470,0,l),
(470,247,l,{
"Letterink-NibData" = {
AngleInDegrees = 360;
};
}),
(466,270,ls,{
"Letterink-NibData" = {
AngleInDegrees = 359.99999;
};
}),
(464,391,o),
(410,467,o),
(319,467,cs),
(260,467,o),
(204,436,o),
(162,384,c,{
"Letterink-NibData" = {
AngleInDegrees = 0;
};
})
);
},
{
closed = 1;
nodes = (
(470,246,l),
(470,345,o),
(541,394,o),
(596,394,cs),
(660,394,o),
(689,337,o),
(689,230,c,{
"Letterink-NibData" = {
AngleInDegrees = 0;
};
}),
(777,260,l),
(777,391,o),
(714,469,o),
(617,469,cs),
(557,469,o),
(492,443,o),
(442,372,c,{
"Letterink-NibData" = {
AngleInDegrees = 0;
};
})
);
},
{
closed = 1;
nodes = (
(689,244,l),
(689,102,ls),
(689,23,o),
(714,-29,o),
(797,-3,c,{
"Letterink-NibData" = {
AngleInDegrees = 0;
};
}),
(780,51,o),
(777,64,o),
(777,104,cs),
(777,267,l,{
"Letterink-NibData" = {
AngleInDegrees = 0;
};
})
);
},
{
closed = 1;
nodes = (
(170,359,l),
(170,418,o),
(157,494,o),
(59,458,c,{
"Letterink-NibData" = {
AngleInDegrees = 0;
};
}),
(74,417,o),
(82,374,o),
(82,330,cs),
(82,0,l),
(170,0,l),
(170,77,l)
);
}
);
width = 844;
}
);
metricLeft = "=n";
metricRight = "=n";
note = m;
unicode = 109;
},
{
glyphname = n;
kernLeft = KO_n;
kernRight = KO_n;
lastChange = "2025-10-11 16:14:20 +0000";
layers = (
{
anchors = (
{
name = bottom;
pos = (283,0);
},
{
name = top;
pos = (283,460);
}
);
background = {
shapes = (
{
closed = 1;
nodes = (
(197,460,l),
(88,460,l),
(88,0,l),
(197,0,l),
(197,77,l)
);
},
{
closed = 1;
nodes = (
(197,230,l),
(197,320,o),
(245,376,o),
(321,376,cs),
(397,376,o),
(445,320,o),
(445,230,c),
(445,0,l),
(551,0,l),
(551,235,ls),
(551,386,o),
(476,470,o),
(356,470,cs),
(277,470,o),
(218,431,o),
(189,368,c)
);
}
);
};
hints = (
{
name = _corner.ink;
options = 2;
origin = (0,3);
scale = (-1,1);
type = Corner;
},
{
name = _corner.ink;
options = 2;
origin = (0,7);
scale = (-1,1);
type = Corner;
},
{
name = _corner.ink;
origin = (0,8);
type = Corner;
},
{
name = _corner.ink;
origin = (1,10);
type = Corner;
}
);
layerId = m01;
shapes = (
{
closed = 1;
nodes = (
(170,359,l),
(170,418,o),
(157,494,o),
(59,458,c,{
"Letterink-NibData" = {
AngleInDegrees = 0;
};
}),
(74,417,o),
(82,374,o),
(82,330,cs),
(82,0,l),
(170,0,l),
(170,77,l)
);
},
{
closed = 1;
nodes = (
(170,258,l),
(170,357,o),
(247,393,o),
(309,393,cs),
(374,393,o),
(411,359,o),
(411,247,cs),
(411,105,ls),
(411,26,o),
(436,-26,o),
(519,0,c,{
"Letterink-NibData" = {
AngleInDegrees = 0;
};
}),
(502,54,o),
(499,67,o),
(499,107,cs),
(499,270,ls),
(499,391,o),
(442,470,o),
(336,470,cs),
(267,470,o),
(191,436,o),
(152,365,c,{
"Letterink-NibData" = {
AngleInDegrees = 0;
};
})
);
}
);
width = 565;
}
);
note = n;
unicode = 110;
userData = {
KernOnName = n;
};
},
{
glyphname = o;
kernLeft = KO_o;
kernRight = KO_o;
lastChange = "2025-10-11 16:12:11 +0000";
layers = (
{
anchors = (
{
name = bottom;
pos = (280,0);
},
{
name = center;
pos = (280,230);
},
{
name = ogonek;
pos = (504,10);
},
{
name = top;
pos = (280,460);
},
{
name = topright;
pos = (540,460);
}
);
layerId = m01;
shapes = (
{
closed = 1;
nodes = (
(50,89,o),
(149,-10,o),
(280,-10,cs),
(411,-10,o),
(510,89,o),
(510,230,cs),
(510,372,o),
(411,470,o),
(280,470,cs),
(149,470,o),
(50,372,o),
(50,230,cs)
);
},
{
closed = 1;
nodes = (
(141,157,o),
(141,250,cs),
(141,337,o),
(194,405,o),
(271,405,cs),
(364,405,o),
(419,303,o),
(419,210,cs),
(419,119,o),
(365,55,o),
(288,55,cs),
(195,55,o)
);
}
);
width = 560;
}
);
note = o;
unicode = 111;
userData = {
KernOnName = o;
};
},
{
glyphname = p;
kernLeft = KO_p;
kernRight = KO_b;
lastChange = "2025-10-11 14:49:05 +0000";
layers = (
{
anchors = (
{
name = bottom;
pos = (285,0);
},
{
name = top;
pos = (285,460);
}
);
guides = (
{
pos = (102,-172);
}
);
hints = (
{
name = _corner.ink;
origin = (0,0);
type = Corner;
},
{
name = _corner.ink;
options = 2;
origin = (0,16);
scale = (-1,1);
type = Corner;
},
{
name = _corner.ink;
options = 2;
origin = (0,20);
scale = (-1,1);
type = Corner;
}
);
layerId = m01;
shapes = (
{
closed = 1;
nodes = (
(156,-151,l,{
"Letterink-NibData" = {
AngleInDegrees = 0;
};
}),
(157,43,l,{
"Letterink-NibData" = {
AngleInDegrees = 360;
};
}),
(191,12,o),
(242,-6,o),
(295,-7,cs,{
"Letterink-NibData" = {
AngleInDegrees = 360;
};
}),
(420,-10,o),
(518,95,o),
(518,249,cs),
(518,384,o),
(432,473,o),
(312,473,cs),
(243,473,o),
(188,440,o),
(155,383,c),
(155,452,o),
(135,473,o),
(50,460,c,{
"Letterink-NibData" = {
AngleInDegrees = 0;
};
}),
(60,431,o),
(71,391,o),
(71,353,cs),
(71,-151,l)
);
},
{
closed = 1;
nodes = (
(209,59,o),
(165,149,o),
(165,233,cs),
(165,329,o),
(218,397,o),
(295,397,cs),
(388,397,o),
(433,307,o),
(433,214,cs),
(433,123,o),
(379,59,o),
(302,59,cs)
);
}
);
width = 570;
}
);
note = p;
unicode = 112;
},
{
glyphname = q;
kernLeft = KO_d;
kernRight = KO_q;
lastChange = "2025-10-11 14:49:05 +0000";
layers = (
{
anchors = (
{
name = bottom;
pos = (275,0);
},
{
name = top;
pos = (275,460);
}
);
hints = (
{
name = _corner.ink;
options = 2;
origin = (1,8);
scale = (-1,1);
type = Corner;
},
{
name = _corner.ink;
origin = (1,2);
type = Corner;
},
{
name = _corner.ink;
options = 2;
origin = (1,3);
scale = (-1,1);
type = Corner;
}
);
layerId = m01;
shapes = (
{
closed = 1;
nodes = (
(473,386,o),
(379,470,o),
(266,470,cs),
(140,470,o),
(52,372,o),
(52,233,cs),
(52,79,o),
(138,-10,o),
(258,-10,cs),
(394,-10,o),
(476,119,o),
(441,307,c,{
"Letterink-NibData" = {
AngleInDegrees = 0;
};
})
);
},
{
closed = 1;
nodes = (
(438,190,l,{
"Letterink-NibData" = {
AngleInDegrees = 0;
};
}),
(414,85,l),
(414,-153,l),
(499,-153,l),
(499,187,l),
(499,350,ls),
(499,390,o),
(502,419,o),
(520,457,c,{
"Letterink-NibData" = {
AngleInDegrees = 0;
};
}),
(441,480,o),
(423,435,o),
(414,375,cs,{
"Letterink-NibData" = {
AngleInDegrees = 0;
};
}),
(413,369,o),
(411,362,o),
(409,355,c,{
"Letterink-NibData" = {
AngleInDegrees = 0;
};
})
);
},
{
closed = 1;
nodes = (
(142,307,o),
(186,397,o),
(279,397,cs),
(356,397,o),
(410,333,o),
(410,242,cs),
(410,149,o),
(365,59,o),
(272,59,cs),
(195,59,o),
(142,127,o),
(142,214,cs)
);
}
);
width = 550;
}
);
unicode = 113;
},
{
glyphname = r;
kernLeft = KO_r;
kernRight = KO_r;
lastChange = "2025-10-11 16:12:11 +0000";
layers = (
{
anchors = (
{
name = bottom;
pos = (181,0);
},
{
name = top;
pos = (181,460);
}
);
hints = (
{
name = _corner.ink;
origin = (0,0);
type = Corner;
},
{
name = _corner.ink;
options = 2;
origin = (0,1);
scale = (-1,1);
type = Corner;
},
{
name = _corner.ink;
origin = (0,2);
type = Corner;
},
{
name = _corner.ink;
options = 2;
origin = (0,3);
scale = (-1,1);
type = Corner;
}
);
layerId = m01;
shapes = (
{
closed = 1;
nodes = (
(176,460,l),
(91,460,l),
(91,0,l),
(176,0,l)
);
},
{
closed = 1;
nodes = (
(176,283,l),
(176,355,o),
(241,369,o),
(280,380,cs,{
"Letterink-NibData" = {
AngleInDegrees = 0;
};
}),
(320,392,o),
(341,429,o),
(327,457,cs,{
"Letterink-NibData" = {
AngleInDegrees = 359.99998;
};
}),
(323,465,o),
(318,468,o),
(310,468,cs,{
"Letterink-NibData" = {
AngleInDegrees = 0;
};
}),
(246,467,o),
(194,435,o),
(167,369,c,{
"Letterink-NibData" = {
AngleInDegrees = 0;
};
})
);
}
);
width = 361;
}
);
note = r;
unicode = 114;
userData = {
KernOnName = r;
};
},
{
glyphname = s;
kernLeft = KO_s;
kernRight = KO_s;
lastChange = "2025-10-11 16:12:11 +0000";
layers = (
{
anchors = (
{
name = bottom;
pos = (215,0);
},
{
name = top;
pos = (215,460);
}
);
hints = (
{
name = _corner.ink;
origin = (0,14);
type = Corner;
},
{
name = _corner.ink;
origin = (0,29);
type = Corner;
}
);
layerId = m01;
shapes = (
{
closed = 1;
nodes = (
(20,54,o),
(85,-9,o),
(213,-9,cs),
(320,-9,o),
(424,31,o),
(422,130,cs,{
"Letterink-NibData" = {
AngleInDegrees = 359.99999;
};
}),
(419,282,o),
(152,258,o),
(157,355,cs,{
"Letterink-NibData" = {
AngleInDegrees = 0;
};
}),
(160,388,o),
(205,407,o),
(239,407,cs),
(299,407,o),
(316,382,o),
(333,338,c),
(370,338,o),
(397,363,o),
(397,394,cs),
(397,445,o),
(335,470,o),
(263,470,cs),
(152,470,o),
(66,424,o),
(66,338,cs),
(66,176,o),
(332,214,o),
(332,121,cs),
(332,49,o),
(135,54,o),
(55,134,c,{
"Letterink-NibData" = {
AngleInDegrees = 0;
};
})
);
}
);
width = 429;
}
);
note = s;
unicode = 115;
userData = {
KernOnName = s;
};
},
{
glyphname = t;
kernLeft = KO_t;
kernRight = KO_t;
lastChange = "2025-10-11 16:14:12 +0000";
layers = (
{
anchors = (
{
name = bottom;
pos = (162,0);
},
{
name = center;
pos = (162,230);
},
{
name = top;
pos = (162,536);
},
{
name = topright;
pos = (304,610);
}
);
hints = (
{
name = _corner.ink;
origin = (0,15);
type = Corner;
},
{
name = _corner.ink;
origin = (0,2);
type = Corner;
},
{
name = _corner.ink;
options = 2;
origin = (0,3);
scale = (-1,1);
type = Corner;
},
{
name = _corner.ink;
options = 2;
origin = (0,5);
scale = (-1,1);
type = Corner;
},
{
name = _corner.ink;
origin = (0,6);
type = Corner;
},
{
name = _corner.ink;
origin = (0,7);
type = Corner;
}
);
layerId = m01;
shapes = (
{
closed = 1;
nodes = (
(175,391,l),
(175,397,l),
(293,397,l),
(293,457,l),
(175,457,l),
(175,533,l),
(132,533,l,{
"Letterink-NibData" = {
AngleInDegrees = 0;
};
}),
(-1,397,l),
(91,397,l),
(91,157,ls),
(91,61,o),
(106,-3,o),
(196,-9,cs,{
"Letterink-NibData" = {
AngleInDegrees = 360;
};
}),
(261,-14,o),
(294,26,o),
(294,77,c,{
"Letterink-NibData" = {
AngleInDegrees = 0;
};
}),
(189,53,o),
(175,69,o),
(175,157,cs)
);
}
);
width = 324;
}
);
note = t;
unicode = 116;
userData = {
KernOnName = t;
};
},
{
glyphname = u;
kernLeft = KO_u;
kernRight = KO_u;
lastChange = "2025-10-11 14:49:05 +0000";
layers = (
{
anchors = (
{
name = bottom;
pos = (265,0);
},
{
name = ogonek;
pos = (477,10);
},
{
name = top;
pos = (265,460);
},
{
name = topright;
pos = (510,460);
}
);
hints = (
{
name = _corner.ink;
options = 2;
origin = (0,3);
scale = (-1,1);
type = Corner;
},
{
name = _corner.ink;
options = 2;
origin = (0,7);
scale = (-1,1);
type = Corner;
},
{
name = _corner.ink;
origin = (0,8);
type = Corner;
},
{
name = _corner.ink;
origin = (1,7);
type = Corner;
},
{
name = _corner.ink;
options = 2;
origin = (1,8);
scale = (-1,1);
type = Corner;
}
);
layerId = m01;
shapes = (
{
closed = 1;
nodes = (
(362,102,l,{
"Letterink-NibData" = {
AngleInDegrees = 0;
};
}),
(353,41,o),
(388,-31,o),
(471,1,c,{
"Letterink-NibData" = {
AngleInDegrees = 359.99999;
};
}),
(456,42,o),
(450,87,o),
(450,131,cs),
(450,460,l),
(362,460,l),
(362,393,l)
);
},
{
closed = 1;
nodes = (
(362,203,l),
(362,104,o),
(301,68,o),
(239,68,cs),
(181,68,o),
(137,105,o),
(137,214,cs),
(137,460,l),
(49,460,l),
(49,191,ls),
(49,70,o),
(106,-9,o),
(214,-9,cs),
(281,-9,o),
(341,20,o),
(380,91,c,{
"Letterink-NibData" = {
AngleInDegrees = 359.99999;
};
})
);
}
);
width = 530;
}
);
metricLeft = "=|n";
metricRight = "=|n";
unicode = 117;
},
{
glyphname = v;
kernLeft = KO_v;
kernRight = KO_v;
lastChange = "2025-10-11 16:12:11 +0000";
layers = (
{
anchors = (
{
name = bottom;
pos = (238,0);
},
{
name = top;
pos = (238,460);
}
);
hints = (
{
name = _corner.ink;
origin = (0,0);
type = Corner;
},
{
name = _corner.ink;
options = 2;
origin = (0,1);
scale = (-1,1);
type = Corner;
},
{
name = _corner.ink;
origin = (0,2);
type = Corner;
},
{
name = _corner.ink;
origin = (0,5);
type = Corner;
},
{
name = _corner.ink;
options = 2;
origin = (0,6);
scale = (-1,1);
type = Corner;
},
{
name = _corner.ink;
origin = (0,7);
type = Corner;
}
);
layerId = m01;
shapes = (
{
closed = 1;
nodes = (
(279,-1,l,{
"Letterink-NibData" = {
AngleInDegrees = 0;
};
}),
(476,460,l),
(379,460,l,{
"Letterink-NibData" = {
AngleInDegrees = 359.99999;
};
}),
(233,72,l),
(250,72,l,{
"Letterink-NibData" = {
AngleInDegrees = 0;
};
}),
(97,460,l),
(0,460,l,{
"Letterink-NibData" = {
AngleInDegrees = 0;
};
}),
(191,-1,l)
);
}
);
width = 476;
}
);
unicode = 118;
userData = {
KernOnName = v;
};
},
{
glyphname = w;
kernLeft = KO_w;
kernRight = KO_w;
lastChange = "2025-10-11 16:12:11 +0000";
layers = (
{
anchors = (
{
name = bottom;
pos = (337,0);
},
{
name = top;
pos = (337,460);
}
);
hints = (
{
name = _corner.ink;
origin = (0,5);
type = Corner;
},
{
name = _corner.ink;
origin = (0,2);
type = Corner;
},
{
name = _corner.ink;
options = 2;
origin = (0,3);
scale = (-1,1);
type = Corner;
},
{
name = _corner.ink;
origin = (0,4);
type = Corner;
},
{
name = _corner.ink;
origin = (0,8);
type = Corner;
},
{
name = _corner.ink;
options = 2;
origin = (0,9);
scale = (-1,1);
type = Corner;
},
{
name = _corner.ink;
origin = (0,10);
type = Corner;
},
{
name = _corner.ink;
origin = (0,7);
type = Corner;
},
{
name = _corner.ink;
origin = (0,12);
type = Corner;
},
{
name = _corner.ink;
origin = (0,0);
type = Corner;
}
);
layerId = m01;
shapes = (
{
closed = 1;
nodes = (
(325,327,l,{
"Letterink-NibData" = {
AngleInDegrees = 0;
};
}),
(212,95,l),
(95,460,l),
(0,460,l,{
"Letterink-NibData" = {
AngleInDegrees = 0;
};
}),
(161,-1,l),
(246,-1,l,{
"Letterink-NibData" = {
AngleInDegrees = 360;
};
}),
(343,186,l),
(428,-1,l),
(514,-1,l,{
"Letterink-NibData" = {
AngleInDegrees = 360;
};
}),
(672,460,l),
(579,460,l,{
"Letterink-NibData" = {
AngleInDegrees = 0;
};
}),
(472,108,l),
(360,327,l)
);
}
);
width = 673;
}
);
metricLeft = "=v";
metricRight = "=v";
unicode = 119;
userData = {
KernOnName = w;
};
},
{
glyphname = x;
kernLeft = KO_x;
kernRight = KO_x;
lastChange = "2025-10-11 14:49:05 +0000";
layers = (
{
anchors = (
{
name = bottom;
pos = (224,0);
},
{
name = top;
pos = (224,460);
}
);
hints = (
{
name = _corner.ink;
options = 2;
origin = (0,4);
scale = (-1,1);
type = Corner;
},
{
name = _corner.ink;
origin = (2,3);
type = Corner;
},
{
name = _corner.ink;
origin = (2,7);
type = Corner;
},
{
name = _corner.ink;
origin = (1,4);
type = Corner;
}
);
layerId = m01;
shapes = (
{
closed = 1;
nodes = (
(234,191,l,{
"Letterink-NibData" = {
AngleInDegrees = 360;
};
}),
(374,357,ls,{
"Letterink-NibData" = {
AngleInDegrees = 360;
};
}),
(413,403,o),
(412,467,o),
(357,477,c,{
"Letterink-NibData" = {
AngleInDegrees = 360;
};
}),
(205,263,l,{
"Letterink-NibData" = {
AngleInDegrees = 0;
};
})
);
},
{
closed = 1;
nodes = (
(190,270,l,{
"Letterink-NibData" = {
AngleInDegrees = 0;
};
}),
(41,106,ls,{
"Letterink-NibData" = {
AngleInDegrees = 0;
};
}),
(0,61,o),
(4,-3,o),
(58,-13,c,{
"Letterink-NibData" = {
AngleInDegrees = 0;
};
}),
(218,198,l,{
"Letterink-NibData" = {
AngleInDegrees = 359.99999;
};
})
);
},
{
closed = 1;
nodes = (
(130,431,ls,{
"Letterink-NibData" = {
AngleInDegrees = 0;
};
}),
(112,456,o),
(67,494,o),
(15,443,c,{
"Letterink-NibData" = {
AngleInDegrees = 359.99999;
};
}),
(308,37,ls,{
"Letterink-NibData" = {
AngleInDegrees = 359.99999;
};
}),
(342,-11,o),
(397,-26,o),
(423,25,c,{
"Letterink-NibData" = {
AngleInDegrees = 0;
};
})
);
}
);
width = 448;
}
);
unicode = 120;
},
{
glyphname = y;
kernLeft = KO_y;
kernRight = KO_g;
lastChange = "2025-10-11 16:12:11 +0000";
layers = (
{
anchors = (
{
name = bottom;
pos = (255,0);
},
{
name = top;
pos = (255,460);
}
);
hints = (
{
name = _corner.ink;
origin = (0,10);
type = Corner;
},
{
name = _corner.ink;
options = 2;
origin = (0,11);
scale = (-1,1);
type = Corner;
},
{
name = _corner.ink;
options = 2;
origin = (1,7);
scale = (-1,1);
type = Corner;
},
{
name = _corner.ink;
origin = (1,8);
type = Corner;
},
{
name = _corner.ink;
origin = (0,3);
type = Corner;
}
);
layerId = m01;
shapes = (
{
closed = 1;
nodes = (
(362,61,ls),
(362,-102,o),
(193,-102,o),
(58,-46,c,{
"Letterink-NibData" = {
AngleInDegrees = 359.99999;
};
}),
(49,-109,o),
(93,-150,o),
(152,-158,cs,{
"Letterink-NibData" = {
AngleInDegrees = 0;
};
}),
(309,-178,o),
(450,-109,o),
(450,68,cs),
(450,462,l),
(362,462,l)
);
},
{
closed = 1;
nodes = (
(362,220,l),
(362,121,o),
(301,85,o),
(239,85,cs),
(181,85,o),
(137,122,o),
(137,231,cs),
(137,460,l),
(49,460,l),
(49,208,ls),
(49,87,o),
(106,8,o),
(205,8,cs),
(281,8,o),
(341,42,o),
(380,113,c,{
"Letterink-NibData" = {
AngleInDegrees = 0;
};
})
);
}
);
width = 510;
}
);
metricLeft = "=u";
metricRight = "=g";
note = y;
unicode = 121;
userData = {
KernOnName = y;
};
},
{
glyphname = z;
kernLeft = KO_z;
kernRight = KO_z;
lastChange = "2025-10-11 16:12:11 +0000";
layers = (
{
anchors = (
{
name = bottom;
pos = (220,0);
},
{
name = center;
pos = (220,230);
},
{
name = top;
pos = (220,460);
}
);
hints = (
{
name = _corner.ink;
origin = (0,7);
type = Corner;
},
{
name = _corner.ink;
options = 2;
origin = (0,3);
scale = (-1,1);
type = Corner;
},
{
name = _corner.ink;
origin = (0,4);
type = Corner;
},
{
name = _corner.ink;
options = 2;
origin = (0,5);
scale = (-1,1);
type = Corner;
},
{
name = _corner.ink;
origin = (1,3);
type = Corner;
}
);
layerId = m01;
shapes = (
{
closed = 1;
nodes = (
(27,-26,o),
(82,-11,o),
(117,37,c,{
"Letterink-NibData" = {
AngleInDegrees = 0;
};
}),
(416,461,l),
(38,461,l),
(38,380,l),
(264,380,l,{
"Letterink-NibData" = {
AngleInDegrees = 0;
};
}),
(6,25,l,{
"Letterink-NibData" = {
AngleInDegrees = 359.99999;
};
})
);
},
{
closed = 1;
nodes = (
(80,75,l,{
"Letterink-NibData" = {
AngleInDegrees = 0;
};
}),
(157,-43,o),
(452,-44,o),
(429,102,c,{
"Letterink-NibData" = {
AngleInDegrees = 0;
};
}),
(311,53,o),
(203,50,o),
(122,120,c,{
"Letterink-NibData" = {
AngleInDegrees = 0;
};
})
);
}
);
width = 440;
}
);
unicode = 122;
userData = {
KernOnName = z;
};
},
{
glyphname = dcroat;
kernLeft = KO_d;
kernRight = KO_u;
lastChange = "2025-10-11 15:37:24 +0000";
layers = (
{
hints = (
{
name = _corner.ink;
origin = (1,0);
type = Corner;
},
{
name = _corner.ink;
options = 2;
origin = (1,1);
scale = (-1,1);
type = Corner;
},
{
name = _corner.ink;
origin = (1,2);
type = Corner;
},
{
name = _corner.ink;
options = 2;
origin = (1,3);
scale = (-1,1);
type = Corner;
}
);
layerId = m01;
shapes = (
{
ref = d;
},
{
closed = 1;
nodes = (
(545,504,l),
(545,559,l),
(319,559,l),
(319,504,l)
);
}
);
width = 580;
}
);
unicode = 273;
},
{
glyphname = acutecomb;
lastChange = "2025-10-11 15:33:13 +0000";
layers = (
{
anchors = (
{
name = _top;
pos = (89,460);
},
{
name = top;
pos = (149,720);
}
);
hints = (
{
name = _corner.ink;
options = 2;
origin = (0,1);
scale = (-1,1);
type = Corner;
},
{
name = _corner.ink;
origin = (0,2);
type = Corner;
}
);
layerId = m01;
shapes = (
{
closed = 1;
nodes = (
(268,572,o),
(165,662,c),
(25,537,l),
(33,524,ls),
(59,481,o)
);
}
);
width = 225;
}
);
unicode = 769;
},
{
glyphname = tildecomb;
lastChange = "2025-10-11 15:34:13 +0000";
layers = (
{
anchors = (
{
name = _top;
pos = (178,460);
},
{
name = top;
pos = (178,652);
}
);
layerId = m01;
shapes = (
{
closed = 1;
nodes = (
(152,554,o),
(115,551,cs),
(96,550,o),
(92,506,o),
(70,518,cs),
(20,546,o),
(73,625,o),
(132,624,cs),
(179,622,o),
(204,589,o),
(242,591,cs),
(270,593,o),
(267,638,o),
(292,623,cs),
(340,594,o),
(296,514,o),
(229,516,cs),
(180,518,o)
);
}
);
width = 300;
}
);
unicode = 771;
},
{
glyphname = zero;
kernLeft = KO_zero;
kernRight = KO_zero;
lastChange = "2025-10-03 15:49:50 +0000";
layers = (
{
layerId = m01;
shapes = (
{
closed = 1;
nodes = (
(40,134,o),
(151,-11,o),
(313,-11,cs),
(477,-11,o),
(585,134,o),
(585,350,cs),
(585,567,o),
(477,711,o),
(313,711,cs),
(151,711,o),
(40,567,o),
(40,350,cs)
);
},
{
closed = 1;
nodes = (
(156,501,o),
(217,605,o),
(313,605,cs),
(408,605,o),
(469,501,o),
(469,350,cs),
(469,200,o),
(408,95,o),
(313,95,cs),
(217,95,o),
(156,200,o),
(156,350,cs)
);
}
);
width = 625;
}
);
note = zero;
unicode = 48;
},
{
glyphname = one;
kernLeft = KO_one;
kernRight = KO_one;
lastChange = "2025-10-03 15:49:50 +0000";
layers = (
{
layerId = m01;
shapes = (
{
closed = 1;
nodes = (
(75,536,l,{
"Letterink-NibData" = {
AngleInDegrees = 360;
};
}),
(238,581,l),
(238,0,l),
(354,0,l),
(354,711,l,{
"Letterink-NibData" = {
AngleInDegrees = 359.99999;
};
}),
(75,648,l)
);
}
);
width = 474;
}
);
note = one;
unicode = 49;
},
{
glyphname = two;
kernLeft = KO_two;
kernRight = KO_two;
lastChange = "2025-10-03 15:49:50 +0000";
layers = (
{
layerId = m01;
shapes = (
{
closed = 1;
nodes = (
(20,0,l),
(554,0,l),
(554,110,l),
(251,110,l,{
"Letterink-NibData" = {
AngleInDegrees = 360;
};
}),
(449,305,ls,{
"Letterink-NibData" = {
AngleInDegrees = 360;
};
}),
(507,359,o),
(546,429,o),
(546,502,cs),
(546,595,o),
(468,712,o),
(306,712,cs),
(146,712,o),
(58,602,o),
(58,453,c),
(175,453,l),
(175,546,o),
(224,606,o),
(304,606,cs),
(381,606,o),
(423,550,o),
(423,496,cs),
(423,440,o),
(394,395,o),
(344,341,cs,{
"Letterink-NibData" = {
AngleInDegrees = 360;
};
})
);
}
);
width = 604;
}
);
note = two;
unicode = 50;
},
{
glyphname = three;
kernLeft = KO_three;
kernRight = KO_three;
lastChange = "2025-10-11 16:12:09 +0000";
layers = (
{
layerId = m01;
shapes = (
{
closed = 1;
nodes = (
(441,-12,o),
(537,67,o),
(537,188,cs),
(537,283,o),
(481,340,o),
(397,366,c,{
"Letterink-NibData" = {
AngleInDegrees = 360;
};
}),
(471,396,o),
(517,451,o),
(517,522,cs),
(517,625,o),
(437,711,o),
(302,711,cs),
(174,711,o),
(85,629,o),
(85,514,c),
(196,514,l),
(196,570,o),
(243,611,o),
(303,611,cs),
(366,611,o),
(398,572,o),
(398,516,cs),
(398,456,o),
(347,406,o),
(262,406,c),
(262,318,l),
(357,318,o),
(418,275,o),
(418,200,cs),
(418,130,o),
(371,90,o),
(299,90,cs),
(228,90,o),
(174,133,o),
(174,200,c),
(55,200,l),
(55,85,o),
(148,-12,o),
(297,-12,cs)
);
}
);
width = 576;
}
);
note = three;
unicode = 51;
},
{
glyphname = four;
kernLeft = KO_four;
kernRight = KO_four;
lastChange = "2025-10-03 15:49:50 +0000";
layers = (
{
layerId = m01;
shapes = (
{
closed = 1;
nodes = (
(18,134,l),
(363,134,l),
(363,0,l),
(484,0,l),
(484,134,l),
(594,134,l),
(594,236,l),
(484,236,l),
(484,700,l),
(413,700,l,{
"Letterink-NibData" = {
AngleInDegrees = 0;
};
})
);
},
{
closed = 1;
nodes = (
(191,228,l,{
"Letterink-NibData" = {
AngleInDegrees = 360;
};
}),
(371,489,l),
(371,228,l)
);
}
);
width = 629;
}
);
note = four;
unicode = 52;
},
{
glyphname = five;
kernLeft = KO_five;
kernRight = KO_five;
lastChange = "2025-10-03 15:49:50 +0000";
layers = (
{
layerId = m01;
shapes = (
{
closed = 1;
nodes = (
(557,369,o),
(462,461,o),
(346,461,cs),
(307,461,o),
(269,453,o),
(235,435,c,{
"Letterink-NibData" = {
AngleInDegrees = 360;
};
}),
(279,596,l),
(550,596,l),
(550,700,l),
(190,700,l,{
"Letterink-NibData" = {
AngleInDegrees = 360;
};
}),
(95,315,l,{
"Letterink-NibData" = {
AngleInDegrees = 360;
};
}),
(166,359,o),
(220,370,o),
(282,370,cs),
(363,370,o),
(430,320,o),
(430,235,cs),
(430,150,o),
(375,99,o),
(282,99,cs),
(215,99,o),
(146,144,o),
(105,199,c,{
"Letterink-NibData" = {
AngleInDegrees = 360;
};
}),
(35,113,l,{
"Letterink-NibData" = {
AngleInDegrees = 359.99999;
};
}),
(89,46,o),
(168,-11,o),
(297,-11,cs),
(432,-11,o),
(557,66,o),
(557,228,cs)
);
}
);
width = 597;
}
);
note = five;
unicode = 53;
},
{
glyphname = six;
kernLeft = KO_six;
kernRight = KO_six;
lastChange = "2025-10-03 15:49:50 +0000";
layers = (
{
layerId = m01;
shapes = (
{
closed = 1;
nodes = (
(331,699,l,{
"Letterink-NibData" = {
AngleInDegrees = 0;
};
}),
(109,401,ls,{
"Letterink-NibData" = {
AngleInDegrees = 0;
};
}),
(75,357,o),
(50,301,o),
(50,236,cs),
(50,81,o),
(163,-12,o),
(307,-12,cs),
(451,-12,o),
(564,81,o),
(564,236,cs),
(564,370,o),
(463,464,o),
(353,464,cs),
(325,464,o),
(301,461,o),
(281,451,c,{
"Letterink-NibData" = {
AngleInDegrees = 360;
};
}),
(481,699,l)
);
},
{
closed = 1;
nodes = (
(166,322,o),
(226,383,o),
(307,383,cs),
(388,383,o),
(448,322,o),
(448,236,cs),
(448,150,o),
(388,92,o),
(307,92,cs),
(226,92,o),
(166,150,o),
(166,236,cs)
);
}
);
width = 614;
}
);
note = six;
unicode = 54;
},
{
glyphname = seven;
kernLeft = KO_seven;
kernRight = KO_seven;
lastChange = "2025-10-11 16:12:11 +0000";
layers = (
{
layerId = m01;
shapes = (
{
closed = 1;
nodes = (
(30,589,l),
(377,589,l,{
"Letterink-NibData" = {
AngleInDegrees = 0;
};
}),
(90,0,l),
(216,0,l,{
"Letterink-NibData" = {
AngleInDegrees = 0;
};
}),
(553,700,l),
(30,700,l)
);
}
);
width = 556;
}
);
note = seven;
unicode = 55;
userData = {
KernOnName = seven;
};
},
{
glyphname = eight;
kernLeft = KO_eight;
kernRight = KO_eight;
lastChange = "2025-10-03 15:49:50 +0000";
layers = (
{
layerId = m01;
shapes = (
{
closed = 1;
nodes = (
(54,74,o),
(159,-12,o),
(289,-12,cs),
(419,-12,o),
(525,74,o),
(525,190,cs),
(525,283,o),
(469,343,o),
(397,372,c,{
"Letterink-NibData" = {
AngleInDegrees = 360;
};
}),
(458,400,o),
(500,454,o),
(500,531,cs),
(500,638,o),
(407,713,o),
(289,713,cs),
(172,713,o),
(79,638,o),
(79,531,cs),
(79,454,o),
(120,400,o),
(181,372,c,{
"Letterink-NibData" = {
AngleInDegrees = 0;
};
}),
(109,343,o),
(54,283,o),
(54,190,cs)
);
},
{
closed = 1;
nodes = (
(191,577,o),
(232,619,o),
(289,619,cs),
(347,619,o),
(388,577,o),
(388,519,cs),
(388,460,o),
(343,420,o),
(289,420,cs),
(236,420,o),
(191,460,o),
(191,519,cs)
);
},
{
closed = 1;
nodes = (
(170,272,o),
(227,324,o),
(289,324,cs),
(352,324,o),
(409,272,o),
(409,206,cs),
(409,130,o),
(352,88,o),
(289,88,cs),
(227,88,o),
(170,130,o),
(170,206,cs)
);
}
);
width = 579;
}
);
note = eight;
unicode = 56;
},
{
glyphname = nine;
kernLeft = KO_nine;
kernRight = KO_nine;
lastChange = "2025-10-11 16:12:11 +0000";
layers = (
{
layerId = m01;
shapes = (
{
closed = 1;
nodes = (
(282,1,l,{
"Letterink-NibData" = {
AngleInDegrees = 360;
};
}),
(505,299,ls,{
"Letterink-NibData" = {
AngleInDegrees = 360;
};
}),
(539,344,o),
(564,399,o),
(564,464,cs),
(564,619,o),
(451,713,o),
(307,713,cs),
(163,713,o),
(50,619,o),
(50,464,cs),
(50,330,o),
(151,237,o),
(261,237,cs),
(289,237,o),
(312,239,o),
(333,249,c,{
"Letterink-NibData" = {
AngleInDegrees = 0;
};
}),
(132,1,l)
);
},
{
closed = 1;
nodes = (
(448,378,o),
(388,317,o),
(307,317,cs),
(226,317,o),
(166,378,o),
(166,464,cs),
(166,550,o),
(226,609,o),
(307,609,cs),
(388,609,o),
(448,550,o),
(448,464,cs)
);
}
);
width = 614;
}
);
note = nine;
unicode = 57;
userData = {
KernOnName = nine;
};
},
{
glyphname = uniFF10;
lastChange = "2025-10-03 15:49:50 +0000";
layers = (
{
layerId = m01;
shapes = (
{
closed = 1;
nodes = (
(27,134,o),
(138,-11,o),
(300,-11,cs),
(464,-11,o),
(572,134,o),
(572,350,cs),
(572,567,o),
(464,711,o),
(300,711,cs),
(138,711,o),
(27,567,o),
(27,350,cs)
);
},
{
closed = 1;
nodes = (
(144,501,o),
(204,605,o),
(300,605,cs),
(395,605,o),
(456,501,o),
(456,350,cs),
(456,200,o),
(395,95,o),
(300,95,cs),
(204,95,o),
(144,200,o),
(144,350,cs)
);
}
);
width = 600;
}
);
note = uniFF10;
unicode = 65296;
userData = {
KernOnSpecialSpacing = {
L = NoKerning;
R = NoKerning;
};
};
},
{
glyphname = uniFF11;
lastChange = "2025-10-03 15:49:50 +0000";
layers = (
{
layerId = m01;
shapes = (
{
closed = 1;
nodes = (
(113,536,l,{
"Letterink-NibData" = {
AngleInDegrees = 0;
};
}),
(275,581,l),
(275,0,l),
(391,0,l),
(391,711,l,{
"Letterink-NibData" = {
AngleInDegrees = 0;
};
}),
(113,648,l)
);
}
);
width = 600;
}
);
note = uniFF11;
unicode = 65297;
userData = {
KernOnSpecialSpacing = {
L = NoKerning;
R = NoKerning;
};
};
},
{
glyphname = uniFF12;
lastChange = "2025-10-03 15:49:50 +0000";
layers = (
{
layerId = m01;
shapes = (
{
closed = 1;
nodes = (
(21,0,l),
(555,0,l),
(555,110,l),
(251,110,l,{
"Letterink-NibData" = {
AngleInDegrees = 0;
};
}),
(450,305,ls,{
"Letterink-NibData" = {
AngleInDegrees = 360;
};
}),
(507,359,o),
(546,421,o),
(546,495,cs),
(546,595,o),
(474,712,o),
(312,712,cs),
(152,712,o),
(58,602,o),
(58,453,c),
(175,453,l),
(175,546,o),
(230,606,o),
(310,606,cs),
(387,606,o),
(424,550,o),
(424,496,cs),
(424,440,o),
(394,395,o),
(344,341,cs,{
"Letterink-NibData" = {
AngleInDegrees = 359.99999;
};
})
);
}
);
width = 600;
}
);
note = uniFF12;
unicode = 65298;
userData = {
KernOnSpecialSpacing = {
L = NoKerning;
R = NoKerning;
};
};
},
{
glyphname = uniFF13;
lastChange = "2025-10-03 15:49:50 +0000";
layers = (
{
layerId = m01;
shapes = (
{
closed = 1;
nodes = (
(450,-12,o),
(547,67,o),
(547,188,cs),
(547,283,o),
(491,340,o),
(406,366,c,{
"Letterink-NibData" = {
AngleInDegrees = 360;
};
}),
(480,396,o),
(527,451,o),
(527,522,cs),
(527,625,o),
(447,711,o),
(312,711,cs),
(183,711,o),
(95,629,o),
(95,514,c),
(206,514,l),
(206,570,o),
(252,611,o),
(312,611,cs),
(376,611,o),
(408,572,o),
(408,516,cs),
(408,456,o),
(356,406,o),
(271,406,c),
(271,318,l),
(366,318,o),
(428,275,o),
(428,200,cs),
(428,130,o),
(380,90,o),
(309,90,cs),
(238,90,o),
(183,133,o),
(183,200,c),
(65,200,l),
(65,85,o),
(158,-12,o),
(306,-12,cs)
);
}
);
width = 600;
}
);
note = uniFF13;
unicode = 65299;
userData = {
KernOnSpecialSpacing = {
L = NoKerning;
R = NoKerning;
};
};
},
{
glyphname = uniFF14;
lastChange = "2025-10-03 15:49:50 +0000";
layers = (
{
layerId = m01;
shapes = (
{
closed = 1;
nodes = (
(575,134,l),
(575,236,l),
(470,236,l),
(470,700,l),
(399,700,l,{
"Letterink-NibData" = {
AngleInDegrees = 359.99999;
};
}),
(16,134,l),
(349,134,l),
(349,0,l),
(470,0,l),
(470,134,l)
);
},
{
closed = 1;
nodes = (
(356,489,l),
(356,228,l),
(182,228,l,{
"Letterink-NibData" = {
AngleInDegrees = 0;
};
})
);
}
);
width = 600;
}
);
note = uniFF14;
unicode = 65300;
userData = {
KernOnSpecialSpacing = {
L = NoKerning;
R = NoKerning;
};
};
},
{
glyphname = uniFF15;
lastChange = "2025-10-03 15:49:50 +0000";
layers = (
{
layerId = m01;
shapes = (
{
closed = 1;
nodes = (
(556,369,o),
(461,461,o),
(345,461,cs),
(305,461,o),
(267,453,o),
(232,435,c,{
"Letterink-NibData" = {
AngleInDegrees = 0;
};
}),
(278,596,l),
(549,596,l),
(549,700,l),
(189,700,l,{
"Letterink-NibData" = {
AngleInDegrees = 360;
};
}),
(94,315,l,{
"Letterink-NibData" = {
AngleInDegrees = 360;
};
}),
(165,359,o),
(219,370,o),
(281,370,cs),
(362,370,o),
(429,320,o),
(429,235,cs),
(429,150,o),
(374,99,o),
(281,99,cs),
(214,99,o),
(145,144,o),
(104,199,c,{
"Letterink-NibData" = {
AngleInDegrees = 360;
};
}),
(34,113,l,{
"Letterink-NibData" = {
AngleInDegrees = 359.99999;
};
}),
(88,46,o),
(167,-11,o),
(296,-11,cs),
(431,-11,o),
(556,66,o),
(556,228,cs)
);
}
);
width = 600;
}
);
note = uniFF15;
unicode = 65301;
userData = {
KernOnSpecialSpacing = {
L = NoKerning;
R = NoKerning;
};
};
},
{
glyphname = uniFF16;
lastChange = "2025-10-03 15:49:50 +0000";
layers = (
{
layerId = m01;
shapes = (
{
closed = 1;
nodes = (
(324,699,l,{
"Letterink-NibData" = {
AngleInDegrees = 0;
};
}),
(102,401,ls,{
"Letterink-NibData" = {
AngleInDegrees = 0;
};
}),
(68,357,o),
(43,301,o),
(43,236,cs),
(43,81,o),
(156,-12,o),
(300,-12,cs),
(444,-12,o),
(557,81,o),
(557,236,cs),
(557,370,o),
(456,464,o),
(346,464,cs),
(318,464,o),
(294,461,o),
(274,451,c,{
"Letterink-NibData" = {
AngleInDegrees = 360;
};
}),
(474,699,l)
);
},
{
closed = 1;
nodes = (
(159,322,o),
(219,383,o),
(300,383,cs),
(381,383,o),
(441,322,o),
(441,236,cs),
(441,150,o),
(381,92,o),
(300,92,cs),
(219,92,o),
(159,150,o),
(159,236,cs)
);
}
);
width = 600;
}
);
note = uniFF16;
unicode = 65302;
userData = {
KernOnSpecialSpacing = {
L = NoKerning;
R = NoKerning;
};
};
},
{
glyphname = uniFF17;
lastChange = "2025-10-03 15:49:50 +0000";
layers = (
{
layerId = m01;
shapes = (
{
closed = 1;
nodes = (
(50,589,l),
(397,589,l,{
"Letterink-NibData" = {
AngleInDegrees = 0;
};
}),
(110,0,l),
(236,0,l,{
"Letterink-NibData" = {
AngleInDegrees = 0;
};
}),
(573,700,l),
(50,700,l)
);
}
);
width = 600;
}
);
note = uniFF17;
unicode = 65303;
userData = {
KernOnSpecialSpacing = {
L = NoKerning;
R = NoKerning;
};
};
},
{
glyphname = uniFF18;
lastChange = "2025-10-03 15:49:50 +0000";
layers = (
{
layerId = m01;
shapes = (
{
closed = 1;
nodes = (
(70,74,o),
(175,-12,o),
(305,-12,cs),
(435,-12,o),
(541,74,o),
(541,190,cs),
(541,283,o),
(485,343,o),
(413,372,c,{
"Letterink-NibData" = {
AngleInDegrees = 360;
};
}),
(474,400,o),
(516,454,o),
(516,531,cs),
(516,638,o),
(423,713,o),
(305,713,cs),
(188,713,o),
(95,638,o),
(95,531,cs),
(95,454,o),
(136,400,o),
(197,372,c,{
"Letterink-NibData" = {
AngleInDegrees = 0;
};
}),
(125,343,o),
(69,283,o),
(69,190,cs,{
"Letterink-NibData" = {
AngleInDegrees = 0;
};
})
);
},
{
closed = 1;
nodes = (
(207,577,o),
(248,619,o),
(305,619,cs),
(363,619,o),
(403,577,o),
(403,519,cs),
(403,460,o),
(359,420,o),
(305,420,cs),
(251,420,o),
(207,460,o),
(207,519,cs)
);
},
{
closed = 1;
nodes = (
(186,272,o),
(243,324,o),
(305,324,cs),
(368,324,o),
(425,272,o),
(425,206,cs),
(425,130,o),
(368,88,o),
(305,88,cs),
(243,88,o),
(186,130,o),
(186,206,cs)
);
}
);
width = 600;
}
);
note = uniFF18;
unicode = 65304;
userData = {
KernOnSpecialSpacing = {
L = NoKerning;
R = NoKerning;
};
};
},
{
glyphname = uniFF19;
lastChange = "2025-10-03 15:49:50 +0000";
layers = (
{
layerId = m01;
shapes = (
{
closed = 1;
nodes = (
(275,1,l,{
"Letterink-NibData" = {
AngleInDegrees = 360;
};
}),
(498,299,ls,{
"Letterink-NibData" = {
AngleInDegrees = 360;
};
}),
(532,344,o),
(557,399,o),
(557,464,cs),
(557,619,o),
(444,713,o),
(300,713,cs),
(156,713,o),
(43,619,o),
(43,464,cs),
(43,330,o),
(144,237,o),
(254,237,cs),
(282,237,o),
(305,239,o),
(326,249,c,{
"Letterink-NibData" = {
AngleInDegrees = 0;
};
}),
(125,1,l)
);
},
{
closed = 1;
nodes = (
(441,378,o),
(381,317,o),
(300,317,cs),
(219,317,o),
(159,378,o),
(159,464,cs),
(159,550,o),
(219,609,o),
(300,609,cs),
(381,609,o),
(441,550,o),
(441,464,cs)
);
}
);
width = 600;
}
);
note = uniFF19;
unicode = 65305;
userData = {
KernOnSpecialSpacing = {
L = NoKerning;
R = NoKerning;
};
};
},
{
glyphname = uni00B9;
kernLeft = KO_uni00B9;
kernRight = KO_uni00B9;
lastChange = "2025-10-03 15:49:50 +0000";
layers = (
{
layerId = m01;
shapes = (
{
closed = 1;
nodes = (
(145,596,l,{
"Letterink-NibData" = {
AngleInDegrees = 360;
};
}),
(242,623,l),
(242,274,l),
(312,274,l),
(312,701,l,{
"Letterink-NibData" = {
AngleInDegrees = 0;
};
}),
(145,663,l)
);
}
);
width = 475;
}
);
note = uni00B9;
unicode = 185;
userData = {
KernOnSpecialSpacing = {
L = superiors;
R = superiors;
};
};
},
{
glyphname = uni00B2;
kernLeft = KO_uni00B2;
kernRight = KO_uni00B2;
lastChange = "2025-10-03 15:49:50 +0000";
layers = (
{
layerId = m01;
shapes = (
{
closed = 1;
nodes = (
(25,282,l),
(345,282,l),
(345,348,l),
(163,348,l,{
"Letterink-NibData" = {
AngleInDegrees = 360;
};
}),
(282,465,ls,{
"Letterink-NibData" = {
AngleInDegrees = 360;
};
}),
(316,497,o),
(340,536,o),
(340,579,cs),
(340,639,o),
(297,710,o),
(200,710,cs),
(104,710,o),
(48,643,o),
(48,554,c),
(118,554,l),
(118,610,o),
(151,646,o),
(199,646,cs),
(245,646,o),
(267,613,o),
(267,580,cs),
(267,546,o),
(249,519,o),
(219,487,cs,{
"Letterink-NibData" = {
AngleInDegrees = 0;
};
})
);
}
);
width = 371;
}
);
note = uni00B2;
unicode = 178;
userData = {
KernOnSpecialSpacing = {
L = superiors;
R = superiors;
};
};
},
{
glyphname = uni00B3;
kernLeft = KO_uni00B3;
kernRight = KO_uni00B3;
lastChange = "2025-10-03 15:49:50 +0000";
layers = (
{
layerId = m01;
shapes = (
{
closed = 1;
nodes = (
(254,273,o),
(312,321,o),
(312,393,cs),
(312,450,o),
(278,484,o),
(227,500,c,{
"Letterink-NibData" = {
AngleInDegrees = 0;
};
}),
(272,518,o),
(300,551,o),
(300,593,cs),
(300,654,o),
(252,707,o),
(171,707,cs),
(94,707,o),
(40,657,o),
(40,589,c),
(107,589,l),
(107,623,o),
(135,647,o),
(171,647,cs),
(209,647,o),
(228,624,o),
(228,590,cs),
(228,554,o),
(197,524,o),
(146,524,c),
(146,471,l),
(203,471,o),
(240,445,o),
(240,400,cs),
(240,358,o),
(212,334,o),
(169,334,cs),
(126,334,o),
(94,359,o),
(94,400,c),
(22,400,l),
(22,331,o),
(78,273,o),
(167,273,cs)
);
}
);
width = 333;
}
);
note = uni00B3;
unicode = 179;
userData = {
KernOnSpecialSpacing = {
L = superiors;
R = superiors;
};
};
},
{
glyphname = onequarter;
lastChange = "2025-10-03 15:49:50 +0000";
layers = (
{
layerId = m01;
shapes = (
{
closed = 1;
nodes = (
(28,596,l,{
"Letterink-NibData" = {
AngleInDegrees = 360;
};
}),
(125,623,l),
(125,274,l),
(195,274,l),
(195,701,l,{
"Letterink-NibData" = {
AngleInDegrees = 0;
};
}),
(28,663,l)
);
},
{
closed = 1;
nodes = (
(623,700,l,{
"Letterink-NibData" = {
AngleInDegrees = 359.99999;
};
}),
(103,0,l),
(181,0,l,{
"Letterink-NibData" = {
AngleInDegrees = 360;
};
}),
(701,700,l)
);
},
{
closed = 1;
nodes = (
(748,80,l),
(748,142,l),
(682,142,l),
(682,420,l),
(639,420,l,{
"Letterink-NibData" = {
AngleInDegrees = 0;
};
}),
(402,80,l),
(609,80,l),
(609,0,l),
(682,0,l),
(682,80,l)
);
},
{
closed = 1;
nodes = (
(614,294,l),
(614,137,l),
(505,137,l,{
"Letterink-NibData" = {
AngleInDegrees = 0;
};
})
);
}
);
width = 782;
}
);
note = onequarter;
unicode = 188;
userData = {
KernOnSpecialSpacing = {
L = NoKerning;
R = NoKerning;
};
};
},
{
glyphname = onehalf;
lastChange = "2025-10-03 15:49:50 +0000";
layers = (
{
layerId = m01;
shapes = (
{
closed = 1;
nodes = (
(28,596,l,{
"Letterink-NibData" = {
AngleInDegrees = 360;
};
}),
(125,623,l),
(125,274,l),
(195,274,l),
(195,701,l,{
"Letterink-NibData" = {
AngleInDegrees = 0;
};
}),
(28,663,l)
);
},
{
closed = 1;
nodes = (
(623,700,l,{
"Letterink-NibData" = {
AngleInDegrees = 359.99999;
};
}),
(103,0,l),
(181,0,l,{
"Letterink-NibData" = {
AngleInDegrees = 360;
};
}),
(701,700,l)
);
},
{
closed = 1;
nodes = (
(498,2,l),
(818,2,l),
(818,68,l),
(636,68,l,{
"Letterink-NibData" = {
AngleInDegrees = 360;
};
}),
(755,185,ls,{
"Letterink-NibData" = {
AngleInDegrees = 360;
};
}),
(789,217,o),
(813,256,o),
(813,299,cs),
(813,359,o),
(770,430,o),
(673,430,cs),
(577,430,o),
(521,363,o),
(521,274,c),
(591,274,l),
(591,330,o),
(624,366,o),
(672,366,cs),
(718,366,o),
(740,333,o),
(740,300,cs),
(740,266,o),
(722,239,o),
(692,207,cs,{
"Letterink-NibData" = {
AngleInDegrees = 0;
};
})
);
}
);
width = 849;
}
);
note = onehalf;
unicode = 189;
userData = {
KernOnSpecialSpacing = {
L = NoKerning;
R = NoKerning;
};
};
},
{
glyphname = threequarters;
lastChange = "2025-10-03 15:49:50 +0000";
layers = (
{
layerId = m01;
shapes = (
{
closed = 1;
nodes = (
(260,273,o),
(318,321,o),
(318,393,cs),
(318,450,o),
(284,484,o),
(233,500,c,{
"Letterink-NibData" = {
AngleInDegrees = 0;
};
}),
(278,518,o),
(306,551,o),
(306,593,cs),
(306,654,o),
(258,707,o),
(177,707,cs),
(100,707,o),
(46,657,o),
(46,589,c),
(113,589,l),
(113,623,o),
(141,647,o),
(177,647,cs),
(215,647,o),
(235,624,o),
(235,590,cs),
(235,554,o),
(204,524,o),
(153,524,c),
(153,471,l),
(210,471,o),
(247,445,o),
(247,400,cs),
(247,358,o),
(218,334,o),
(175,334,cs),
(132,334,o),
(100,359,o),
(100,400,c),
(28,400,l),
(28,331,o),
(84,273,o),
(174,273,cs)
);
},
{
closed = 1;
nodes = (
(689,700,l,{
"Letterink-NibData" = {
AngleInDegrees = 359.99999;
};
}),
(169,0,l),
(246,0,l,{
"Letterink-NibData" = {
AngleInDegrees = 360;
};
}),
(766,700,l)
);
},
{
closed = 1;
nodes = (
(811,80,l),
(811,142,l),
(745,142,l),
(745,420,l),
(702,420,l,{
"Letterink-NibData" = {
AngleInDegrees = 0;
};
}),
(465,80,l),
(672,80,l),
(672,0,l),
(745,0,l),
(745,80,l)
);
},
{
closed = 1;
nodes = (
(677,294,l),
(677,137,l),
(569,137,l,{
"Letterink-NibData" = {
AngleInDegrees = 0;
};
})
);
}
);
width = 844;
}
);
note = threequarters;
unicode = 190;
userData = {
KernOnSpecialSpacing = {
L = NoKerning;
R = NoKerning;
};
};
},
{
glyphname = uni2070;
kernRight = KO_uni2070;
lastChange = "2025-10-03 15:49:50 +0000";
layers = (
{
layerId = m01;
shapes = (
{
closed = 1;
nodes = (
(26,361,o),
(93,273,o),
(190,273,cs),
(288,273,o),
(353,361,o),
(353,490,cs),
(353,620,o),
(288,707,o),
(190,707,cs),
(93,707,o),
(26,620,o),
(26,490,cs)
);
},
{
closed = 1;
nodes = (
(96,581,o),
(132,643,o),
(190,643,cs),
(247,643,o),
(284,581,o),
(284,490,cs),
(284,400,o),
(247,337,o),
(190,337,cs),
(132,337,o),
(96,400,o),
(96,490,cs)
);
}
);
width = 380;
}
);
note = uni2070;
unicode = 8304;
userData = {
KernOnSpecialSpacing = {
L = superiors;
R = superiors;
};
};
},
{
glyphname = uni2074;
kernLeft = KO_uni2074;
kernRight = KO_uni2074;
lastChange = "2025-10-03 15:49:50 +0000";
layers = (
{
layerId = m01;
shapes = (
{
closed = 1;
nodes = (
(371,360,l),
(371,422,l),
(305,422,l),
(305,700,l),
(262,700,l,{
"Letterink-NibData" = {
AngleInDegrees = 360;
};
}),
(24,360,l),
(232,360,l),
(232,280,l),
(305,280,l),
(305,360,l)
);
},
{
closed = 1;
nodes = (
(236,574,l),
(236,417,l),
(128,417,l,{
"Letterink-NibData" = {
AngleInDegrees = 0;
};
})
);
}
);
width = 402;
}
);
note = uni2074;
unicode = 8308;
userData = {
KernOnSpecialSpacing = {
L = superiors;
R = superiors;
};
};
},
{
glyphname = uni2075;
kernLeft = KO_uni2075;
kernRight = KO_uni2078;
lastChange = "2025-10-03 15:49:50 +0000";
layers = (
{
layerId = m01;
shapes = (
{
closed = 1;
nodes = (
(340,499,o),
(284,555,o),
(214,555,cs),
(190,555,o),
(167,550,o),
(146,539,c,{
"Letterink-NibData" = {
AngleInDegrees = 0;
};
}),
(173,636,l),
(336,636,l),
(336,698,l),
(120,698,l,{
"Letterink-NibData" = {
AngleInDegrees = 0;
};
}),
(64,467,l,{
"Letterink-NibData" = {
AngleInDegrees = 0;
};
}),
(107,493,o),
(138,500,o),
(175,500,cs),
(224,500,o),
(264,470,o),
(264,419,cs),
(264,368,o),
(231,337,o),
(175,337,cs),
(135,337,o),
(94,365,o),
(69,398,c,{
"Letterink-NibData" = {
AngleInDegrees = 0;
};
}),
(28,346,l,{
"Letterink-NibData" = {
AngleInDegrees = 0;
};
}),
(60,305,o),
(107,271,o),
(184,271,cs),
(265,271,o),
(340,318,o),
(340,415,cs)
);
}
);
width = 369;
}
);
note = uni2075;
unicode = 8309;
userData = {
KernOnSpecialSpacing = {
L = superiors;
R = superiors;
};
};
},
{
glyphname = uni2076;
kernLeft = KO_uni2076;
kernRight = KO_uni2076;
lastChange = "2025-10-03 15:49:50 +0000";
layers = (
{
layerId = m01;
shapes = (
{
closed = 1;
nodes = (
(199,697,l,{
"Letterink-NibData" = {
AngleInDegrees = 360;
};
}),
(66,519,ls,{
"Letterink-NibData" = {
AngleInDegrees = 360;
};
}),
(46,492,o),
(31,458,o),
(31,420,cs),
(31,327,o),
(99,271,o),
(185,271,cs),
(271,271,o),
(339,327,o),
(339,420,cs),
(339,500,o),
(278,556,o),
(213,556,cs),
(195,556,o),
(181,554,o),
(169,549,c,{
"Letterink-NibData" = {
AngleInDegrees = 360;
};
}),
(290,697,l)
);
},
{
closed = 1;
nodes = (
(100,472,o),
(136,508,o),
(185,508,cs),
(233,508,o),
(269,472,o),
(269,420,cs),
(269,368,o),
(233,333,o),
(185,333,cs),
(136,333,o),
(100,368,o),
(100,420,cs)
);
}
);
width = 361;
}
);
note = uni2076;
unicode = 8310;
userData = {
KernOnSpecialSpacing = {
L = superiors;
R = superiors;
};
};
},
{
glyphname = uni2077;
kernLeft = KO_uni2077;
kernRight = KO_uni2077;
lastChange = "2025-10-03 15:49:50 +0000";
layers = (
{
layerId = m01;
shapes = (
{
closed = 1;
nodes = (
(27,633,l),
(236,633,l,{
"Letterink-NibData" = {
AngleInDegrees = 0;
};
}),
(64,280,l),
(139,280,l,{
"Letterink-NibData" = {
AngleInDegrees = 0;
};
}),
(341,700,l),
(27,700,l)
);
}
);
width = 364;
}
);
note = uni2077;
unicode = 8311;
userData = {
KernOnSpecialSpacing = {
L = superiors;
R = superiors;
};
};
},
{
glyphname = uni2078;
kernLeft = KO_uni2078;
kernRight = KO_uni2078;
lastChange = "2025-10-03 15:49:50 +0000";
layers = (
{
layerId = m01;
shapes = (
{
closed = 1;
nodes = (
(27,325,o),
(91,273,o),
(169,273,cs),
(247,273,o),
(310,325,o),
(310,394,cs),
(310,450,o),
(276,486,o),
(233,503,c,{
"Letterink-NibData" = {
AngleInDegrees = 360;
};
}),
(270,520,o),
(295,553,o),
(295,599,cs),
(295,663,o),
(239,708,o),
(169,708,cs),
(98,708,o),
(42,663,o),
(42,599,cs),
(42,553,o),
(67,520,o),
(104,503,c,{
"Letterink-NibData" = {
AngleInDegrees = 0;
};
}),
(61,486,o),
(27,450,o),
(27,394,cs)
);
},
{
closed = 1;
nodes = (
(110,627,o),
(134,651,o),
(169,651,cs),
(203,651,o),
(227,627,o),
(227,592,cs),
(227,556,o),
(201,532,o),
(169,532,cs),
(136,532,o),
(110,556,o),
(110,592,cs)
);
},
{
closed = 1;
nodes = (
(97,444,o),
(131,474,o),
(169,474,cs),
(206,474,o),
(240,444,o),
(240,404,cs),
(240,358,o),
(206,333,o),
(169,333,cs),
(131,333,o),
(97,358,o),
(97,404,cs)
);
}
);
width = 338;
}
);
note = uni2078;
unicode = 8312;
userData = {
KernOnSpecialSpacing = {
L = superiors;
R = superiors;
};
};
},
{
glyphname = uni2079;
kernLeft = KO_uni2079;
kernRight = KO_uni2079;
lastChange = "2025-10-03 15:49:50 +0000";
layers = (
{
layerId = m01;
shapes = (
{
closed = 1;
nodes = (
(174,283,l,{
"Letterink-NibData" = {
AngleInDegrees = 360;
};
}),
(307,461,ls,{
"Letterink-NibData" = {
AngleInDegrees = 0;
};
}),
(328,488,o),
(343,522,o),
(343,560,cs),
(343,653,o),
(275,710,o),
(189,710,cs),
(103,710,o),
(35,653,o),
(35,560,cs),
(35,480,o),
(95,424,o),
(161,424,cs),
(178,424,o),
(192,426,o),
(204,432,c,{
"Letterink-NibData" = {
AngleInDegrees = 360;
};
}),
(84,283,l)
);
},
{
closed = 1;
nodes = (
(273,508,o),
(237,472,o),
(189,472,cs),
(140,472,o),
(104,508,o),
(104,560,cs),
(104,612,o),
(140,647,o),
(189,647,cs),
(237,647,o),
(273,612,o),
(273,560,cs)
);
}
);
width = 360;
}
);
note = uni2079;
unicode = 8313;
userData = {
KernOnSpecialSpacing = {
L = superiors;
R = superiors;
};
};
},
{
glyphname = uni2080;
lastChange = "2025-10-03 15:49:50 +0000";
layers = (
{
layerId = m01;
shapes = (
{
closed = 1;
nodes = (
(26,81,o),
(93,-7,o),
(190,-7,cs),
(288,-7,o),
(353,81,o),
(353,210,cs),
(353,340,o),
(288,427,o),
(190,427,cs),
(93,427,o),
(26,340,o),
(26,210,cs)
);
},
{
closed = 1;
nodes = (
(96,301,o),
(132,363,o),
(190,363,cs),
(247,363,o),
(284,301,o),
(284,210,cs),
(284,120,o),
(247,57,o),
(190,57,cs),
(132,57,o),
(96,120,o),
(96,210,cs)
);
}
);
width = 380;
}
);
note = uni2080;
unicode = 8320;
userData = {
KernOnSpecialSpacing = {
L = superiors;
R = superiors;
};
};
},
{
glyphname = uni2081;
lastChange = "2025-10-03 15:49:50 +0000";
layers = (
{
layerId = m01;
shapes = (
{
closed = 1;
nodes = (
(90,323,l,{
"Letterink-NibData" = {
AngleInDegrees = 360;
};
}),
(188,350,l),
(188,1,l),
(257,1,l),
(257,428,l,{
"Letterink-NibData" = {
AngleInDegrees = 0;
};
}),
(90,390,l)
);
}
);
width = 333;
}
);
note = uni2081;
unicode = 8321;
userData = {
KernOnSpecialSpacing = {
L = superiors;
R = superiors;
};
};
},
{
glyphname = uni2082;
lastChange = "2025-10-03 15:49:50 +0000";
layers = (
{
layerId = m01;
shapes = (
{
closed = 1;
nodes = (
(26,2,l),
(346,2,l),
(346,68,l),
(165,68,l,{
"Letterink-NibData" = {
AngleInDegrees = 360;
};
}),
(283,185,ls,{
"Letterink-NibData" = {
AngleInDegrees = 360;
};
}),
(318,217,o),
(341,256,o),
(341,299,cs),
(341,359,o),
(298,430,o),
(201,430,cs),
(105,430,o),
(49,363,o),
(49,274,c),
(119,274,l),
(119,330,o),
(152,366,o),
(200,366,cs),
(246,366,o),
(268,333,o),
(268,300,cs),
(268,266,o),
(250,239,o),
(220,207,cs,{
"Letterink-NibData" = {
AngleInDegrees = 0;
};
})
);
}
);
width = 372;
}
);
note = uni2082;
unicode = 8322;
userData = {
KernOnSpecialSpacing = {
L = superiors;
R = superiors;
};
};
},
{
glyphname = uni2083;
lastChange = "2025-10-03 15:49:50 +0000";
layers = (
{
layerId = m01;
shapes = (
{
closed = 1;
nodes = (
(255,-7,o),
(314,41,o),
(314,113,cs),
(314,170,o),
(280,204,o),
(229,220,c,{
"Letterink-NibData" = {
AngleInDegrees = 0;
};
}),
(273,238,o),
(302,271,o),
(302,313,cs),
(302,374,o),
(254,427,o),
(173,427,cs),
(96,427,o),
(42,377,o),
(42,309,c),
(109,309,l),
(109,343,o),
(137,367,o),
(173,367,cs),
(211,367,o),
(230,344,o),
(230,310,cs),
(230,274,o),
(199,244,o),
(148,244,c),
(148,191,l),
(205,191,o),
(242,165,o),
(242,120,cs),
(242,78,o),
(213,54,o),
(171,54,cs),
(128,54,o),
(95,79,o),
(95,120,c),
(24,120,l),
(24,51,o),
(80,-7,o),
(169,-7,cs)
);
}
);
width = 336;
}
);
note = uni2083;
unicode = 8323;
userData = {
KernOnSpecialSpacing = {
L = superiors;
R = superiors;
};
};
},
{
glyphname = uni2084;
lastChange = "2025-10-03 15:49:50 +0000";
layers = (
{
layerId = m01;
shapes = (
{
closed = 1;
nodes = (
(370,80,l),
(370,142,l),
(304,142,l),
(304,420,l),
(261,420,l,{
"Letterink-NibData" = {
AngleInDegrees = 0;
};
}),
(24,80,l),
(231,80,l),
(231,0,l),
(304,0,l),
(304,80,l)
);
},
{
closed = 1;
nodes = (
(236,294,l),
(236,137,l),
(128,137,l,{
"Letterink-NibData" = {
AngleInDegrees = 0;
};
})
);
}
);
width = 404;
}
);
note = uni2084;
unicode = 8324;
userData = {
KernOnSpecialSpacing = {
L = superiors;
R = superiors;
};
};
},
{
glyphname = uni2085;
lastChange = "2025-10-03 15:49:50 +0000";
layers = (
{
layerId = m01;
shapes = (
{
closed = 1;
nodes = (
(341,219,o),
(285,275,o),
(215,275,cs),
(192,275,o),
(169,270,o),
(148,259,c,{
"Letterink-NibData" = {
AngleInDegrees = 0;
};
}),
(175,356,l),
(337,356,l),
(337,418,l),
(121,418,l,{
"Letterink-NibData" = {
AngleInDegrees = 0;
};
}),
(65,187,l,{
"Letterink-NibData" = {
AngleInDegrees = 0;
};
}),
(108,213,o),
(139,220,o),
(176,220,cs),
(225,220,o),
(265,190,o),
(265,139,cs),
(265,88,o),
(233,57,o),
(176,57,cs),
(136,57,o),
(95,85,o),
(70,118,c,{
"Letterink-NibData" = {
AngleInDegrees = 0;
};
}),
(29,66,l,{
"Letterink-NibData" = {
AngleInDegrees = 0;
};
}),
(61,25,o),
(108,-9,o),
(185,-9,cs),
(266,-9,o),
(341,38,o),
(341,135,cs)
);
}
);
width = 372;
}
);
note = uni2085;
unicode = 8325;
userData = {
KernOnSpecialSpacing = {
L = superiors;
R = superiors;
};
};
},
{
glyphname = uni2086;
lastChange = "2025-10-03 15:49:50 +0000";
layers = (
{
layerId = m01;
shapes = (
{
closed = 1;
nodes = (
(200,417,l,{
"Letterink-NibData" = {
AngleInDegrees = 360;
};
}),
(67,239,ls,{
"Letterink-NibData" = {
AngleInDegrees = 360;
};
}),
(47,212,o),
(31,178,o),
(31,140,cs),
(31,47,o),
(99,-9,o),
(186,-9,cs),
(272,-9,o),
(340,47,o),
(340,140,cs),
(340,220,o),
(279,276,o),
(213,276,cs),
(196,276,o),
(182,274,o),
(170,269,c,{
"Letterink-NibData" = {
AngleInDegrees = 360;
};
}),
(291,417,l)
);
},
{
closed = 1;
nodes = (
(101,192,o),
(137,228,o),
(186,228,cs),
(234,228,o),
(270,192,o),
(270,140,cs),
(270,88,o),
(234,53,o),
(186,53,cs),
(137,53,o),
(101,88,o),
(101,140,cs)
);
}
);
width = 366;
}
);
note = uni2086;
unicode = 8326;
userData = {
KernOnSpecialSpacing = {
L = superiors;
R = superiors;
};
};
},
{
glyphname = uni2087;
kernRight = KO_exclamdown;
lastChange = "2025-10-03 15:49:50 +0000";
layers = (
{
layerId = m01;
shapes = (
{
closed = 1;
nodes = (
(29,353,l),
(237,353,l,{
"Letterink-NibData" = {
AngleInDegrees = 0;
};
}),
(65,0,l),
(141,0,l,{
"Letterink-NibData" = {
AngleInDegrees = 0;
};
}),
(342,420,l),
(29,420,l)
);
}
);
width = 366;
}
);
note = uni2087;
unicode = 8327;
userData = {
KernOnSpecialSpacing = {
L = superiors;
R = superiors;
};
};
},
{
glyphname = uni2088;
lastChange = "2025-10-03 15:49:50 +0000";
layers = (
{
layerId = m01;
shapes = (
{
closed = 1;
nodes = (
(29,45,o),
(92,-7,o),
(170,-7,cs),
(248,-7,o),
(312,45,o),
(312,114,cs),
(312,170,o),
(278,206,o),
(235,223,c,{
"Letterink-NibData" = {
AngleInDegrees = 360;
};
}),
(272,240,o),
(297,273,o),
(297,319,cs),
(297,383,o),
(241,428,o),
(170,428,cs),
(100,428,o),
(44,383,o),
(44,319,cs),
(44,273,o),
(69,240,o),
(106,223,c,{
"Letterink-NibData" = {
AngleInDegrees = 359.99999;
};
}),
(62,206,o),
(29,170,o),
(29,114,cs)
);
},
{
closed = 1;
nodes = (
(112,347,o),
(136,371,o),
(170,371,cs),
(205,371,o),
(229,347,o),
(229,312,cs),
(229,276,o),
(203,252,o),
(170,252,cs),
(138,252,o),
(112,276,o),
(112,312,cs)
);
},
{
closed = 1;
nodes = (
(99,164,o),
(133,194,o),
(170,194,cs),
(208,194,o),
(242,164,o),
(242,124,cs),
(242,78,o),
(208,53,o),
(170,53,cs),
(133,53,o),
(99,78,o),
(99,124,cs)
);
}
);
width = 341;
}
);
note = uni2088;
unicode = 8328;
userData = {
KernOnSpecialSpacing = {
L = superiors;
R = superiors;
};
};
},
{
glyphname = uni2089;
lastChange = "2025-10-03 15:49:50 +0000";
layers = (
{
layerId = m01;
shapes = (
{
closed = 1;
nodes = (
(165,3,l,{
"Letterink-NibData" = {
AngleInDegrees = 360;
};
}),
(298,181,ls,{
"Letterink-NibData" = {
AngleInDegrees = 0;
};
}),
(318,208,o),
(334,242,o),
(334,280,cs),
(334,373,o),
(266,430,o),
(179,430,cs),
(93,430,o),
(25,373,o),
(25,280,cs),
(25,200,o),
(86,144,o),
(151,144,cs),
(168,144,o),
(182,146,o),
(195,152,c,{
"Letterink-NibData" = {
AngleInDegrees = 359.99999;
};
}),
(74,3,l)
);
},
{
closed = 1;
nodes = (
(264,228,o),
(228,192,o),
(179,192,cs),
(131,192,o),
(95,228,o),
(95,280,cs),
(95,332,o),
(131,367,o),
(179,367,cs),
(228,367,o),
(264,332,o),
(264,280,cs)
);
}
);
width = 367;
}
);
note = uni2089;
unicode = 8329;
userData = {
KernOnSpecialSpacing = {
L = superiors;
R = superiors;
};
};
},
{
glyphname = uni2150;
lastChange = "2025-10-03 15:49:50 +0000";
layers = (
{
layerId = m01;
shapes = (
{
closed = 1;
nodes = (
(28,596,l,{
"Letterink-NibData" = {
AngleInDegrees = 360;
};
}),
(125,623,l),
(125,274,l),
(195,274,l),
(195,701,l,{
"Letterink-NibData" = {
AngleInDegrees = 0;
};
}),
(28,663,l)
);
},
{
closed = 1;
nodes = (
(583,700,l,{
"Letterink-NibData" = {
AngleInDegrees = 359.99999;
};
}),
(63,0,l),
(151,0,l,{
"Letterink-NibData" = {
AngleInDegrees = 360;
};
}),
(671,700,l)
);
},
{
closed = 1;
nodes = (
(542,353,l),
(750,353,l,{
"Letterink-NibData" = {
AngleInDegrees = 0;
};
}),
(578,0,l),
(654,0,l,{
"Letterink-NibData" = {
AngleInDegrees = 0;
};
}),
(855,420,l),
(542,420,l)
);
}
);
width = 882;
}
);
note = uni2150;
unicode = 8528;
userData = {
KernOnSpecialSpacing = {
L = NoKerning;
R = NoKerning;
};
};
},
{
glyphname = uni2151;
lastChange = "2025-10-03 15:49:50 +0000";
layers = (
{
layerId = m01;
shapes = (
{
closed = 1;
nodes = (
(28,596,l,{
"Letterink-NibData" = {
AngleInDegrees = 360;
};
}),
(125,623,l),
(125,274,l),
(195,274,l),
(195,701,l,{
"Letterink-NibData" = {
AngleInDegrees = 0;
};
}),
(28,663,l)
);
},
{
closed = 1;
nodes = (
(581,700,l,{
"Letterink-NibData" = {
AngleInDegrees = 359.99999;
};
}),
(61,0,l),
(148,0,l,{
"Letterink-NibData" = {
AngleInDegrees = 360;
};
}),
(668,700,l)
);
},
{
closed = 1;
nodes = (
(636,3,l,{
"Letterink-NibData" = {
AngleInDegrees = 0;
};
}),
(768,181,ls,{
"Letterink-NibData" = {
AngleInDegrees = 0;
};
}),
(789,208,o),
(804,242,o),
(804,280,cs),
(804,373,o),
(736,430,o),
(650,430,cs),
(564,430,o),
(496,373,o),
(496,280,cs),
(496,200,o),
(556,144,o),
(622,144,cs),
(639,144,o),
(653,146,o),
(666,152,c,{
"Letterink-NibData" = {
AngleInDegrees = 359.99999;
};
}),
(545,3,l)
);
},
{
closed = 1;
nodes = (
(735,228,o),
(699,192,o),
(650,192,cs),
(602,192,o),
(565,228,o),
(565,280,cs),
(565,332,o),
(602,367,o),
(650,367,cs),
(699,367,o),
(735,332,o),
(735,280,cs)
);
}
);
width = 824;
}
);
note = uni2151;
unicode = 8529;
userData = {
KernOnSpecialSpacing = {
L = NoKerning;
R = NoKerning;
};
};
},
{
glyphname = uni2152;
lastChange = "2025-10-03 15:49:50 +0000";
layers = (
{
layerId = m01;
shapes = (
{
closed = 1;
nodes = (
(28,596,l,{
"Letterink-NibData" = {
AngleInDegrees = 360;
};
}),
(125,623,l),
(125,274,l),
(195,274,l),
(195,701,l,{
"Letterink-NibData" = {
AngleInDegrees = 0;
};
}),
(28,663,l)
);
},
{
closed = 1;
nodes = (
(581,700,l,{
"Letterink-NibData" = {
AngleInDegrees = 359.99999;
};
}),
(61,0,l),
(148,0,l,{
"Letterink-NibData" = {
AngleInDegrees = 360;
};
}),
(668,700,l)
);
},
{
closed = 1;
nodes = (
(513,323,l,{
"Letterink-NibData" = {
AngleInDegrees = 360;
};
}),
(611,350,l),
(611,1,l),
(680,1,l),
(680,428,l,{
"Letterink-NibData" = {
AngleInDegrees = 0;
};
}),
(513,390,l)
);
},
{
closed = 1;
nodes = (
(774,81,o),
(841,-7,o),
(938,-7,cs),
(1036,-7,o),
(1101,81,o),
(1101,210,cs),
(1101,340,o),
(1036,427,o),
(938,427,cs),
(841,427,o),
(774,340,o),
(774,210,cs)
);
},
{
closed = 1;
nodes = (
(844,301,o),
(880,363,o),
(938,363,cs),
(995,363,o),
(1032,301,o),
(1032,210,cs),
(1032,120,o),
(995,57,o),
(938,57,cs),
(880,57,o),
(844,120,o),
(844,210,cs)
);
}
);
width = 1133;
}
);
note = uni2152;
unicode = 8530;
userData = {
KernOnSpecialSpacing = {
L = NoKerning;
R = NoKerning;
};
};
},
{
glyphname = onethird;
lastChange = "2025-10-03 15:49:50 +0000";
layers = (
{
layerId = m01;
shapes = (
{
closed = 1;
nodes = (
(28,596,l,{
"Letterink-NibData" = {
AngleInDegrees = 360;
};
}),
(125,623,l),
(125,274,l),
(195,274,l),
(195,701,l,{
"Letterink-NibData" = {
AngleInDegrees = 0;
};
}),
(28,663,l)
);
},
{
closed = 1;
nodes = (
(580,700,l,{
"Letterink-NibData" = {
AngleInDegrees = 359.99999;
};
}),
(60,0,l),
(148,0,l,{
"Letterink-NibData" = {
AngleInDegrees = 360;
};
}),
(668,700,l)
);
},
{
closed = 1;
nodes = (
(718,-7,o),
(777,41,o),
(777,113,cs),
(777,170,o),
(743,204,o),
(692,220,c,{
"Letterink-NibData" = {
AngleInDegrees = 0;
};
}),
(736,238,o),
(765,271,o),
(764,313,cs,{
"Letterink-NibData" = {
AngleInDegrees = 0;
};
}),
(765,374,o),
(717,427,o),
(636,427,cs),
(559,427,o),
(505,377,o),
(505,309,c),
(572,309,l),
(572,343,o),
(600,367,o),
(636,367,cs),
(674,367,o),
(693,344,o),
(693,310,cs),
(693,274,o),
(662,244,o),
(611,244,c),
(611,191,l),
(668,191,o),
(705,165,o),
(705,120,cs),
(705,78,o),
(676,54,o),
(634,54,cs),
(591,54,o),
(558,79,o),
(558,120,c),
(487,120,l),
(487,51,o),
(543,-7,o),
(632,-7,cs)
);
}
);
width = 803;
}
);
note = onethird;
unicode = 8531;
userData = {
KernOnSpecialSpacing = {
L = NoKerning;
R = NoKerning;
};
};
},
{
glyphname = twothirds;
lastChange = "2025-10-03 15:49:50 +0000";
layers = (
{
layerId = m01;
shapes = (
{
closed = 1;
nodes = (
(30,282,l),
(350,282,l),
(350,348,l),
(168,348,l,{
"Letterink-NibData" = {
AngleInDegrees = 360;
};
}),
(287,465,ls,{
"Letterink-NibData" = {
AngleInDegrees = 360;
};
}),
(321,497,o),
(345,536,o),
(345,579,cs),
(345,639,o),
(302,710,o),
(205,710,cs),
(109,710,o),
(53,643,o),
(53,554,c),
(123,554,l),
(123,610,o),
(156,646,o),
(204,646,cs),
(250,646,o),
(272,613,o),
(272,580,cs),
(272,546,o),
(254,519,o),
(224,487,cs,{
"Letterink-NibData" = {
AngleInDegrees = 0;
};
})
);
},
{
closed = 1;
nodes = (
(715,700,l,{
"Letterink-NibData" = {
AngleInDegrees = 359.99999;
};
}),
(195,0,l),
(283,0,l,{
"Letterink-NibData" = {
AngleInDegrees = 360;
};
}),
(803,700,l)
);
},
{
closed = 1;
nodes = (
(848,-7,o),
(906,41,o),
(906,113,cs),
(906,170,o),
(872,204,o),
(821,220,c,{
"Letterink-NibData" = {
AngleInDegrees = 0;
};
}),
(866,238,o),
(894,271,o),
(894,313,cs),
(894,374,o),
(846,427,o),
(765,427,cs),
(688,427,o),
(634,377,o),
(634,309,c),
(701,309,l),
(701,343,o),
(729,367,o),
(765,367,cs),
(803,367,o),
(823,344,o),
(823,310,cs),
(823,274,o),
(792,244,o),
(741,244,c),
(741,191,l),
(798,191,o),
(835,165,o),
(835,120,cs),
(835,78,o),
(806,54,o),
(763,54,cs),
(720,54,o),
(688,79,o),
(688,120,c),
(616,120,l),
(616,51,o),
(672,-7,o),
(762,-7,cs)
);
}
);
width = 932;
}
);
note = twothirds;
unicode = 8532;
userData = {
KernOnSpecialSpacing = {
L = NoKerning;
R = NoKerning;
};
};
},
{
glyphname = uni2155;
lastChange = "2025-10-03 15:49:50 +0000";
layers = (
{
layerId = m01;
shapes = (
{
closed = 1;
nodes = (
(28,596,l,{
"Letterink-NibData" = {
AngleInDegrees = 360;
};
}),
(125,623,l),
(125,274,l),
(195,274,l),
(195,701,l,{
"Letterink-NibData" = {
AngleInDegrees = 0;
};
}),
(28,663,l)
);
},
{
closed = 1;
nodes = (
(581,700,l,{
"Letterink-NibData" = {
AngleInDegrees = 359.99999;
};
}),
(61,0,l),
(148,0,l,{
"Letterink-NibData" = {
AngleInDegrees = 360;
};
}),
(668,700,l)
);
},
{
closed = 1;
nodes = (
(598,356,l),
(760,356,l),
(760,418,l),
(544,418,l,{
"Letterink-NibData" = {
AngleInDegrees = 0;
};
}),
(488,187,l,{
"Letterink-NibData" = {
AngleInDegrees = 0;
};
}),
(531,213,o),
(562,220,o),
(599,220,cs),
(648,220,o),
(688,190,o),
(688,139,cs),
(688,88,o),
(656,57,o),
(599,57,cs),
(559,57,o),
(518,85,o),
(493,118,c,{
"Letterink-NibData" = {
AngleInDegrees = 0;
};
}),
(452,66,l,{
"Letterink-NibData" = {
AngleInDegrees = 0;
};
}),
(484,25,o),
(531,-9,o),
(608,-9,cs),
(689,-9,o),
(764,38,o),
(764,135,cs),
(764,219,o),
(708,275,o),
(638,275,cs),
(615,275,o),
(592,270,o),
(571,259,c,{
"Letterink-NibData" = {
AngleInDegrees = 0;
};
})
);
}
);
width = 792;
}
);
note = uni2155;
unicode = 8533;
userData = {
KernOnSpecialSpacing = {
L = NoKerning;
R = NoKerning;
};
};
},
{
glyphname = uni2156;
lastChange = "2025-10-03 15:49:50 +0000";
layers = (
{
layerId = m01;
shapes = (
{
closed = 1;
nodes = (
(30,282,l),
(350,282,l),
(350,348,l),
(168,348,l,{
"Letterink-NibData" = {
AngleInDegrees = 360;
};
}),
(287,465,ls,{
"Letterink-NibData" = {
AngleInDegrees = 360;
};
}),
(321,497,o),
(345,536,o),
(345,579,cs),
(345,639,o),
(302,710,o),
(205,710,cs),
(109,710,o),
(53,643,o),
(53,554,c),
(123,554,l),
(123,610,o),
(156,646,o),
(204,646,cs),
(250,646,o),
(272,613,o),
(272,580,cs),
(272,546,o),
(254,519,o),
(224,487,cs,{
"Letterink-NibData" = {
AngleInDegrees = 0;
};
})
);
},
{
closed = 1;
nodes = (
(715,700,l,{
"Letterink-NibData" = {
AngleInDegrees = 359.99999;
};
}),
(195,0,l),
(283,0,l,{
"Letterink-NibData" = {
AngleInDegrees = 360;
};
}),
(803,700,l)
);
},
{
closed = 1;
nodes = (
(727,356,l),
(890,356,l),
(890,418,l),
(674,418,l,{
"Letterink-NibData" = {
AngleInDegrees = 0;
};
}),
(618,187,l,{
"Letterink-NibData" = {
AngleInDegrees = 0;
};
}),
(661,213,o),
(692,220,o),
(729,220,cs),
(778,220,o),
(818,190,o),
(818,139,cs),
(818,88,o),
(785,57,o),
(729,57,cs),
(689,57,o),
(648,85,o),
(623,118,c,{
"Letterink-NibData" = {
AngleInDegrees = 0;
};
}),
(581,66,l,{
"Letterink-NibData" = {
AngleInDegrees = 0;
};
}),
(614,25,o),
(661,-9,o),
(738,-9,cs),
(819,-9,o),
(894,38,o),
(894,135,cs),
(894,219,o),
(838,275,o),
(768,275,cs),
(744,275,o),
(721,270,o),
(700,259,c,{
"Letterink-NibData" = {
AngleInDegrees = 0;
};
})
);
}
);
width = 925;
}
);
note = uni2156;
unicode = 8534;
userData = {
KernOnSpecialSpacing = {
L = NoKerning;
R = NoKerning;
};
};
},
{
glyphname = uni2157;
lastChange = "2025-10-03 15:49:50 +0000";
layers = (
{
layerId = m01;
shapes = (
{
closed = 1;
nodes = (
(259,273,o),
(317,321,o),
(317,393,cs),
(317,450,o),
(283,484,o),
(232,500,c,{
"Letterink-NibData" = {
AngleInDegrees = 0;
};
}),
(277,518,o),
(305,551,o),
(305,593,cs),
(305,654,o),
(257,707,o),
(176,707,cs),
(99,707,o),
(45,657,o),
(45,589,c),
(112,589,l),
(112,623,o),
(140,647,o),
(176,647,cs),
(214,647,o),
(233,624,o),
(233,590,cs),
(233,554,o),
(202,524,o),
(151,524,c),
(151,471,l),
(208,471,o),
(245,445,o),
(245,400,cs),
(245,358,o),
(217,334,o),
(174,334,cs),
(131,334,o),
(99,359,o),
(99,400,c),
(27,400,l),
(27,331,o),
(83,273,o),
(172,273,cs)
);
},
{
closed = 1;
nodes = (
(663,700,l,{
"Letterink-NibData" = {
AngleInDegrees = 359.99999;
};
}),
(143,0,l),
(230,0,l,{
"Letterink-NibData" = {
AngleInDegrees = 360;
};
}),
(750,700,l)
);
},
{
closed = 1;
nodes = (
(672,356,l),
(835,356,l),
(835,418,l),
(619,418,l,{
"Letterink-NibData" = {
AngleInDegrees = 0;
};
}),
(563,187,l,{
"Letterink-NibData" = {
AngleInDegrees = 0;
};
}),
(606,213,o),
(637,220,o),
(674,220,cs),
(723,220,o),
(763,190,o),
(763,139,cs),
(763,88,o),
(730,57,o),
(674,57,cs),
(634,57,o),
(593,85,o),
(568,118,c,{
"Letterink-NibData" = {
AngleInDegrees = 0;
};
}),
(526,66,l,{
"Letterink-NibData" = {
AngleInDegrees = 0;
};
}),
(559,25,o),
(606,-9,o),
(683,-9,cs),
(764,-9,o),
(839,38,o),
(839,135,cs),
(839,219,o),
(783,275,o),
(713,275,cs),
(689,275,o),
(666,270,o),
(645,259,c,{
"Letterink-NibData" = {
AngleInDegrees = 0;
};
})
);
}
);
width = 871;
}
);
note = uni2157;
unicode = 8535;
userData = {
KernOnSpecialSpacing = {
L = NoKerning;
R = NoKerning;
};
};
},
{
glyphname = uni2158;
lastChange = "2025-10-03 15:49:50 +0000";
layers = (
{
layerId = m01;
shapes = (
{
closed = 1;
nodes = (
(373,360,l),
(373,422,l),
(307,422,l),
(307,700,l),
(264,700,l,{
"Letterink-NibData" = {
AngleInDegrees = 0;
};
}),
(27,360,l),
(234,360,l),
(234,280,l),
(307,280,l),
(307,360,l)
);
},
{
closed = 1;
nodes = (
(708,700,l,{
"Letterink-NibData" = {
AngleInDegrees = 359.99999;
};
}),
(188,0,l),
(275,0,l,{
"Letterink-NibData" = {
AngleInDegrees = 360;
};
}),
(795,700,l)
);
},
{
closed = 1;
nodes = (
(239,574,l),
(239,417,l),
(131,417,l,{
"Letterink-NibData" = {
AngleInDegrees = 0;
};
})
);
},
{
closed = 1;
nodes = (
(730,356,l),
(892,356,l),
(892,418,l),
(676,418,l,{
"Letterink-NibData" = {
AngleInDegrees = 360;
};
}),
(620,186,l,{
"Letterink-NibData" = {
AngleInDegrees = 360;
};
}),
(663,213,o),
(694,220,o),
(731,220,cs),
(780,220,o),
(820,190,o),
(820,139,cs),
(820,88,o),
(788,57,o),
(731,57,cs),
(691,57,o),
(650,84,o),
(625,117,c,{
"Letterink-NibData" = {
AngleInDegrees = 0;
};
}),
(584,66,l,{
"Letterink-NibData" = {
AngleInDegrees = 0;
};
}),
(616,25,o),
(663,-9,o),
(740,-9,cs),
(821,-9,o),
(896,38,o),
(896,134,cs),
(896,219,o),
(840,275,o),
(770,275,cs),
(747,275,o),
(724,270,o),
(703,259,c,{
"Letterink-NibData" = {
AngleInDegrees = 0;
};
})
);
}
);
width = 926;
}
);
note = uni2158;
unicode = 8536;
userData = {
KernOnSpecialSpacing = {
L = NoKerning;
R = NoKerning;
};
};
},
{
glyphname = uni2159;
lastChange = "2025-10-03 15:49:50 +0000";
layers = (
{
layerId = m01;
shapes = (
{
closed = 1;
nodes = (
(28,596,l,{
"Letterink-NibData" = {
AngleInDegrees = 360;
};
}),
(125,623,l),
(125,274,l),
(195,274,l),
(195,701,l,{
"Letterink-NibData" = {
AngleInDegrees = 0;
};
}),
(28,663,l)
);
},
{
closed = 1;
nodes = (
(588,700,l,{
"Letterink-NibData" = {
AngleInDegrees = 359.99999;
};
}),
(68,0,l),
(156,0,l,{
"Letterink-NibData" = {
AngleInDegrees = 360;
};
}),
(676,700,l)
);
},
{
closed = 1;
nodes = (
(624,417,l,{
"Letterink-NibData" = {
AngleInDegrees = 360;
};
}),
(491,239,ls,{
"Letterink-NibData" = {
AngleInDegrees = 0;
};
}),
(470,212,o),
(455,178,o),
(455,140,cs),
(455,47,o),
(523,-9,o),
(609,-9,cs),
(696,-9,o),
(764,47,o),
(764,140,cs),
(764,220,o),
(703,276,o),
(637,276,cs),
(620,276,o),
(606,274,o),
(594,269,c,{
"Letterink-NibData" = {
AngleInDegrees = 360;
};
}),
(714,417,l)
);
},
{
closed = 1;
nodes = (
(525,192,o),
(561,228,o),
(609,228,cs),
(658,228,o),
(694,192,o),
(694,140,cs),
(694,88,o),
(658,53,o),
(609,53,cs),
(561,53,o),
(525,88,o),
(525,140,cs)
);
}
);
width = 789;
}
);
note = uni2159;
unicode = 8537;
userData = {
KernOnSpecialSpacing = {
L = NoKerning;
R = NoKerning;
};
};
},
{
glyphname = uni215A;
lastChange = "2025-10-03 15:49:50 +0000";
layers = (
{
layerId = m01;
shapes = (
{
closed = 1;
nodes = (
(693,700,l,{
"Letterink-NibData" = {
AngleInDegrees = 359.99999;
};
}),
(173,0,l),
(260,0,l,{
"Letterink-NibData" = {
AngleInDegrees = 360;
};
}),
(780,700,l)
);
},
{
closed = 1;
nodes = (
(343,499,o),
(286,555,o),
(217,555,cs),
(193,555,o),
(170,550,o),
(149,539,c,{
"Letterink-NibData" = {
AngleInDegrees = 0;
};
}),
(176,636,l),
(339,636,l),
(339,698,l),
(123,698,l,{
"Letterink-NibData" = {
AngleInDegrees = 360;
};
}),
(66,467,l,{
"Letterink-NibData" = {
AngleInDegrees = 0;
};
}),
(109,493,o),
(141,500,o),
(178,500,cs),
(226,500,o),
(267,470,o),
(267,419,cs),
(267,368,o),
(234,337,o),
(178,337,cs),
(138,337,o),
(97,365,o),
(72,398,c,{
"Letterink-NibData" = {
AngleInDegrees = 0;
};
}),
(30,346,l,{
"Letterink-NibData" = {
AngleInDegrees = 0;
};
}),
(63,305,o),
(110,271,o),
(187,271,cs),
(268,271,o),
(343,318,o),
(343,415,cs)
);
},
{
closed = 1;
nodes = (
(721,417,l,{
"Letterink-NibData" = {
AngleInDegrees = 360;
};
}),
(588,239,ls,{
"Letterink-NibData" = {
AngleInDegrees = 0;
};
}),
(567,212,o),
(552,178,o),
(552,140,cs),
(552,47,o),
(620,-9,o),
(706,-9,cs),
(793,-9,o),
(861,47,o),
(861,140,cs),
(861,220,o),
(800,276,o),
(734,276,cs),
(717,276,o),
(703,274,o),
(691,269,c,{
"Letterink-NibData" = {
AngleInDegrees = 360;
};
}),
(811,417,l)
);
},
{
closed = 1;
nodes = (
(622,192,o),
(658,228,o),
(706,228,cs),
(755,228,o),
(791,192,o),
(791,140,cs),
(791,88,o),
(755,53,o),
(706,53,cs),
(658,53,o),
(622,88,o),
(622,140,cs)
);
}
);
width = 886;
}
);
note = uni215A;
unicode = 8538;
userData = {
KernOnSpecialSpacing = {
L = NoKerning;
R = NoKerning;
};
};
},
{
glyphname = oneeighth;
lastChange = "2025-10-03 15:49:50 +0000";
layers = (
{
layerId = m01;
shapes = (
{
closed = 1;
nodes = (
(28,596,l,{
"Letterink-NibData" = {
AngleInDegrees = 360;
};
}),
(125,623,l),
(125,274,l),
(195,274,l),
(195,701,l,{
"Letterink-NibData" = {
AngleInDegrees = 0;
};
}),
(28,663,l)
);
},
{
closed = 1;
nodes = (
(588,700,l,{
"Letterink-NibData" = {
AngleInDegrees = 359.99999;
};
}),
(68,0,l),
(156,0,l,{
"Letterink-NibData" = {
AngleInDegrees = 360;
};
}),
(676,700,l)
);
},
{
closed = 1;
nodes = (
(499,45,o),
(563,-7,o),
(641,-7,cs),
(719,-7,o),
(782,45,o),
(782,114,cs),
(782,170,o),
(749,206,o),
(705,223,c,{
"Letterink-NibData" = {
AngleInDegrees = 360;
};
}),
(742,240,o),
(767,273,o),
(767,319,cs),
(767,383,o),
(711,428,o),
(641,428,cs),
(570,428,o),
(514,383,o),
(514,319,cs),
(514,273,o),
(539,240,o),
(576,223,c,{
"Letterink-NibData" = {
AngleInDegrees = 0;
};
}),
(533,206,o),
(499,170,o),
(499,114,cs)
);
},
{
closed = 1;
nodes = (
(582,347,o),
(606,371,o),
(641,371,cs),
(675,371,o),
(700,347,o),
(700,312,cs),
(700,276,o),
(673,252,o),
(641,252,cs),
(609,252,o),
(582,276,o),
(582,312,cs)
);
},
{
closed = 1;
nodes = (
(569,164,o),
(603,194,o),
(641,194,cs),
(678,194,o),
(712,164,o),
(712,124,cs),
(712,78,o),
(678,53,o),
(641,53,cs),
(603,53,o),
(569,78,o),
(569,124,cs)
);
}
);
width = 813;
}
);
note = oneeighth;
unicode = 8539;
userData = {
KernOnSpecialSpacing = {
L = NoKerning;
R = NoKerning;
};
};
},
{
glyphname = threeeighths;
lastChange = "2025-10-03 15:49:50 +0000";
layers = (
{
layerId = m01;
shapes = (
{
closed = 1;
nodes = (
(259,273,o),
(317,321,o),
(317,393,cs),
(317,450,o),
(283,484,o),
(232,500,c,{
"Letterink-NibData" = {
AngleInDegrees = 0;
};
}),
(277,518,o),
(305,551,o),
(305,593,cs),
(305,654,o),
(257,707,o),
(176,707,cs),
(99,707,o),
(45,657,o),
(45,589,c),
(112,589,l),
(112,623,o),
(140,647,o),
(176,647,cs),
(214,647,o),
(233,624,o),
(233,590,cs),
(233,554,o),
(202,524,o),
(151,524,c),
(151,471,l),
(208,471,o),
(245,445,o),
(245,400,cs),
(245,358,o),
(217,334,o),
(174,334,cs),
(131,334,o),
(99,359,o),
(99,400,c),
(27,400,l),
(27,331,o),
(83,273,o),
(172,273,cs)
);
},
{
closed = 1;
nodes = (
(665,700,l,{
"Letterink-NibData" = {
AngleInDegrees = 359.99999;
};
}),
(145,0,l),
(233,0,l,{
"Letterink-NibData" = {
AngleInDegrees = 360;
};
}),
(753,700,l)
);
},
{
closed = 1;
nodes = (
(576,45,o),
(640,-7,o),
(718,-7,cs),
(796,-7,o),
(859,45,o),
(859,114,cs),
(859,170,o),
(826,206,o),
(782,223,c,{
"Letterink-NibData" = {
AngleInDegrees = 360;
};
}),
(819,240,o),
(844,273,o),
(844,319,cs),
(844,383,o),
(788,428,o),
(718,428,cs),
(647,428,o),
(591,383,o),
(591,319,cs),
(591,273,o),
(616,240,o),
(653,223,c,{
"Letterink-NibData" = {
AngleInDegrees = 0;
};
}),
(610,206,o),
(576,170,o),
(576,114,cs)
);
},
{
closed = 1;
nodes = (
(659,347,o),
(683,371,o),
(718,371,cs),
(752,371,o),
(777,347,o),
(777,312,cs),
(777,276,o),
(750,252,o),
(718,252,cs),
(686,252,o),
(659,276,o),
(659,312,cs)
);
},
{
closed = 1;
nodes = (
(646,164,o),
(680,194,o),
(718,194,cs),
(755,194,o),
(789,164,o),
(789,124,cs),
(789,78,o),
(755,53,o),
(718,53,cs),
(680,53,o),
(646,78,o),
(646,124,cs)
);
}
);
width = 890;
}
);
note = threeeighths;
unicode = 8540;
userData = {
KernOnSpecialSpacing = {
L = NoKerning;
R = NoKerning;
};
};
},
{
glyphname = fiveeighths;
lastChange = "2025-10-03 15:49:50 +0000";
layers = (
{
layerId = m01;
shapes = (
{
closed = 1;
nodes = (
(693,700,l,{
"Letterink-NibData" = {
AngleInDegrees = 359.99999;
};
}),
(173,0,l),
(260,0,l,{
"Letterink-NibData" = {
AngleInDegrees = 360;
};
}),
(780,700,l)
);
},
{
closed = 1;
nodes = (
(340,499,o),
(284,555,o),
(214,555,cs),
(190,555,o),
(167,550,o),
(146,539,c,{
"Letterink-NibData" = {
AngleInDegrees = 0;
};
}),
(173,636,l),
(336,636,l),
(336,698,l),
(120,698,l,{
"Letterink-NibData" = {
AngleInDegrees = 0;
};
}),
(64,467,l,{
"Letterink-NibData" = {
AngleInDegrees = 0;
};
}),
(107,493,o),
(138,500,o),
(175,500,cs),
(224,500,o),
(264,470,o),
(264,419,cs),
(264,368,o),
(231,337,o),
(175,337,cs),
(135,337,o),
(94,365,o),
(69,398,c,{
"Letterink-NibData" = {
AngleInDegrees = 0;
};
}),
(28,346,l,{
"Letterink-NibData" = {
AngleInDegrees = 0;
};
}),
(60,305,o),
(107,271,o),
(184,271,cs),
(265,271,o),
(340,318,o),
(340,415,cs)
);
},
{
closed = 1;
nodes = (
(604,45,o),
(667,-7,o),
(745,-7,cs),
(823,-7,o),
(887,45,o),
(887,114,cs),
(887,170,o),
(853,206,o),
(810,223,c,{
"Letterink-NibData" = {
AngleInDegrees = 360;
};
}),
(847,240,o),
(872,273,o),
(872,319,cs),
(872,383,o),
(816,428,o),
(745,428,cs),
(675,428,o),
(619,383,o),
(619,319,cs),
(619,273,o),
(644,240,o),
(681,223,c,{
"Letterink-NibData" = {
AngleInDegrees = 359.99999;
};
}),
(637,206,o),
(604,170,o),
(604,114,cs)
);
},
{
closed = 1;
nodes = (
(687,347,o),
(711,371,o),
(745,371,cs),
(780,371,o),
(804,347,o),
(804,312,cs),
(804,276,o),
(778,252,o),
(745,252,cs),
(713,252,o),
(687,276,o),
(687,312,cs)
);
},
{
closed = 1;
nodes = (
(674,164,o),
(708,194,o),
(745,194,cs),
(783,194,o),
(817,164,o),
(817,124,cs),
(817,78,o),
(783,53,o),
(745,53,cs),
(708,53,o),
(674,78,o),
(674,124,cs)
);
}
);
width = 917;
}
);
note = fiveeighths;
unicode = 8541;
userData = {
KernOnSpecialSpacing = {
L = NoKerning;
R = NoKerning;
};
};
},
{
glyphname = seveneighths;
lastChange = "2025-10-03 15:49:50 +0000";
layers = (
{
layerId = m01;
shapes = (
{
closed = 1;
nodes = (
(580,700,l,{
"Letterink-NibData" = {
AngleInDegrees = 359.99999;
};
}),
(60,0,l),
(148,0,l,{
"Letterink-NibData" = {
AngleInDegrees = 360;
};
}),
(668,700,l)
);
},
{
closed = 1;
nodes = (
(27,633,l),
(236,633,l,{
"Letterink-NibData" = {
AngleInDegrees = 0;
};
}),
(64,280,l),
(139,280,l,{
"Letterink-NibData" = {
AngleInDegrees = 0;
};
}),
(341,700,l),
(27,700,l)
);
},
{
closed = 1;
nodes = (
(494,45,o),
(557,-7,o),
(635,-7,cs),
(713,-7,o),
(777,45,o),
(777,114,cs),
(777,170,o),
(743,206,o),
(700,223,c,{
"Letterink-NibData" = {
AngleInDegrees = 360;
};
}),
(737,240,o),
(762,273,o),
(762,319,cs),
(762,383,o),
(706,428,o),
(635,428,cs),
(565,428,o),
(509,383,o),
(509,319,cs),
(509,273,o),
(534,240,o),
(571,223,c,{
"Letterink-NibData" = {
AngleInDegrees = 359.99999;
};
}),
(527,206,o),
(494,170,o),
(494,114,cs)
);
},
{
closed = 1;
nodes = (
(577,347,o),
(601,371,o),
(635,371,cs),
(670,371,o),
(694,347,o),
(694,312,cs),
(694,276,o),
(668,252,o),
(635,252,cs),
(603,252,o),
(577,276,o),
(577,312,cs)
);
},
{
closed = 1;
nodes = (
(564,164,o),
(598,194,o),
(635,194,cs),
(673,194,o),
(707,164,o),
(707,124,cs),
(707,78,o),
(673,53,o),
(635,53,cs),
(598,53,o),
(564,78,o),
(564,124,cs)
);
}
);
width = 807;
}
);
note = seveneighths;
unicode = 8542;
userData = {
KernOnSpecialSpacing = {
L = NoKerning;
R = NoKerning;
};
};
},
{
glyphname = underscore;
kernLeft = KO_underscore;
kernRight = KO_underscore;
lastChange = "2025-10-03 15:49:50 +0000";
layers = (
{
layerId = m01;
shapes = (
{
closed = 1;
nodes = (
(0,-141,l),
(513,-141,l),
(513,-70,l),
(0,-70,l)
);
}
);
width = 513;
}
);
note = underscore;
unicode = 95;
userData = {
KernOnSpecialSpacing = {
L = underscore;
R = underscore;
};
};
},
{
glyphname = hyphen;
kernLeft = KO_hyphen;
kernRight = KO_hyphen;
lastChange = "2025-10-09 08:03:20 +0000";
layers = (
{
hints = (
{
name = _corner.ink;
origin = (0,0);
type = Corner;
},
{
name = _corner.ink;
options = 2;
origin = (0,1);
scale = (-1,1);
type = Corner;
},
{
name = _corner.ink;
origin = (0,2);
type = Corner;
},
{
name = _corner.ink;
options = 2;
origin = (0,3);
scale = (-1,1);
type = Corner;
}
);
layerId = m01;
shapes = (
{
closed = 1;
nodes = (
(5,203,l),
(210,203,l),
(210,273,l),
(5,273,l)
);
}
);
width = 215;
}
);
note = hyphen;
unicode = 45;
userData = {
KernOnSpecialSpacing = {
L = hyphen;
R = hyphen;
};
};
},
{
glyphname = uni2010;
kernLeft = KO_uni2010;
kernRight = KO_uni2010;
lastChange = "2025-10-03 15:49:50 +0000";
layers = (
{
layerId = m01;
shapes = (
{
closed = 1;
nodes = (
(5,189,l),
(210,189,l),
(210,286,l),
(5,286,l)
);
}
);
width = 215;
}
);
note = uni2010;
unicode = 8208;
userData = {
KernOnSpecialSpacing = {
L = hyphen;
R = hyphen;
};
};
},
{
glyphname = figuredash;
lastChange = "2025-10-03 15:49:50 +0000";
layers = (
{
layerId = m01;
shapes = (
{
closed = 1;
nodes = (
(70,189,l),
(531,189,l),
(531,286,l),
(70,286,l)
);
}
);
width = 605;
}
);
note = figuredash;
unicode = 8210;
},
{
glyphname = endash;
kernLeft = KO_endash;
kernRight = KO_endash;
lastChange = "2025-10-03 15:49:50 +0000";
layers = (
{
layerId = m01;
shapes = (
{
closed = 1;
nodes = (
(70,189,l),
(685,189,l),
(685,286,l),
(70,286,l)
);
}
);
width = 758;
}
);
note = endash;
unicode = 8211;
userData = {
KernOnSpecialSpacing = {
L = dashes;
R = dashes;
};
};
},
{
glyphname = emdash;
kernLeft = KO_endash;
kernRight = KO_endash;
lastChange = "2025-10-03 15:49:50 +0000";
layers = (
{
layerId = m01;
shapes = (
{
closed = 1;
nodes = (
(70,189,l),
(839,189,l),
(839,286,l),
(70,286,l)
);
}
);
width = 910;
}
);
note = emdash;
unicode = 8212;
userData = {
KernOnSpecialSpacing = {
L = dashes;
R = dashes;
};
};
},
{
glyphname = parenleft;
kernLeft = KO_parenleft;
kernRight = KO_parenleft;
lastChange = "2025-10-03 15:49:50 +0000";
layers = (
{
layerId = m01;
shapes = (
{
closed = 1;
nodes = (
(199,780,l,{
"Letterink-NibData" = {
AngleInDegrees = 359.99999;
};
}),
(119,630,o),
(81,460,o),
(81,290,cs),
(81,120,o),
(119,-50,o),
(199,-200,c),
(299,-200,l,{
"Letterink-NibData" = {
AngleInDegrees = 359.99999;
};
}),
(229,-50,o),
(195,120,o),
(195,290,cs),
(195,460,o),
(229,630,o),
(299,780,c)
);
}
);
width = 323;
}
);
note = parenleft;
unicode = 40;
userData = {
KernOnSpecialSpacing = {
R = parenthesis;
};
};
},
{
glyphname = parenright;
kernLeft = KO_parenright;
kernRight = KO_parenright;
lastChange = "2025-10-03 15:49:50 +0000";
layers = (
{
layerId = m01;
shapes = (
{
closed = 1;
nodes = (
(124,-200,l,{
"Letterink-NibData" = {
AngleInDegrees = 0;
};
}),
(204,-50,o),
(241,120,o),
(241,290,cs),
(241,460,o),
(204,630,o),
(124,780,c),
(24,780,l,{
"Letterink-NibData" = {
AngleInDegrees = 0;
};
}),
(94,630,o),
(128,460,o),
(128,290,cs),
(128,120,o),
(94,-50,o),
(24,-200,c)
);
}
);
width = 323;
}
);
note = parenright;
unicode = 41;
userData = {
KernOnSpecialSpacing = {
L = parenthesis;
};
};
},
{
glyphname = bracketleft;
kernRight = KO_bracketleft;
lastChange = "2025-10-03 15:49:50 +0000";
layers = (
{
layerId = m01;
shapes = (
{
closed = 1;
nodes = (
(204,683,l),
(305,683,l),
(305,780,l),
(96,780,l),
(96,-220,l),
(305,-220,l),
(305,-122,l),
(204,-122,l)
);
}
);
width = 325;
}
);
note = bracketleft;
unicode = 91;
userData = {
KernOnSpecialSpacing = {
L = NoKerning;
R = parenthesis;
};
};
},
{
glyphname = bracketright;
kernLeft = KO_bracketright;
lastChange = "2025-10-03 15:49:50 +0000";
layers = (
{
layerId = m01;
shapes = (
{
closed = 1;
nodes = (
(121,-122,l),
(20,-122,l),
(20,-220,l),
(229,-220,l),
(229,780,l),
(20,780,l),
(20,683,l),
(121,683,l)
);
}
);
width = 325;
}
);
note = bracketright;
unicode = 93;
userData = {
KernOnSpecialSpacing = {
L = parenthesis;
R = NoKerning;
};
};
},
{
glyphname = braceleft;
kernRight = KO_braceleft;
lastChange = "2025-10-03 15:49:50 +0000";
layers = (
{
layerId = m01;
shapes = (
{
closed = 1;
nodes = (
(213,640,ls),
(213,666,o),
(231,690,o),
(261,690,cs),
(296,690,l),
(296,780,l),
(224,780,ls),
(165,780,o),
(98,739,o),
(98,640,cs),
(98,440,ls),
(98,364,o),
(80,340,o),
(45,330,c),
(45,250,l,{
"Letterink-NibData" = {
AngleInDegrees = 0;
};
}),
(80,240,o),
(98,216,o),
(98,140,cs),
(98,-60,ls),
(98,-159,o),
(165,-200,o),
(224,-200,cs),
(296,-200,l),
(296,-110,l),
(261,-110,ls),
(231,-110,o),
(213,-86,o),
(213,-60,cs),
(213,90,ls),
(213,164,o),
(210,259,o),
(140,290,c,{
"Letterink-NibData" = {
AngleInDegrees = 0;
};
}),
(210,321,o),
(213,416,o),
(213,490,cs)
);
}
);
width = 346;
}
);
note = braceleft;
unicode = 123;
userData = {
KernOnSpecialSpacing = {
R = parenthesis;
};
};
},
{
glyphname = braceright;
kernLeft = KO_braceright;
lastChange = "2025-10-03 15:49:50 +0000";
layers = (
{
layerId = m01;
shapes = (
{
closed = 1;
nodes = (
(140,-60,ls),
(140,-86,o),
(122,-110,o),
(92,-110,cs),
(57,-110,l),
(57,-200,l),
(129,-200,ls),
(188,-200,o),
(255,-159,o),
(255,-60,cs),
(255,140,ls),
(255,216,o),
(273,240,o),
(308,250,c),
(308,330,l,{
"Letterink-NibData" = {
AngleInDegrees = 0;
};
}),
(273,340,o),
(255,364,o),
(255,440,cs),
(255,640,ls),
(255,739,o),
(188,780,o),
(129,780,cs),
(57,780,l),
(57,690,l),
(92,690,ls),
(122,690,o),
(140,666,o),
(140,640,cs),
(140,490,ls),
(140,416,o),
(142,321,o),
(212,290,c,{
"Letterink-NibData" = {
AngleInDegrees = 359.99999;
};
}),
(142,259,o),
(140,164,o),
(140,90,cs)
);
}
);
width = 346;
}
);
note = braceright;
unicode = 125;
userData = {
KernOnSpecialSpacing = {
L = parenthesis;
};
};
},
{
glyphname = numbersign;
kernRight = KO_numbersign;
lastChange = "2025-10-03 15:49:50 +0000";
layers = (
{
layerId = m01;
shapes = (
{
closed = 1;
nodes = (
(35,189,l),
(116,189,l,{
"Letterink-NibData" = {
AngleInDegrees = 0;
};
}),
(70,0,l),
(168,0,l,{
"Letterink-NibData" = {
AngleInDegrees = 0;
};
}),
(213,189,l),
(338,189,l,{
"Letterink-NibData" = {
AngleInDegrees = 0;
};
}),
(293,0,l),
(390,0,l,{
"Letterink-NibData" = {
AngleInDegrees = 0;
};
}),
(436,189,l),
(555,189,l),
(555,276,l),
(457,276,l,{
"Letterink-NibData" = {
AngleInDegrees = 0;
};
}),
(494,429,l),
(595,429,l),
(595,516,l),
(515,516,l,{
"Letterink-NibData" = {
AngleInDegrees = 0;
};
}),
(560,700,l),
(463,700,l,{
"Letterink-NibData" = {
AngleInDegrees = 0;
};
}),
(418,516,l),
(293,516,l,{
"Letterink-NibData" = {
AngleInDegrees = 0;
};
}),
(338,700,l),
(240,700,l,{
"Letterink-NibData" = {
AngleInDegrees = 0;
};
}),
(195,516,l),
(75,516,l),
(75,429,l),
(174,429,l,{
"Letterink-NibData" = {
AngleInDegrees = 0;
};
}),
(137,276,l),
(35,276,l)
);
},
{
closed = 1;
nodes = (
(231,274,l,{
"Letterink-NibData" = {
AngleInDegrees = 0;
};
}),
(270,431,l),
(400,431,l,{
"Letterink-NibData" = {
AngleInDegrees = 0;
};
}),
(362,274,l)
);
}
);
width = 630;
}
);
note = numbersign;
unicode = 35;
},
{
glyphname = percent;
lastChange = "2025-10-03 15:49:50 +0000";
layers = (
{
layerId = m01;
shapes = (
{
closed = 1;
nodes = (
(30,450,o),
(101,374,o),
(201,374,cs),
(301,374,o),
(371,450,o),
(371,544,cs),
(371,638,o),
(301,714,o),
(201,714,cs),
(101,714,o),
(30,638,o),
(30,544,cs)
);
},
{
closed = 1;
nodes = (
(598,700,l,{
"Letterink-NibData" = {
AngleInDegrees = 0;
};
}),
(113,0,l),
(221,0,l,{
"Letterink-NibData" = {
AngleInDegrees = 360;
};
}),
(706,700,l)
);
},
{
closed = 1;
nodes = (
(123,589,o),
(152,627,o),
(201,627,cs),
(249,627,o),
(279,589,o),
(279,544,cs),
(279,499,o),
(249,460,o),
(201,460,cs),
(152,460,o),
(123,499,o),
(123,544,cs)
);
},
{
closed = 1;
nodes = (
(448,62,o),
(518,-13,o),
(618,-13,cs),
(718,-13,o),
(789,62,o),
(789,157,cs),
(789,251,o),
(718,327,o),
(618,327,cs),
(518,327,o),
(448,251,o),
(448,157,cs)
);
},
{
closed = 1;
nodes = (
(540,202,o),
(570,240,o),
(618,240,cs),
(666,240,o),
(696,202,o),
(696,157,cs),
(696,112,o),
(666,73,o),
(618,73,cs),
(570,73,o),
(540,112,o),
(540,157,cs)
);
}
);
width = 819;
}
);
note = percent;
unicode = 37;
userData = {
KernOnSpecialSpacing = {
L = "spaced-off";
};
};
},
{
glyphname = perthousand;
lastChange = "2025-10-03 15:49:50 +0000";
layers = (
{
layerId = m01;
shapes = (
{
closed = 1;
nodes = (
(30,450,o),
(101,374,o),
(201,374,cs),
(301,374,o),
(371,450,o),
(371,544,cs),
(371,638,o),
(301,714,o),
(201,714,cs),
(101,714,o),
(30,638,o),
(30,544,cs)
);
},
{
closed = 1;
nodes = (
(598,700,l,{
"Letterink-NibData" = {
AngleInDegrees = 0;
};
}),
(113,0,l),
(221,0,l,{
"Letterink-NibData" = {
AngleInDegrees = 360;
};
}),
(706,700,l)
);
},
{
closed = 1;
nodes = (
(123,589,o),
(152,627,o),
(201,627,cs),
(249,627,o),
(279,589,o),
(279,544,cs),
(279,499,o),
(249,460,o),
(201,460,cs),
(152,460,o),
(123,499,o),
(123,544,cs)
);
},
{
closed = 1;
nodes = (
(858,62,o),
(928,-13,o),
(1028,-13,cs),
(1128,-13,o),
(1199,62,o),
(1199,157,cs),
(1199,251,o),
(1128,327,o),
(1028,327,cs),
(928,327,o),
(858,251,o),
(858,157,cs)
);
},
{
closed = 1;
nodes = (
(448,62,o),
(518,-13,o),
(618,-13,cs),
(718,-13,o),
(789,62,o),
(789,157,cs),
(789,251,o),
(718,327,o),
(618,327,cs),
(518,327,o),
(448,251,o),
(448,157,cs)
);
},
{
closed = 1;
nodes = (
(950,202,o),
(980,240,o),
(1028,240,cs),
(1076,240,o),
(1106,202,o),
(1106,157,cs),
(1106,112,o),
(1076,73,o),
(1028,73,cs),
(980,73,o),
(950,112,o),
(950,157,cs)
);
},
{
closed = 1;
nodes = (
(540,202,o),
(570,240,o),
(618,240,cs),
(666,240,o),
(696,202,o),
(696,157,cs),
(696,112,o),
(666,73,o),
(618,73,cs),
(570,73,o),
(540,112,o),
(540,157,cs)
);
}
);
width = 1229;
}
);
note = perthousand;
unicode = 8240;
},
{
glyphname = uni2031;
lastChange = "2025-10-03 15:49:50 +0000";
layers = (
{
layerId = m01;
shapes = (
{
closed = 1;
nodes = (
(30,450,o),
(101,374,o),
(201,374,cs),
(301,374,o),
(371,450,o),
(371,544,cs),
(371,638,o),
(301,714,o),
(201,714,cs),
(101,714,o),
(30,638,o),
(30,544,cs)
);
},
{
closed = 1;
nodes = (
(598,700,l,{
"Letterink-NibData" = {
AngleInDegrees = 0;
};
}),
(113,0,l),
(221,0,l,{
"Letterink-NibData" = {
AngleInDegrees = 360;
};
}),
(706,700,l)
);
},
{
closed = 1;
nodes = (
(123,589,o),
(152,627,o),
(201,627,cs),
(249,627,o),
(279,589,o),
(279,544,cs),
(279,499,o),
(249,460,o),
(201,460,cs),
(152,460,o),
(123,499,o),
(123,544,cs)
);
},
{
closed = 1;
nodes = (
(1268,62,o),
(1338,-13,o),
(1438,-13,cs),
(1538,-13,o),
(1609,62,o),
(1609,157,cs),
(1609,251,o),
(1538,327,o),
(1438,327,cs),
(1338,327,o),
(1268,251,o),
(1268,157,cs)
);
},
{
closed = 1;
nodes = (
(858,62,o),
(928,-13,o),
(1028,-13,cs),
(1128,-13,o),
(1199,62,o),
(1199,157,cs),
(1199,251,o),
(1128,327,o),
(1028,327,cs),
(928,327,o),
(858,251,o),
(858,157,cs)
);
},
{
closed = 1;
nodes = (
(448,62,o),
(518,-13,o),
(618,-13,cs),
(718,-13,o),
(789,62,o),
(789,157,cs),
(789,251,o),
(718,327,o),
(618,327,cs),
(518,327,o),
(448,251,o),
(448,157,cs)
);
},
{
closed = 1;
nodes = (
(1360,202,o),
(1390,240,o),
(1438,240,cs),
(1486,240,o),
(1516,202,o),
(1516,157,cs),
(1516,112,o),
(1486,73,o),
(1438,73,cs),
(1390,73,o),
(1360,112,o),
(1360,157,cs)
);
},
{
closed = 1;
nodes = (
(950,202,o),
(980,240,o),
(1028,240,cs),
(1076,240,o),
(1106,202,o),
(1106,157,cs),
(1106,112,o),
(1076,73,o),
(1028,73,cs),
(980,73,o),
(950,112,o),
(950,157,cs)
);
},
{
closed = 1;
nodes = (
(540,202,o),
(570,240,o),
(618,240,cs),
(666,240,o),
(696,202,o),
(696,157,cs),
(696,112,o),
(666,73,o),
(618,73,cs),
(570,73,o),
(540,112,o),
(540,157,cs)
);
}
);
width = 1639;
}
);
note = uni2031;
unicode = 8241;
},
{
glyphname = quotesingle;
kernLeft = KO_quotedbl;
kernRight = KO_quotedbl;
lastChange = "2025-10-11 16:12:09 +0000";
layers = (
{
layerId = m01;
shapes = (
{
closed = 1;
nodes = (
(120,700,l,{
"Letterink-NibData" = {
AngleInDegrees = 0;
};
}),
(73,393,l),
(145,393,l,{
"Letterink-NibData" = {
AngleInDegrees = 360;
};
}),
(241,700,l)
);
}
);
width = 294;
}
);
note = quotesingle;
unicode = 39;
userData = {
KernOnSpecialSpacing = {
L = quotes;
R = quotes;
};
};
},
{
glyphname = quotedbl;
kernLeft = KO_quotedbl;
kernRight = KO_quotedbl;
lastChange = "2025-10-11 16:12:09 +0000";
layers = (
{
layerId = m01;
shapes = (
{
closed = 1;
nodes = (
(120,700,l,{
"Letterink-NibData" = {
AngleInDegrees = 0;
};
}),
(73,393,l),
(145,393,l,{
"Letterink-NibData" = {
AngleInDegrees = 360;
};
}),
(241,700,l)
);
},
{
closed = 1;
nodes = (
(313,700,l,{
"Letterink-NibData" = {
AngleInDegrees = 360;
};
}),
(265,393,l),
(338,393,l,{
"Letterink-NibData" = {
AngleInDegrees = 360;
};
}),
(434,700,l)
);
}
);
width = 486;
}
);
note = quotedbl;
unicode = 34;
userData = {
KernOnSpecialSpacing = {
L = quotes;
R = quotes;
};
};
},
{
glyphname = quoteleft;
kernLeft = KO_quotedblleft;
kernRight = KO_quoteleft;
lastChange = "2025-10-03 15:49:50 +0000";
layers = (
{
layerId = m01;
shapes = (
{
closed = 1;
nodes = (
(190,460,l,{
"Letterink-NibData" = {
AngleInDegrees = 360;
};
}),
(248,700,l),
(171,700,l,{
"Letterink-NibData" = {
AngleInDegrees = 0;
};
}),
(70,460,l)
);
}
);
width = 298;
}
);
note = quoteleft;
unicode = 8216;
userData = {
KernOnSpecialSpacing = {
L = quotes;
R = quotes;
};
};
},
{
glyphname = quoteright;
kernLeft = KO_quoteright;
kernRight = KO_quoteright;
lastChange = "2025-10-11 16:12:09 +0000";
layers = (
{
layerId = m01;
shapes = (
{
closed = 1;
nodes = (
(108,700,l,{
"Letterink-NibData" = {
AngleInDegrees = 0;
};
}),
(50,460,l),
(126,460,l,{
"Letterink-NibData" = {
AngleInDegrees = 360;
};
}),
(228,700,l)
);
}
);
width = 298;
}
);
note = quoteright;
unicode = 8217;
userData = {
KernOnSpecialSpacing = {
L = quotes;
R = quotes;
};
};
},
{
glyphname = quotedblleft;
kernLeft = KO_quotedblleft;
kernRight = KO_quotedblleft;
lastChange = "2025-10-03 15:49:50 +0000";
layers = (
{
layerId = m01;
shapes = (
{
closed = 1;
nodes = (
(190,460,l,{
"Letterink-NibData" = {
AngleInDegrees = 360;
};
}),
(248,700,l),
(171,700,l,{
"Letterink-NibData" = {
AngleInDegrees = 0;
};
}),
(70,460,l)
);
},
{
closed = 1;
nodes = (
(403,460,l,{
"Letterink-NibData" = {
AngleInDegrees = 360;
};
}),
(460,700,l),
(384,700,l,{
"Letterink-NibData" = {
AngleInDegrees = 0;
};
}),
(283,460,l)
);
}
);
width = 510;
}
);
note = quotedblleft;
unicode = 8220;
userData = {
KernOnSpecialSpacing = {
L = quotes;
R = quotes;
};
};
},
{
glyphname = quotedblright;
kernLeft = KO_quotedblright;
kernRight = KO_quotedblright;
lastChange = "2025-10-03 15:49:50 +0000";
layers = (
{
layerId = m01;
shapes = (
{
closed = 1;
nodes = (
(108,700,l,{
"Letterink-NibData" = {
AngleInDegrees = 0;
};
}),
(50,460,l),
(126,460,l,{
"Letterink-NibData" = {
AngleInDegrees = 360;
};
}),
(228,700,l)
);
},
{
closed = 1;
nodes = (
(320,700,l,{
"Letterink-NibData" = {
AngleInDegrees = 360;
};
}),
(263,460,l),
(339,460,l,{
"Letterink-NibData" = {
AngleInDegrees = 360;
};
}),
(440,700,l)
);
}
);
width = 510;
}
);
note = quotedblright;
unicode = 8221;
userData = {
KernOnSpecialSpacing = {
L = quotes;
R = quotes;
};
};
},
{
glyphname = quotesinglbase;
kernRight = KO_quotesinglbase;
lastChange = "2025-10-03 15:49:50 +0000";
layers = (
{
layerId = m01;
shapes = (
{
closed = 1;
nodes = (
(118,80,l,{
"Letterink-NibData" = {
AngleInDegrees = 0;
};
}),
(60,-160,l),
(136,-160,l,{
"Letterink-NibData" = {
AngleInDegrees = 360;
};
}),
(238,80,l)
);
}
);
width = 298;
}
);
note = quotesinglbase;
unicode = 8218;
userData = {
KernOnSpecialSpacing = {
L = quotes;
R = quotes;
};
};
},
{
glyphname = quotedblbase;
kernRight = KO_quotedblbase;
lastChange = "2025-10-03 15:49:50 +0000";
layers = (
{
layerId = m01;
shapes = (
{
closed = 1;
nodes = (
(108,80,l,{
"Letterink-NibData" = {
AngleInDegrees = 0;
};
}),
(50,-160,l),
(126,-160,l,{
"Letterink-NibData" = {
AngleInDegrees = 360;
};
}),
(228,80,l)
);
},
{
closed = 1;
nodes = (
(320,80,l,{
"Letterink-NibData" = {
AngleInDegrees = 360;
};
}),
(263,-160,l),
(339,-160,l,{
"Letterink-NibData" = {
AngleInDegrees = 360;
};
}),
(440,80,l)
);
}
);
width = 510;
}
);
note = quotedblbase;
unicode = 8222;
userData = {
KernOnSpecialSpacing = {
L = quotes;
R = quotes;
};
};
},
{
glyphname = guilsinglleft;
kernLeft = KO_guillemotleft;
kernRight = KO_guilsinglleft;
lastChange = "2025-10-03 15:49:50 +0000";
layers = (
{
layerId = m01;
shapes = (
{
closed = 1;
nodes = (
(137,259,l,{
"Letterink-NibData" = {
AngleInDegrees = 360;
};
}),
(288,445,l,{
"Letterink-NibData" = {
AngleInDegrees = 359.99999;
};
}),
(220,498,l,{
"Letterink-NibData" = {
AngleInDegrees = 359.99999;
};
}),
(35,255,l,{
"Letterink-NibData" = {
AngleInDegrees = 0;
};
}),
(220,13,l,{
"Letterink-NibData" = {
AngleInDegrees = 360;
};
}),
(288,65,l,{
"Letterink-NibData" = {
AngleInDegrees = 0;
};
})
);
}
);
width = 350;
}
);
note = guilsinglleft;
unicode = 8249;
userData = {
KernOnSpecialSpacing = {
L = quotes;
R = quotes;
};
};
},
{
glyphname = guilsinglright;
kernLeft = KO_guilsinglright;
kernRight = KO_guillemotright;
lastChange = "2025-10-03 15:49:50 +0000";
layers = (
{
layerId = m01;
shapes = (
{
closed = 1;
nodes = (
(213,251,l,{
"Letterink-NibData" = {
AngleInDegrees = 359.99999;
};
}),
(63,65,l,{
"Letterink-NibData" = {
AngleInDegrees = 360;
};
}),
(130,13,l,{
"Letterink-NibData" = {
AngleInDegrees = 0;
};
}),
(315,255,l,{
"Letterink-NibData" = {
AngleInDegrees = 0;
};
}),
(130,498,l,{
"Letterink-NibData" = {
AngleInDegrees = 360;
};
}),
(63,445,l,{
"Letterink-NibData" = {
AngleInDegrees = 0;
};
})
);
}
);
width = 350;
}
);
note = guilsinglright;
unicode = 8250;
userData = {
KernOnSpecialSpacing = {
L = quotes;
R = quotes;
};
};
},
{
glyphname = guillemotleft;
kernLeft = KO_guillemotleft;
kernRight = KO_guillemotleft;
lastChange = "2025-10-03 15:49:50 +0000";
layers = (
{
layerId = m01;
shapes = (
{
closed = 1;
nodes = (
(315,259,l,{
"Letterink-NibData" = {
AngleInDegrees = 360;
};
}),
(465,445,l,{
"Letterink-NibData" = {
AngleInDegrees = 0;
};
}),
(398,498,l,{
"Letterink-NibData" = {
AngleInDegrees = 359.99999;
};
}),
(213,255,l,{
"Letterink-NibData" = {
AngleInDegrees = 0;
};
}),
(398,13,l,{
"Letterink-NibData" = {
AngleInDegrees = 0;
};
}),
(465,65,l,{
"Letterink-NibData" = {
AngleInDegrees = 359.99999;
};
})
);
},
{
closed = 1;
nodes = (
(137,259,l,{
"Letterink-NibData" = {
AngleInDegrees = 360;
};
}),
(288,445,l,{
"Letterink-NibData" = {
AngleInDegrees = 359.99999;
};
}),
(220,498,l,{
"Letterink-NibData" = {
AngleInDegrees = 359.99999;
};
}),
(35,255,l,{
"Letterink-NibData" = {
AngleInDegrees = 0;
};
}),
(220,13,l,{
"Letterink-NibData" = {
AngleInDegrees = 360;
};
}),
(288,65,l,{
"Letterink-NibData" = {
AngleInDegrees = 0;
};
})
);
}
);
width = 523;
}
);
note = guillemotleft;
unicode = 171;
userData = {
KernOnSpecialSpacing = {
L = quotes;
R = quotes;
};
};
},
{
glyphname = guillemotright;
kernLeft = KO_guillemotright;
kernRight = KO_guillemotright;
lastChange = "2025-10-03 15:49:50 +0000";
layers = (
{
layerId = m01;
shapes = (
{
closed = 1;
nodes = (
(208,251,l,{
"Letterink-NibData" = {
AngleInDegrees = 359.99999;
};
}),
(58,65,l,{
"Letterink-NibData" = {
AngleInDegrees = 360;
};
}),
(125,13,l,{
"Letterink-NibData" = {
AngleInDegrees = 0;
};
}),
(310,255,l,{
"Letterink-NibData" = {
AngleInDegrees = 0;
};
}),
(125,498,l,{
"Letterink-NibData" = {
AngleInDegrees = 360;
};
}),
(58,445,l,{
"Letterink-NibData" = {
AngleInDegrees = 0;
};
})
);
},
{
closed = 1;
nodes = (
(385,251,l,{
"Letterink-NibData" = {
AngleInDegrees = 359.99999;
};
}),
(235,65,l,{
"Letterink-NibData" = {
AngleInDegrees = 0;
};
}),
(303,13,l,{
"Letterink-NibData" = {
AngleInDegrees = 0;
};
}),
(488,255,l,{
"Letterink-NibData" = {
AngleInDegrees = 0;
};
}),
(303,498,l,{
"Letterink-NibData" = {
AngleInDegrees = 360;
};
}),
(235,445,l,{
"Letterink-NibData" = {
AngleInDegrees = 0;
};
})
);
}
);
width = 523;
}
);
note = guillemotright;
unicode = 187;
userData = {
KernOnSpecialSpacing = {
L = quotes;
R = quotes;
};
};
},
{
glyphname = asterisk;
kernLeft = KO_asterisk;
kernRight = KO_asterisk;
lastChange = "2025-10-03 15:49:50 +0000";
layers = (
{
layerId = m01;
shapes = (
{
closed = 1;
nodes = (
(212,290,l,{
"Letterink-NibData" = {
AngleInDegrees = 0;
};
}),
(296,431,l,{
"Letterink-NibData" = {
AngleInDegrees = 359.99999;
};
}),
(381,290,l,{
"Letterink-NibData" = {
AngleInDegrees = 360;
};
}),
(460,347,l,{
"Letterink-NibData" = {
AngleInDegrees = 0;
};
}),
(351,471,l,{
"Letterink-NibData" = {
AngleInDegrees = 360;
};
}),
(512,508,l,{
"Letterink-NibData" = {
AngleInDegrees = 0;
};
}),
(482,601,l,{
"Letterink-NibData" = {
AngleInDegrees = 0;
};
}),
(330,536,l,{
"Letterink-NibData" = {
AngleInDegrees = 360;
};
}),
(345,700,l),
(247,700,l,{
"Letterink-NibData" = {
AngleInDegrees = 0;
};
}),
(262,536,l,{
"Letterink-NibData" = {
AngleInDegrees = 359.99999;
};
}),
(110,601,l,{
"Letterink-NibData" = {
AngleInDegrees = 360;
};
}),
(80,508,l,{
"Letterink-NibData" = {
AngleInDegrees = 0;
};
}),
(241,471,l,{
"Letterink-NibData" = {
AngleInDegrees = 0;
};
}),
(132,347,l,{
"Letterink-NibData" = {
AngleInDegrees = 360;
};
})
);
}
);
width = 592;
}
);
note = asterisk;
unicode = 42;
userData = {
KernOnSpecialSpacing = {
L = quotes;
R = quotes;
};
};
},
{
glyphname = dagger;
kernLeft = KO_dagger;
lastChange = "2025-10-03 15:49:50 +0000";
layers = (
{
layerId = m01;
shapes = (
{
closed = 1;
nodes = (
(90,540,l),
(90,445,l),
(245,445,l),
(245,-150,l),
(350,-150,l),
(350,445,l),
(505,445,l),
(505,540,l),
(350,540,l),
(350,700,l),
(245,700,l),
(245,540,l)
);
}
);
width = 595;
}
);
note = dagger;
unicode = 8224;
},
{
glyphname = daggerdbl;
lastChange = "2025-10-03 15:49:50 +0000";
layers = (
{
layerId = m01;
shapes = (
{
closed = 1;
nodes = (
(90,135,l),
(90,40,l),
(245,40,l),
(245,-150,l),
(350,-150,l),
(350,40,l),
(505,40,l),
(505,135,l),
(350,135,l),
(350,445,l),
(505,445,l),
(505,540,l),
(350,540,l),
(350,700,l),
(245,700,l),
(245,540,l),
(90,540,l),
(90,445,l),
(245,445,l),
(245,135,l)
);
}
);
width = 595;
}
);
note = daggerdbl;
unicode = 8225;
},
{
glyphname = period;
kernLeft = KO_period;
kernRight = KO_period;
lastChange = "2025-10-11 16:12:11 +0000";
layers = (
{
layerId = m01;
shapes = (
{
closed = 1;
nodes = (
(105,15,o),
(126,-8,o),
(155,-8,cs),
(183,-8,o),
(205,15,o),
(205,42,cs),
(205,70,o),
(183,92,o),
(155,92,cs),
(126,92,o),
(105,70,o),
(105,42,cs)
);
}
);
width = 309;
}
);
note = period;
unicode = 46;
userData = {
KernOnName = period;
KernOnSpecialSpacing = {
L = period;
R = period;
};
};
},
{
glyphname = comma;
kernLeft = KO_comma;
kernRight = KO_comma;
lastChange = "2025-10-11 16:30:42 +0000";
layers = (
{
hints = (
{
name = _corner.ink;
origin = (0,2);
type = Corner;
}
);
layerId = m01;
shapes = (
{
closed = 1;
nodes = (
(187,70,o),
(154,85,o),
(113,75,c,{
"Letterink-NibData" = {
AngleInDegrees = 359.99999;
};
}),
(111,30,o),
(94,-13,o),
(70,-58,cs),
(64,-70,o),
(61,-80,o),
(76,-83,cs),
(130,-94,o),
(187,-32,o),
(187,33,cs,{
"Letterink-NibData" = {
AngleInDegrees = 359.99999;
};
})
);
}
);
width = 314;
}
);
note = comma;
unicode = 44;
userData = {
KernOnSpecialSpacing = {
L = period;
R = period;
};
};
},
{
glyphname = colon;
kernLeft = KO_colon;
kernRight = KO_colon;
lastChange = "2025-10-03 15:49:50 +0000";
layers = (
{
layerId = m01;
shapes = (
{
closed = 1;
nodes = (
(84,391,o),
(115,359,o),
(155,359,cs),
(195,359,o),
(225,391,o),
(225,429,cs),
(225,467,o),
(195,499,o),
(155,499,cs),
(115,499,o),
(84,467,o),
(84,429,cs)
);
},
{
closed = 1;
nodes = (
(84,13,o),
(115,-19,o),
(155,-19,cs),
(195,-19,o),
(225,13,o),
(225,51,cs),
(225,90,o),
(195,121,o),
(155,121,cs),
(115,121,o),
(84,90,o),
(84,51,cs)
);
}
);
width = 309;
}
);
note = colon;
unicode = 58;
userData = {
KernOnSpecialSpacing = {
L = "spaced-off";
R = "spaced-off";
};
};
},
{
glyphname = semicolon;
kernLeft = KO_semicolon;
kernRight = KO_semicolon;
lastChange = "2025-10-03 15:49:50 +0000";
layers = (
{
layerId = m01;
shapes = (
{
closed = 1;
nodes = (
(123,388,o),
(153,356,o),
(193,356,cs),
(233,356,o),
(264,388,o),
(264,426,cs),
(264,465,o),
(233,496,o),
(193,496,cs),
(153,496,o),
(123,465,o),
(123,426,cs)
);
},
{
closed = 1;
nodes = (
(146,110,l,{
"Letterink-NibData" = {
AngleInDegrees = 360;
};
}),
(58,-149,l,{
"Letterink-NibData" = {
AngleInDegrees = 360;
};
}),
(138,-171,l,{
"Letterink-NibData" = {
AngleInDegrees = 0;
};
}),
(254,79,l,{
"Letterink-NibData" = {
AngleInDegrees = 0;
};
})
);
}
);
width = 355;
}
);
note = semicolon;
unicode = 59;
userData = {
KernOnSpecialSpacing = {
L = "spaced-off";
R = "spaced-off";
};
};
},
{
glyphname = ellipsis;
kernLeft = KO_ellipsis;
kernRight = KO_ellipsis;
lastChange = "2025-10-03 15:49:50 +0000";
layers = (
{
layerId = m01;
shapes = (
{
closed = 1;
nodes = (
(84,13,o),
(115,-19,o),
(155,-19,cs),
(195,-19,o),
(225,13,o),
(225,51,cs),
(225,90,o),
(195,121,o),
(155,121,cs),
(115,121,o),
(84,90,o),
(84,51,cs)
);
},
{
closed = 1;
nodes = (
(384,13,o),
(415,-19,o),
(455,-19,cs),
(495,-19,o),
(525,13,o),
(525,51,cs),
(525,90,o),
(495,121,o),
(455,121,cs),
(415,121,o),
(384,90,o),
(384,51,cs)
);
},
{
closed = 1;
nodes = (
(684,13,o),
(715,-19,o),
(755,-19,cs),
(795,-19,o),
(825,13,o),
(825,51,cs),
(825,90,o),
(795,121,o),
(755,121,cs),
(715,121,o),
(684,90,o),
(684,51,cs)
);
}
);
width = 910;
}
);
note = ellipsis;
unicode = 8230;
},
{
glyphname = exclam;
kernLeft = KO_exclam;
kernRight = KO_exclam;
lastChange = "2025-10-03 15:49:50 +0000";
layers = (
{
layerId = m01;
shapes = (
{
closed = 1;
nodes = (
(91,700,l,{
"Letterink-NibData" = {
AngleInDegrees = 0;
};
}),
(116,213,l),
(201,213,l,{
"Letterink-NibData" = {
AngleInDegrees = 360;
};
}),
(226,700,l)
);
},
{
closed = 1;
nodes = (
(88,11,o),
(119,-19,o),
(159,-19,cs),
(199,-19,o),
(230,11,o),
(230,49,cs),
(230,87,o),
(199,116,o),
(159,116,cs),
(119,116,o),
(88,87,o),
(88,49,cs)
);
}
);
width = 318;
}
);
note = exclam;
unicode = 33;
userData = {
KernOnSpecialSpacing = {
L = "spaced-off";
};
};
},
{
glyphname = exclamdown;
kernRight = KO_exclamdown;
lastChange = "2025-10-03 15:49:50 +0000";
layers = (
{
layerId = m01;
shapes = (
{
closed = 1;
nodes = (
(230,451,o),
(199,480,o),
(159,480,cs),
(119,480,o),
(88,451,o),
(88,413,cs),
(88,374,o),
(119,345,o),
(159,345,cs),
(199,345,o),
(230,374,o),
(230,413,cs)
);
},
{
closed = 1;
nodes = (
(226,-239,l,{
"Letterink-NibData" = {
AngleInDegrees = 359.99999;
};
}),
(201,249,l),
(116,249,l,{
"Letterink-NibData" = {
AngleInDegrees = 359.99999;
};
}),
(91,-239,l)
);
}
);
width = 318;
}
);
note = exclamdown;
unicode = 161;
userData = {
KernOnSpecialSpacing = {
R = "spaced-off";
};
};
},
{
glyphname = question;
kernLeft = KO_question;
kernRight = KO_question;
lastChange = "2025-10-03 15:49:50 +0000";
layers = (
{
layerId = m01;
shapes = (
{
closed = 1;
nodes = (
(418,434,o),
(352,359,o),
(232,359,cs),
(204,359,l,{
"Letterink-NibData" = {
AngleInDegrees = 360;
};
}),
(224,183,l),
(309,183,l,{
"Letterink-NibData" = {
AngleInDegrees = 0;
};
}),
(315,288,l,{
"Letterink-NibData" = {
AngleInDegrees = 360;
};
}),
(424,299,o),
(528,382,o),
(528,500,cs),
(528,627,o),
(422,714,o),
(295,714,cs),
(176,714,o),
(111,667,o),
(55,592,c,{
"Letterink-NibData" = {
AngleInDegrees = 0;
};
}),
(135,533,l,{
"Letterink-NibData" = {
AngleInDegrees = 360;
};
}),
(169,586,o),
(220,618,o),
(285,618,cs),
(367,618,o),
(418,575,o),
(418,500,cs)
);
},
{
closed = 1;
nodes = (
(197,12,o),
(228,-19,o),
(268,-19,cs),
(308,-19,o),
(338,12,o),
(338,48,cs),
(338,83,o),
(308,114,o),
(268,114,cs),
(228,114,o),
(197,83,o),
(197,48,cs)
);
}
);
width = 585;
}
);
note = question;
unicode = 63;
userData = {
KernOnSpecialSpacing = {
L = "spaced-off";
};
};
},
{
glyphname = questiondown;
kernRight = KO_questiondown;
lastChange = "2025-10-03 15:49:50 +0000";
layers = (
{
layerId = m01;
shapes = (
{
closed = 1;
nodes = (
(388,688,o),
(358,719,o),
(318,719,cs),
(278,719,o),
(247,688,o),
(247,653,cs),
(247,617,o),
(278,586,o),
(318,586,cs),
(358,586,o),
(388,617,o),
(388,653,cs)
);
},
{
closed = 1;
nodes = (
(167,266,o),
(233,341,o),
(353,341,cs),
(382,341,l,{
"Letterink-NibData" = {
AngleInDegrees = 0;
};
}),
(362,518,l),
(277,518,l,{
"Letterink-NibData" = {
AngleInDegrees = 360;
};
}),
(270,412,l,{
"Letterink-NibData" = {
AngleInDegrees = 360;
};
}),
(161,401,o),
(58,318,o),
(58,200,cs),
(58,74,o),
(163,-14,o),
(291,-14,cs),
(410,-14,o),
(474,34,o),
(530,109,c,{
"Letterink-NibData" = {
AngleInDegrees = 360;
};
}),
(450,167,l,{
"Letterink-NibData" = {
AngleInDegrees = 0;
};
}),
(417,115,o),
(365,83,o),
(301,83,cs),
(218,83,o),
(167,125,o),
(167,200,cs)
);
}
);
width = 585;
}
);
note = questiondown;
unicode = 191;
userData = {
KernOnSpecialSpacing = {
R = "spaced-off";
};
};
},
{
glyphname = slash;
kernLeft = KO_slash;
kernRight = KO_slash;
lastChange = "2025-10-03 15:49:50 +0000";
layers = (
{
layerId = m01;
shapes = (
{
closed = 1;
nodes = (
(431,700,l,{
"Letterink-NibData" = {
AngleInDegrees = 359.99999;
};
}),
(15,-150,l),
(124,-150,l,{
"Letterink-NibData" = {
AngleInDegrees = 0;
};
}),
(538,700,l)
);
}
);
width = 553;
}
);
note = slash;
unicode = 47;
userData = {
KernOnSpecialSpacing = {
L = slash;
R = slash;
};
};
},
{
glyphname = backslash;
kernLeft = KO_backslash;
kernRight = KO_backslash;
lastChange = "2025-10-03 15:49:50 +0000";
layers = (
{
layerId = m01;
shapes = (
{
closed = 1;
nodes = (
(15,700,l,{
"Letterink-NibData" = {
AngleInDegrees = 0;
};
}),
(403,0,l),
(513,0,l,{
"Letterink-NibData" = {
AngleInDegrees = 359.99999;
};
}),
(125,700,l)
);
}
);
width = 528;
}
);
note = backslash;
unicode = 92;
userData = {
KernOnSpecialSpacing = {
L = "spaced-off";
R = "spaced-off";
};
};
},
{
glyphname = fraction;
lastChange = "2025-10-03 15:49:50 +0000";
layers = (
{
layerId = m01;
shapes = (
{
closed = 1;
nodes = (
(580,700,l,{
"Letterink-NibData" = {
AngleInDegrees = 359.99999;
};
}),
(60,0,l),
(148,0,l,{
"Letterink-NibData" = {
AngleInDegrees = 360;
};
}),
(668,700,l)
);
}
);
width = 715;
}
);
note = fraction;
unicode = 8260;
userData = {
KernOnSpecialSpacing = {
L = fraction;
R = fraction;
};
};
},
{
glyphname = bar;
lastChange = "2025-10-03 15:49:50 +0000";
layers = (
{
layerId = m01;
shapes = (
{
closed = 1;
nodes = (
(100,785,l),
(100,-215,l),
(206,-215,l),
(206,785,l)
);
}
);
width = 306;
}
);
note = bar;
unicode = 124;
userData = {
KernOnSpecialSpacing = {
L = NoKerning;
R = NoKerning;
};
};
},
{
glyphname = brokenbar;
lastChange = "2025-10-03 15:49:50 +0000";
layers = (
{
layerId = m01;
shapes = (
{
closed = 1;
nodes = (
(100,695,l),
(100,445,l),
(206,445,l),
(206,695,l)
);
},
{
closed = 1;
nodes = (
(206,255,l),
(100,255,l),
(100,5,l),
(206,5,l)
);
}
);
width = 306;
}
);
note = brokenbar;
unicode = 166;
},
{
glyphname = at;
kernLeft = KO_at;
kernRight = KO_at;
lastChange = "2025-10-03 15:49:50 +0000";
layers = (
{
layerId = m01;
shapes = (
{
closed = 1;
nodes = (
(29,121,o),
(146,-16,o),
(365,-16,cs),
(474,-16,o),
(540,6,o),
(600,41,c,{
"Letterink-NibData" = {
AngleInDegrees = 359.99999;
};
}),
(565,112,l,{
"Letterink-NibData" = {
AngleInDegrees = 0;
};
}),
(502,75,o),
(440,63,o),
(370,63,cs),
(210,63,o),
(115,162,o),
(115,320,cs),
(115,501,o),
(232,636,o),
(415,636,cs),
(576,636,o),
(655,521,o),
(655,390,cs),
(655,267,o),
(596,226,o),
(569,226,cs),
(541,226,o),
(535,246,o),
(535,270,cs),
(535,278,o),
(536,290,o),
(537,297,cs,{
"Letterink-NibData" = {
AngleInDegrees = 360;
};
}),
(572,520,l),
(480,520,l,{
"Letterink-NibData" = {
AngleInDegrees = 360;
};
}),
(473,463,l,{
"Letterink-NibData" = {
AngleInDegrees = 0;
};
}),
(452,502,o),
(418,530,o),
(371,530,cs),
(288,530,o),
(193,454,o),
(193,315,cs),
(193,216,o),
(252,158,o),
(328,158,cs),
(381,158,o),
(428,183,o),
(459,231,c,{
"Letterink-NibData" = {
AngleInDegrees = 360;
};
}),
(467,183,o),
(506,148,o),
(557,148,cs),
(640,148,o),
(741,213,o),
(741,390,cs),
(741,552,o),
(629,715,o),
(415,715,cs),
(189,715,o),
(29,542,o),
(29,320,cs)
);
},
{
closed = 1;
nodes = (
(286,396,o),
(333,449,o),
(382,449,cs),
(423,449,o),
(453,420,o),
(453,368,cs),
(453,277,o),
(397,239,o),
(353,239,cs),
(309,239,o),
(286,269,o),
(286,320,cs)
);
}
);
width = 770;
}
);
note = at;
unicode = 64;
userData = {
KernOnSpecialSpacing = {
L = symbols;
R = symbols;
};
};
},
{
glyphname = ampersand;
kernLeft = KO_ampersand;
kernRight = KO_ampersand;
lastChange = "2025-10-09 08:02:49 +0000";
layers = (
{
hints = (
{
name = _corner.ink;
origin = (2,27);
type = Corner;
},
{
name = _corner.ink;
options = 2;
origin = (2,28);
scale = (-1,1);
type = Corner;
},
{
name = _corner.ink;
options = 2;
origin = (0,3);
scale = (-1,1);
type = Corner;
},
{
name = _corner.ink;
origin = (0,4);
type = Corner;
}
);
layerId = m01;
shapes = (
{
closed = 1;
nodes = (
(509,89,l),
(547,124,o),
(579,166,o),
(608,206,c,{
"Letterink-NibData" = {
AngleInDegrees = 0;
};
}),
(548,248,l,{
"Letterink-NibData" = {
AngleInDegrees = 0;
};
}),
(522,210,o),
(493,173,o),
(462,143,c,{
"Letterink-NibData" = {
AngleInDegrees = 359.99999;
};
})
);
},
{
closed = 1;
nodes = (
(432,117,l,{
"Letterink-NibData" = {
AngleInDegrees = 0;
};
}),
(391,83,o),
(348,62,o),
(302,62,cs),
(245,62,o),
(203,97,o),
(203,146,cs),
(203,204,o),
(257,235,o),
(307,253,c,{
"Letterink-NibData" = {
AngleInDegrees = 0;
};
}),
(259,304,l),
(200,277,o),
(115,237,o),
(115,140,cs),
(115,46,o),
(199,-11,o),
(294,-11,cs),
(367,-11,o),
(427,18,o),
(479,61,c,{
"Letterink-NibData" = {
AngleInDegrees = 0;
};
})
);
},
{
closed = 1;
nodes = (
(346,296,l,{
"Letterink-NibData" = {
AngleInDegrees = 360;
};
}),
(328,317,l),
(293,355,o),
(261,385,o),
(261,418,cs),
(261,452,o),
(282,476,o),
(322,476,cs),
(359,476,o),
(382,450,o),
(382,417,cs),
(382,385,o),
(349,351,o),
(295,320,c,{
"Letterink-NibData" = {
AngleInDegrees = 360;
};
}),
(339,272,l),
(417,321,o),
(461,361,o),
(461,422,cs),
(461,486,o),
(411,546,o),
(322,546,cs),
(235,546,o),
(177,491,o),
(177,421,cs),
(177,357,o),
(229,307,o),
(256,277,cs,{
"Letterink-NibData" = {
AngleInDegrees = 0;
};
}),
(505,-3,l),
(612,-3,l,{
"Letterink-NibData" = {
AngleInDegrees = 0;
};
})
);
}
);
width = 706;
}
);
note = ampersand;
unicode = 38;
userData = {
KernOnSpecialSpacing = {
L = symbols;
R = symbols;
};
};
},
{
glyphname = section;
lastChange = "2025-10-03 15:49:50 +0000";
layers = (
{
layerId = m01;
shapes = (
{
closed = 1;
nodes = (
(40,104,l,{
"Letterink-NibData" = {
AngleInDegrees = 0;
};
}),
(67,37,o),
(145,-15,o),
(240,-15,cs),
(339,-15,o),
(421,29,o),
(421,130,cs),
(421,187,o),
(382,225,o),
(334,251,c,{
"Letterink-NibData" = {
AngleInDegrees = 360;
};
}),
(385,271,o),
(419,309,o),
(419,373,cs),
(419,443,o),
(358,487,o),
(288,511,cs,{
"Letterink-NibData" = {
AngleInDegrees = 0;
};
}),
(236,530,o),
(181,549,o),
(181,581,cs),
(181,607,o),
(206,620,o),
(243,620,cs),
(278,620,o),
(323,602,o),
(346,567,c,{
"Letterink-NibData" = {
AngleInDegrees = 360;
};
}),
(413,631,l,{
"Letterink-NibData" = {
AngleInDegrees = 0;
};
}),
(391,678,o),
(315,716,o),
(239,716,cs),
(159,716,o),
(75,669,o),
(75,585,cs),
(75,523,o),
(115,489,o),
(161,466,c,{
"Letterink-NibData" = {
AngleInDegrees = 0;
};
}),
(104,446,o),
(69,406,o),
(69,349,cs),
(69,272,o),
(141,230,o),
(209,207,cs,{
"Letterink-NibData" = {
AngleInDegrees = 360;
};
}),
(263,188,o),
(310,171,o),
(310,129,cs),
(310,96,o),
(285,80,o),
(240,80,cs),
(191,80,o),
(136,113,o),
(109,166,c,{
"Letterink-NibData" = {
AngleInDegrees = 0;
};
})
);
},
{
closed = 1;
nodes = (
(174,401,o),
(194,422,o),
(228,437,c,{
"Letterink-NibData" = {
AngleInDegrees = 360;
};
}),
(273,420,o),
(314,399,o),
(314,356,cs),
(314,326,o),
(294,296,o),
(265,282,c,{
"Letterink-NibData" = {
AngleInDegrees = 359.99999;
};
}),
(221,298,o),
(174,317,o),
(174,369,cs)
);
}
);
width = 476;
}
);
note = section;
unicode = 167;
userData = {
KernOnSpecialSpacing = {
R = symbols;
};
};
},
{
glyphname = paragraph;
lastChange = "2025-10-03 15:49:50 +0000";
layers = (
{
layerId = m01;
shapes = (
{
closed = 1;
nodes = (
(288,-220,l),
(383,-220,l),
(383,624,l),
(461,624,l),
(461,-220,l),
(556,-220,l),
(556,700,l),
(288,700,ls),
(163,700,o),
(60,624,o),
(60,485,cs),
(60,346,o),
(163,270,o),
(288,270,c)
);
}
);
width = 616;
}
);
note = paragraph;
unicode = 182;
userData = {
KernOnSpecialSpacing = {
L = NoKerning;
R = NoKerning;
};
};
},
{
glyphname = periodcentered;
lastChange = "2025-10-03 15:49:50 +0000";
layers = (
{
layerId = m01;
shapes = (
{
closed = 1;
nodes = (
(84,213,o),
(115,181,o),
(155,181,cs),
(195,181,o),
(225,213,o),
(225,251,cs),
(225,290,o),
(195,321,o),
(155,321,cs),
(115,321,o),
(84,290,o),
(84,251,cs)
);
}
);
width = 309;
}
);
note = periodcentered;
unicode = 183;
userData = {
KernOnSpecialSpacing = {
L = NoKerning;
R = NoKerning;
};
};
},
{
glyphname = bullet;
lastChange = "2025-10-03 15:49:50 +0000";
layers = (
{
layerId = m01;
shapes = (
{
closed = 1;
nodes = (
(84,388,o),
(115,356,o),
(155,356,cs),
(195,356,o),
(225,388,o),
(225,426,cs),
(225,465,o),
(195,496,o),
(155,496,cs),
(115,496,o),
(84,465,o),
(84,426,cs)
);
}
);
width = 300;
}
);
note = bullet;
unicode = 8226;
userData = {
KernOnSpecialSpacing = {
L = NoKerning;
R = NoKerning;
};
};
},
{
glyphname = uni203D;
kernLeft = KO_uni203D;
kernRight = KO_question;
lastChange = "2025-10-03 15:49:50 +0000";
layers = (
{
layerId = m01;
shapes = (
{
closed = 1;
nodes = (
(206,508,l,{
"Letterink-NibData" = {
AngleInDegrees = 360;
};
}),
(229,183,l),
(301,183,l,{
"Letterink-NibData" = {
AngleInDegrees = 0;
};
}),
(309,286,l,{
"Letterink-NibData" = {
AngleInDegrees = 0;
};
}),
(416,298,o),
(528,379,o),
(528,500,cs),
(528,627,o),
(422,713,o),
(294,713,cs),
(173,713,o),
(101,662,o),
(55,592,c,{
"Letterink-NibData" = {
AngleInDegrees = 0;
};
}),
(135,533,l,{
"Letterink-NibData" = {
AngleInDegrees = 360;
};
}),
(166,588,o),
(217,618,o),
(282,618,cs),
(368,618,o),
(423,574,o),
(423,493,cs),
(423,435,o),
(380,380,o),
(314,357,c,{
"Letterink-NibData" = {
AngleInDegrees = 360;
};
}),
(324,508,l)
);
},
{
closed = 1;
nodes = (
(196,11,o),
(228,-19,o),
(268,-19,cs),
(308,-19,o),
(339,11,o),
(339,49,cs),
(339,86,o),
(308,116,o),
(268,116,cs),
(228,116,o),
(196,86,o),
(196,49,cs)
);
}
);
width = 585;
}
);
note = uni203D;
unicode = 8253;
userData = {
KernOnSpecialSpacing = {
L = "spaced-off";
};
};
},
{
glyphname = plus;
kernLeft = KO_plus;
kernRight = KO_plus;
lastChange = "2025-10-03 15:49:50 +0000";
layers = (
{
layerId = m01;
shapes = (
{
closed = 1;
nodes = (
(65,208,l),
(263,208,l),
(263,5,l),
(376,5,l),
(376,208,l),
(574,208,l),
(574,314,l),
(376,314,l),
(376,516,l),
(263,516,l),
(263,314,l),
(65,314,l)
);
}
);
width = 639;
}
);
note = plus;
unicode = 43;
userData = {
KernOnSpecialSpacing = {
L = math;
R = math;
};
};
},
{
glyphname = minus;
kernLeft = KO_less;
kernRight = KO_plus;
lastChange = "2025-10-03 15:49:50 +0000";
layers = (
{
layerId = m01;
shapes = (
{
closed = 1;
nodes = (
(65,189,l),
(526,189,l),
(526,286,l),
(65,286,l)
);
}
);
width = 591;
}
);
note = minus;
unicode = 8722;
userData = {
KernOnSpecialSpacing = {
L = math;
R = math;
};
};
},
{
glyphname = plusminus;
lastChange = "2025-10-03 15:49:50 +0000";
layers = (
{
layerId = m01;
shapes = (
{
closed = 1;
nodes = (
(65,340,l),
(255,340,l),
(255,163,l),
(368,163,l),
(368,340,l),
(558,340,l),
(558,443,l),
(368,443,l),
(368,620,l),
(255,620,l),
(255,443,l),
(65,443,l)
);
},
{
closed = 1;
nodes = (
(65,3,l),
(558,3,l),
(558,103,l),
(65,103,l)
);
}
);
width = 623;
}
);
note = plusminus;
unicode = 177;
userData = {
KernOnSpecialSpacing = {
L = math;
R = math;
};
};
},
{
glyphname = divide;
lastChange = "2025-10-03 15:49:50 +0000";
layers = (
{
layerId = m01;
shapes = (
{
closed = 1;
nodes = (
(243,453,o),
(274,421,o),
(314,421,cs),
(354,421,o),
(385,453,o),
(385,491,cs),
(385,530,o),
(354,561,o),
(314,561,cs),
(274,561,o),
(243,530,o),
(243,491,cs)
);
},
{
closed = 1;
nodes = (
(46,239,l),
(581,239,l),
(581,341,l),
(46,341,l)
);
},
{
closed = 1;
nodes = (
(243,43,o),
(274,11,o),
(314,11,cs),
(354,11,o),
(385,43,o),
(385,81,cs),
(385,120,o),
(354,151,o),
(314,151,cs),
(274,151,o),
(243,120,o),
(243,81,cs)
);
}
);
width = 630;
}
);
note = divide;
unicode = 247;
userData = {
KernOnSpecialSpacing = {
L = math;
R = math;
};
};
},
{
glyphname = multiply;
lastChange = "2025-10-03 15:49:50 +0000";
layers = (
{
layerId = m01;
shapes = (
{
closed = 1;
nodes = (
(129,15,l,{
"Letterink-NibData" = {
AngleInDegrees = 0;
};
}),
(298,189,l,{
"Letterink-NibData" = {
AngleInDegrees = 360;
};
}),
(468,15,l,{
"Letterink-NibData" = {
AngleInDegrees = 0;
};
}),
(539,86,l,{
"Letterink-NibData" = {
AngleInDegrees = 0;
};
}),
(364,255,l,{
"Letterink-NibData" = {
AngleInDegrees = 0;
};
}),
(539,425,l,{
"Letterink-NibData" = {
AngleInDegrees = 360;
};
}),
(468,496,l,{
"Letterink-NibData" = {
AngleInDegrees = 359.99999;
};
}),
(298,321,l,{
"Letterink-NibData" = {
AngleInDegrees = 360;
};
}),
(129,496,l,{
"Letterink-NibData" = {
AngleInDegrees = 0;
};
}),
(58,425,l,{
"Letterink-NibData" = {
AngleInDegrees = 0;
};
}),
(232,255,l,{
"Letterink-NibData" = {
AngleInDegrees = 0;
};
}),
(58,86,l,{
"Letterink-NibData" = {
AngleInDegrees = 360;
};
})
);
}
);
width = 596;
}
);
note = multiply;
unicode = 215;
userData = {
KernOnSpecialSpacing = {
L = math;
R = math;
};
};
},
{
glyphname = equal;
kernLeft = KO_equal;
kernRight = KO_equal;
lastChange = "2025-10-03 15:49:50 +0000";
layers = (
{
layerId = m01;
shapes = (
{
closed = 1;
nodes = (
(61,290,l),
(558,290,l),
(558,388,l),
(61,388,l)
);
},
{
closed = 1;
nodes = (
(61,118,l),
(558,118,l),
(558,215,l),
(61,215,l)
);
}
);
width = 620;
}
);
note = equal;
unicode = 61;
userData = {
KernOnSpecialSpacing = {
L = math;
R = math;
};
};
},
{
glyphname = less;
kernLeft = KO_less;
kernRight = KO_less;
lastChange = "2025-10-03 15:49:50 +0000";
layers = (
{
layerId = m01;
shapes = (
{
closed = 1;
nodes = (
(231,264,l,{
"Letterink-NibData" = {
AngleInDegrees = 360;
};
}),
(575,404,l),
(575,511,l,{
"Letterink-NibData" = {
AngleInDegrees = 0;
};
}),
(65,294,l),
(65,226,l,{
"Letterink-NibData" = {
AngleInDegrees = 0;
};
}),
(575,9,l),
(575,116,l,{
"Letterink-NibData" = {
AngleInDegrees = 0;
};
})
);
}
);
width = 640;
}
);
note = less;
unicode = 60;
userData = {
KernOnSpecialSpacing = {
L = math;
R = math;
};
};
},
{
glyphname = greater;
kernLeft = KO_greater;
kernRight = KO_plus;
lastChange = "2025-10-03 15:49:50 +0000";
layers = (
{
layerId = m01;
shapes = (
{
closed = 1;
nodes = (
(410,256,l,{
"Letterink-NibData" = {
AngleInDegrees = 360;
};
}),
(65,116,l),
(65,9,l,{
"Letterink-NibData" = {
AngleInDegrees = 360;
};
}),
(575,226,l),
(575,294,l,{
"Letterink-NibData" = {
AngleInDegrees = 0;
};
}),
(65,511,l),
(65,404,l,{
"Letterink-NibData" = {
AngleInDegrees = 360;
};
})
);
}
);
width = 640;
}
);
note = greater;
unicode = 62;
userData = {
KernOnSpecialSpacing = {
L = math;
R = math;
};
};
},
{
glyphname = lessequal;
lastChange = "2025-10-03 15:49:50 +0000";
layers = (
{
layerId = m01;
shapes = (
{
closed = 1;
nodes = (
(556,134,l),
(556,241,l,{
"Letterink-NibData" = {
AngleInDegrees = 0;
};
}),
(212,389,l,{
"Letterink-NibData" = {
AngleInDegrees = 360;
};
}),
(556,529,l),
(556,636,l,{
"Letterink-NibData" = {
AngleInDegrees = 0;
};
}),
(46,419,l),
(46,351,l,{
"Letterink-NibData" = {
AngleInDegrees = 0;
};
})
);
},
{
closed = 1;
nodes = (
(46,3,l),
(558,3,l),
(558,103,l),
(46,103,l)
);
}
);
width = 600;
}
);
note = lessequal;
unicode = 8804;
},
{
glyphname = greaterequal;
lastChange = "2025-10-03 15:49:50 +0000";
layers = (
{
layerId = m01;
shapes = (
{
closed = 1;
nodes = (
(65,134,l,{
"Letterink-NibData" = {
AngleInDegrees = 360;
};
}),
(575,351,l),
(575,419,l,{
"Letterink-NibData" = {
AngleInDegrees = 0;
};
}),
(65,636,l),
(65,529,l,{
"Letterink-NibData" = {
AngleInDegrees = 360;
};
}),
(410,381,l,{
"Letterink-NibData" = {
AngleInDegrees = 360;
};
}),
(65,241,l)
);
},
{
closed = 1;
nodes = (
(65,3,l),
(576,3,l),
(576,103,l),
(65,103,l)
);
}
);
width = 600;
}
);
note = greaterequal;
unicode = 8805;
},
{
glyphname = approxequal;
lastChange = "2025-10-03 15:49:50 +0000";
layers = (
{
layerId = m01;
shapes = (
{
closed = 1;
nodes = (
(480,352,o),
(539,428,o),
(519,511,c,{
"Letterink-NibData" = {
AngleInDegrees = 0;
};
}),
(423,516,l,{
"Letterink-NibData" = {
AngleInDegrees = 360;
};
}),
(439,474,o),
(426,441,o),
(393,441,cs),
(374,441,o),
(349,451,o),
(318,474,cs,{
"Letterink-NibData" = {
AngleInDegrees = 360;
};
}),
(273,506,o),
(230,522,o),
(192,522,cs),
(102,522,o),
(33,441,o),
(56,364,c,{
"Letterink-NibData" = {
AngleInDegrees = 360;
};
}),
(148,359,l,{
"Letterink-NibData" = {
AngleInDegrees = 359.99999;
};
}),
(132,405,o),
(150,436,o),
(191,436,cs),
(218,436,o),
(244,425,o),
(278,401,cs,{
"Letterink-NibData" = {
AngleInDegrees = 360;
};
}),
(322,368,o),
(363,352,o),
(399,352,cs)
);
},
{
closed = 1;
nodes = (
(480,102,o),
(539,178,o),
(519,261,c,{
"Letterink-NibData" = {
AngleInDegrees = 0;
};
}),
(423,266,l,{
"Letterink-NibData" = {
AngleInDegrees = 360;
};
}),
(439,224,o),
(426,191,o),
(393,191,cs),
(374,191,o),
(349,201,o),
(318,224,cs,{
"Letterink-NibData" = {
AngleInDegrees = 360;
};
}),
(273,256,o),
(230,272,o),
(192,272,cs),
(102,272,o),
(33,191,o),
(56,114,c,{
"Letterink-NibData" = {
AngleInDegrees = 360;
};
}),
(148,109,l,{
"Letterink-NibData" = {
AngleInDegrees = 359.99999;
};
}),
(132,155,o),
(150,186,o),
(191,186,cs),
(218,186,o),
(244,175,o),
(278,151,cs,{
"Letterink-NibData" = {
AngleInDegrees = 360;
};
}),
(322,118,o),
(363,102,o),
(399,102,cs)
);
}
);
width = 600;
}
);
note = approxequal;
unicode = 8776;
userData = {
KernOnSpecialSpacing = {
L = math;
R = math;
};
};
},
{
glyphname = notequal;
lastChange = "2025-10-03 15:49:50 +0000";
layers = (
{
layerId = m01;
shapes = (
{
closed = 1;
nodes = (
(61,125,l),
(180,125,l,{
"Letterink-NibData" = {
AngleInDegrees = 0;
};
}),
(146,62,l,{
"Letterink-NibData" = {
AngleInDegrees = 360;
};
}),
(234,19,l,{
"Letterink-NibData" = {
AngleInDegrees = 360;
};
}),
(290,125,l),
(558,125,l),
(558,223,l),
(341,223,l,{
"Letterink-NibData" = {
AngleInDegrees = 0;
};
}),
(381,298,l),
(558,298,l),
(558,395,l),
(433,395,l,{
"Letterink-NibData" = {
AngleInDegrees = 360;
};
}),
(473,472,l,{
"Letterink-NibData" = {
AngleInDegrees = 359.99999;
};
}),
(386,514,l,{
"Letterink-NibData" = {
AngleInDegrees = 359.99999;
};
}),
(323,395,l),
(61,395,l),
(61,298,l),
(271,298,l,{
"Letterink-NibData" = {
AngleInDegrees = 359.99999;
};
}),
(231,223,l),
(61,223,l)
);
}
);
width = 600;
}
);
note = notequal;
unicode = 8800;
},
{
glyphname = logicalnot;
kernLeft = KO_logicalnot;
kernRight = KO_logicalnot;
lastChange = "2025-10-03 15:49:50 +0000";
layers = (
{
layerId = m01;
shapes = (
{
closed = 1;
nodes = (
(65,289,l),
(480,289,l),
(480,175,l),
(567,175,l),
(567,386,l),
(65,386,l)
);
}
);
width = 632;
}
);
note = logicalnot;
unicode = 172;
},
{
glyphname = partialdiff;
lastChange = "2025-10-03 15:49:50 +0000";
layers = (
{
layerId = m01;
shapes = (
{
closed = 1;
nodes = (
(431,-12,o),
(535,92,o),
(535,236,cs),
(535,375,o),
(437,533,o),
(222,739,c,{
"Letterink-NibData" = {
AngleInDegrees = 0;
};
}),
(148,676,l,{
"Letterink-NibData" = {
AngleInDegrees = 0;
};
}),
(248,592,o),
(322,513,o),
(375,428,c,{
"Letterink-NibData" = {
AngleInDegrees = 359.99999;
};
}),
(333,452,o),
(290,463,o),
(247,463,cs,{
"Letterink-NibData" = {
AngleInDegrees = 0;
};
}),
(125,464,o),
(39,369,o),
(39,236,cs),
(39,91,o),
(142,-12,o),
(286,-12,cs)
);
},
{
closed = 1;
nodes = (
(206,87,o),
(150,147,o),
(150,230,cs),
(150,314,o),
(208,375,o),
(287,375,cs),
(366,375,o),
(424,314,o),
(424,230,cs),
(424,147,o),
(367,87,o),
(287,87,cs)
);
}
);
width = 574;
}
);
note = partialdiff;
unicode = 8706;
},
{
glyphname = emptyset;
lastChange = "2025-10-03 15:49:50 +0000";
layers = (
{
layerId = m01;
shapes = (
{
closed = 1;
nodes = (
(127,27,l,{
"Letterink-NibData" = {
AngleInDegrees = 0;
};
}),
(169,69,l,{
"Letterink-NibData" = {
AngleInDegrees = 360;
};
}),
(205,42,o),
(251,25,o),
(300,25,cs,{
"Letterink-NibData" = {
AngleInDegrees = 360;
};
}),
(419,26,o),
(516,123,o),
(516,242,cs),
(516,291,o),
(500,336,o),
(473,372,c,{
"Letterink-NibData" = {
AngleInDegrees = 0;
};
}),
(517,415,l,{
"Letterink-NibData" = {
AngleInDegrees = 0;
};
}),
(473,458,l,{
"Letterink-NibData" = {
AngleInDegrees = 0;
};
}),
(430,415,l,{
"Letterink-NibData" = {
AngleInDegrees = 359.99999;
};
}),
(394,443,o),
(348,459,o),
(300,459,cs),
(180,459,o),
(83,362,o),
(83,242,cs),
(83,194,o),
(99,149,o),
(126,112,c,{
"Letterink-NibData" = {
AngleInDegrees = 0;
};
}),
(83,70,l,{
"Letterink-NibData" = {
AngleInDegrees = 0;
};
})
);
},
{
closed = 1;
nodes = (
(160,320,o),
(222,382,o),
(300,382,cs),
(327,382,o),
(353,374,o),
(375,360,c,{
"Letterink-NibData" = {
AngleInDegrees = 0;
};
}),
(182,167,l,{
"Letterink-NibData" = {
AngleInDegrees = 0;
};
}),
(168,189,o),
(160,215,o),
(160,242,cs)
);
},
{
closed = 1;
nodes = (
(272,103,o),
(246,111,o),
(224,124,c,{
"Letterink-NibData" = {
AngleInDegrees = 360;
};
}),
(418,317,l,{
"Letterink-NibData" = {
AngleInDegrees = 0;
};
}),
(432,295,o),
(440,270,o),
(440,242,cs),
(440,169,o),
(378,103,o),
(300,103,cs)
);
}
);
width = 600;
}
);
note = emptyset;
unicode = 8709;
},
{
glyphname = product;
lastChange = "2025-10-03 15:49:50 +0000";
layers = (
{
layerId = m01;
shapes = (
{
closed = 1;
nodes = (
(147,0,l),
(245,0,l),
(245,611,l),
(355,611,l),
(355,0,l),
(453,0,l),
(453,611,l),
(535,611,l),
(535,700,l),
(66,700,l),
(66,611,l),
(147,611,l)
);
}
);
width = 600;
}
);
note = product;
unicode = 8719;
},
{
glyphname = summation;
lastChange = "2025-10-03 15:49:50 +0000";
layers = (
{
layerId = m01;
shapes = (
{
closed = 1;
nodes = (
(100,0,l),
(500,0,l),
(500,93,l),
(251,93,l,{
"Letterink-NibData" = {
AngleInDegrees = 0;
};
}),
(375,352,l,{
"Letterink-NibData" = {
AngleInDegrees = 0;
};
}),
(251,607,l),
(500,607,l),
(500,700,l),
(100,700,l,{
"Letterink-NibData" = {
AngleInDegrees = 360;
};
}),
(270,352,l,{
"Letterink-NibData" = {
AngleInDegrees = 360;
};
})
);
}
);
width = 600;
}
);
note = summation;
unicode = 8721;
},
{
glyphname = mu;
lastChange = "2025-10-03 15:49:50 +0000";
layers = (
{
layerId = m01;
shapes = (
{
closed = 1;
nodes = (
(180,460,l),
(69,460,l),
(69,-320,l),
(175,-320,l),
(175,11,l,{
"Letterink-NibData" = {
AngleInDegrees = 0;
};
}),
(198,-2,o),
(221,-7,o),
(248,-7,cs),
(298,-7,o),
(340,18,o),
(368,58,c),
(368,0,l),
(476,0,l),
(476,460,l),
(368,460,l),
(368,190,ls),
(368,129,o),
(327,87,o),
(266,87,cs),
(207,87,o),
(180,123,o),
(180,190,cs)
);
}
);
width = 545;
}
);
note = mu;
unicode = 181;
},
{
glyphname = uni2215;
lastChange = "2025-10-03 15:49:50 +0000";
layers = (
{
layerId = m01;
shapes = (
{
closed = 1;
nodes = (
(431,700,l,{
"Letterink-NibData" = {
AngleInDegrees = 359.99999;
};
}),
(15,-150,l),
(124,-150,l,{
"Letterink-NibData" = {
AngleInDegrees = 0;
};
}),
(538,700,l)
);
}
);
width = 553;
}
);
note = uni2215;
unicode = 8725;
},
{
glyphname = uni2219;
kernLeft = KO_uni2219;
kernRight = KO_uni2219;
lastChange = "2025-10-03 15:49:50 +0000";
layers = (
{
layerId = m01;
shapes = (
{
closed = 1;
nodes = (
(84,388,o),
(115,356,o),
(155,356,cs),
(195,356,o),
(225,388,o),
(225,426,cs),
(225,465,o),
(195,496,o),
(155,496,cs),
(115,496,o),
(84,465,o),
(84,426,cs)
);
}
);
width = 309;
}
);
note = uni2219;
unicode = 8729;
userData = {
KernOnSpecialSpacing = {
L = math;
R = math;
};
};
},
{
glyphname = radical;
kernRight = KO_radical;
lastChange = "2025-10-03 15:49:50 +0000";
layers = (
{
layerId = m01;
shapes = (
{
closed = 1;
nodes = (
(244,-198,l,{
"Letterink-NibData" = {
AngleInDegrees = 0;
};
}),
(419,609,l),
(511,609,l),
(511,700,l),
(348,700,l,{
"Letterink-NibData" = {
AngleInDegrees = 359.99999;
};
}),
(228,86,l,{
"Letterink-NibData" = {
AngleInDegrees = 359.99999;
};
}),
(179,255,l,{
"Letterink-NibData" = {
AngleInDegrees = 359.99999;
};
}),
(36,214,l,{
"Letterink-NibData" = {
AngleInDegrees = 360;
};
}),
(58,139,l,{
"Letterink-NibData" = {
AngleInDegrees = 0;
};
}),
(122,156,l,{
"Letterink-NibData" = {
AngleInDegrees = 0;
};
})
);
}
);
width = 600;
}
);
note = radical;
unicode = 8730;
},
{
glyphname = infinity;
lastChange = "2025-10-03 15:49:50 +0000";
layers = (
{
layerId = m01;
shapes = (
{
closed = 1;
nodes = (
(262,41,o),
(323,81,o),
(387,161,c,{
"Letterink-NibData" = {
AngleInDegrees = 0;
};
}),
(451,81,o),
(512,41,o),
(575,41,cs),
(669,41,o),
(751,129,o),
(751,230,cs),
(751,331,o),
(669,418,o),
(575,418,cs),
(512,418,o),
(450,378,o),
(387,298,c,{
"Letterink-NibData" = {
AngleInDegrees = 0;
};
}),
(324,378,o),
(262,418,o),
(198,418,cs),
(104,418,o),
(22,331,o),
(22,230,cs),
(22,129,o),
(104,41,o),
(198,41,cs)
);
},
{
closed = 1;
nodes = (
(167,133,o),
(124,180,o),
(124,230,cs),
(124,281,o),
(167,326,o),
(213,326,cs),
(254,326,o),
(297,292,o),
(335,230,c,{
"Letterink-NibData" = {
AngleInDegrees = 360;
};
}),
(296,168,o),
(254,133,o),
(213,133,cs)
);
},
{
closed = 1;
nodes = (
(520,133,o),
(476,169,o),
(439,230,c,{
"Letterink-NibData" = {
AngleInDegrees = 360;
};
}),
(476,292,o),
(520,326,o),
(561,326,cs),
(607,326,o),
(649,281,o),
(649,230,cs),
(649,180,o),
(607,133,o),
(561,133,cs)
);
}
);
width = 773;
}
);
note = infinity;
unicode = 8734;
},
{
glyphname = integral;
kernRight = KO_integral;
lastChange = "2025-10-03 15:49:50 +0000";
layers = (
{
layerId = m01;
shapes = (
{
closed = 1;
nodes = (
(282,-202,o),
(340,-138,o),
(346,-36,cs,{
"Letterink-NibData" = {
AngleInDegrees = 0;
};
}),
(382,609,ls,{
"Letterink-NibData" = {
AngleInDegrees = 360;
};
}),
(385,661,o),
(403,691,o),
(432,691,cs),
(444,691,o),
(456,685,o),
(476,665,c,{
"Letterink-NibData" = {
AngleInDegrees = 0;
};
}),
(525,745,l,{
"Letterink-NibData" = {
AngleInDegrees = 0;
};
}),
(485,778,o),
(456,791,o),
(421,792,cs,{
"Letterink-NibData" = {
AngleInDegrees = 360;
};
}),
(338,793,o),
(281,729,o),
(275,627,cs,{
"Letterink-NibData" = {
AngleInDegrees = 359.99999;
};
}),
(239,-18,ls,{
"Letterink-NibData" = {
AngleInDegrees = 360;
};
}),
(236,-70,o),
(217,-99,o),
(189,-99,cs),
(176,-99,o),
(164,-93,o),
(144,-74,c,{
"Letterink-NibData" = {
AngleInDegrees = 0;
};
}),
(95,-154,l,{
"Letterink-NibData" = {
AngleInDegrees = 360;
};
}),
(135,-187,o),
(164,-199,o),
(200,-200,cs,{
"Letterink-NibData" = {
AngleInDegrees = 360;
};
})
);
}
);
width = 600;
}
);
note = integral;
unicode = 8747;
},
{
glyphname = dollar;
kernLeft = KO_dollar;
kernRight = KO_dollar;
lastChange = "2025-10-03 15:49:50 +0000";
layers = (
{
layerId = m01;
shapes = (
{
closed = 1;
nodes = (
(536,561,l,{
"Letterink-NibData" = {
AngleInDegrees = 0;
};
}),
(507,624,o),
(449,689,o),
(353,706,c,{
"Letterink-NibData" = {
AngleInDegrees = 0;
};
}),
(354,818,l),
(260,818,l,{
"Letterink-NibData" = {
AngleInDegrees = 0;
};
}),
(262,707,l,{
"Letterink-NibData" = {
AngleInDegrees = 0;
};
}),
(157,692,o),
(84,620,o),
(84,533,cs),
(84,402,o),
(195,349,o),
(265,324,cs,{
"Letterink-NibData" = {
AngleInDegrees = 360;
};
}),
(346,294,o),
(421,264,o),
(421,188,cs),
(421,128,o),
(387,92,o),
(315,92,cs),
(233,92,o),
(182,145,o),
(137,236,c,{
"Letterink-NibData" = {
AngleInDegrees = 360;
};
}),
(46,177,l,{
"Letterink-NibData" = {
AngleInDegrees = 359.99999;
};
}),
(84,84,o),
(164,12,o),
(262,-6,c,{
"Letterink-NibData" = {
AngleInDegrees = 359.99999;
};
}),
(260,-112,l),
(354,-112,l,{
"Letterink-NibData" = {
AngleInDegrees = 359.99999;
};
}),
(352,-8,l,{
"Letterink-NibData" = {
AngleInDegrees = 0;
};
}),
(475,6,o),
(545,81,o),
(545,193,cs),
(545,317,o),
(450,373,o),
(368,403,cs,{
"Letterink-NibData" = {
AngleInDegrees = 0;
};
}),
(283,435,o),
(207,460,o),
(207,529,cs),
(207,580,o),
(237,612,o),
(307,612,cs),
(374,612,o),
(414,562,o),
(444,504,c,{
"Letterink-NibData" = {
AngleInDegrees = 0;
};
})
);
}
);
width = 597;
}
);
note = dollar;
unicode = 36;
userData = {
KernOnSpecialSpacing = {
L = symbols;
R = symbols;
};
};
},
{
glyphname = cent;
kernRight = KO_cent;
lastChange = "2025-10-03 15:49:50 +0000";
layers = (
{
layerId = m01;
shapes = (
{
closed = 1;
nodes = (
(179,316,o),
(243,377,o),
(323,377,cs),
(392,377,o),
(449,341,o),
(473,299,c),
(473,419,l,{
"Letterink-NibData" = {
AngleInDegrees = 360;
};
}),
(446,446,o),
(398,464,o),
(346,469,c,{
"Letterink-NibData" = {
AngleInDegrees = 360;
};
}),
(349,578,l),
(259,578,l,{
"Letterink-NibData" = {
AngleInDegrees = 360;
};
}),
(262,465,l,{
"Letterink-NibData" = {
AngleInDegrees = 360;
};
}),
(148,442,o),
(69,352,o),
(69,230,cs),
(69,108,o),
(148,18,o),
(261,-5,c,{
"Letterink-NibData" = {
AngleInDegrees = 0;
};
}),
(259,-112,l),
(349,-112,l,{
"Letterink-NibData" = {
AngleInDegrees = 0;
};
}),
(346,-9,l,{
"Letterink-NibData" = {
AngleInDegrees = 360;
};
}),
(398,-4,o),
(446,14,o),
(473,41,c),
(473,162,l,{
"Letterink-NibData" = {
AngleInDegrees = 0;
};
}),
(449,119,o),
(392,83,o),
(323,83,cs),
(243,83,o),
(179,142,o),
(179,230,cs)
);
}
);
width = 580;
}
);
note = cent;
unicode = 162;
userData = {
KernOnSpecialSpacing = {
L = symbols;
R = symbols;
};
};
},
{
glyphname = sterling;
lastChange = "2025-10-03 15:49:50 +0000";
layers = (
{
layerId = m01;
shapes = (
{
closed = 1;
nodes = (
(67,370,l),
(67,285,l),
(204,285,l,{
"Letterink-NibData" = {
AngleInDegrees = 0;
};
}),
(205,278,o),
(206,271,o),
(206,264,cs),
(206,171,o),
(157,102,o),
(59,0,c),
(526,0,l),
(526,104,l),
(237,104,l,{
"Letterink-NibData" = {
AngleInDegrees = 360;
};
}),
(280,144,o),
(313,203,o),
(313,267,cs),
(313,273,o),
(313,279,o),
(312,285,c),
(435,285,l),
(435,370,l),
(280,370,l,{
"Letterink-NibData" = {
AngleInDegrees = 360;
};
}),
(253,413,o),
(219,448,o),
(219,510,cs),
(219,579,o),
(271,606,o),
(326,606,cs),
(407,606,o),
(440,540,o),
(444,474,c,{
"Letterink-NibData" = {
AngleInDegrees = 360;
};
}),
(541,512,l,{
"Letterink-NibData" = {
AngleInDegrees = 0;
};
}),
(536,594,o),
(464,710,o),
(324,710,cs),
(200,710,o),
(104,638,o),
(104,519,cs),
(104,450,o),
(133,408,o),
(161,370,c)
);
}
);
width = 593;
}
);
note = sterling;
unicode = 163;
userData = {
KernOnSpecialSpacing = {
L = symbols;
R = symbols;
};
};
},
{
glyphname = currency;
lastChange = "2025-10-03 15:49:50 +0000";
layers = (
{
layerId = m01;
shapes = (
{
closed = 1;
nodes = (
(87,42,l,{
"Letterink-NibData" = {
AngleInDegrees = 0;
};
}),
(148,104,l,{
"Letterink-NibData" = {
AngleInDegrees = 360;
};
}),
(187,76,o),
(236,60,o),
(290,60,cs),
(343,60,o),
(392,76,o),
(431,104,c,{
"Letterink-NibData" = {
AngleInDegrees = 360;
};
}),
(493,42,l,{
"Letterink-NibData" = {
AngleInDegrees = 0;
};
}),
(547,97,l,{
"Letterink-NibData" = {
AngleInDegrees = 360;
};
}),
(485,159,l,{
"Letterink-NibData" = {
AngleInDegrees = 360;
};
}),
(512,198,o),
(528,246,o),
(528,300,cs),
(528,354,o),
(512,402,o),
(485,441,c,{
"Letterink-NibData" = {
AngleInDegrees = 0;
};
}),
(547,503,l,{
"Letterink-NibData" = {
AngleInDegrees = 360;
};
}),
(493,558,l,{
"Letterink-NibData" = {
AngleInDegrees = 0;
};
}),
(431,496,l,{
"Letterink-NibData" = {
AngleInDegrees = 0;
};
}),
(392,524,o),
(343,540,o),
(290,540,cs),
(236,540,o),
(187,524,o),
(148,496,c,{
"Letterink-NibData" = {
AngleInDegrees = 0;
};
}),
(87,558,l,{
"Letterink-NibData" = {
AngleInDegrees = 0;
};
}),
(32,503,l,{
"Letterink-NibData" = {
AngleInDegrees = 360;
};
}),
(94,441,l,{
"Letterink-NibData" = {
AngleInDegrees = 0;
};
}),
(67,402,o),
(51,354,o),
(51,300,cs,{
"Letterink-NibData" = {
AngleInDegrees = 360;
};
}),
(52,246,o),
(67,198,o),
(94,159,c,{
"Letterink-NibData" = {
AngleInDegrees = 0;
};
}),
(32,97,l,{
"Letterink-NibData" = {
AngleInDegrees = 360;
};
})
);
},
{
closed = 1;
nodes = (
(155,382,o),
(212,440,o),
(290,440,cs),
(367,440,o),
(424,382,o),
(424,300,cs),
(424,218,o),
(367,160,o),
(290,160,cs),
(212,160,o),
(155,218,o),
(155,300,cs)
);
}
);
width = 579;
}
);
note = currency;
unicode = 164;
},
{
glyphname = yen;
lastChange = "2025-10-03 15:49:50 +0000";
layers = (
{
layerId = m01;
shapes = (
{
closed = 1;
nodes = (
(45,130,l),
(248,130,l),
(248,0,l),
(369,0,l),
(369,130,l),
(566,130,l),
(566,215,l),
(369,215,l),
(369,280,l),
(566,280,l),
(566,365,l),
(408,365,l,{
"Letterink-NibData" = {
AngleInDegrees = 0;
};
}),
(605,700,l),
(471,700,l,{
"Letterink-NibData" = {
AngleInDegrees = 0;
};
}),
(308,401,l,{
"Letterink-NibData" = {
AngleInDegrees = 0;
};
}),
(145,700,l),
(10,700,l,{
"Letterink-NibData" = {
AngleInDegrees = 0;
};
}),
(207,365,l),
(45,365,l),
(45,280,l),
(248,280,l),
(248,215,l),
(45,215,l)
);
}
);
width = 616;
}
);
note = yen;
unicode = 165;
userData = {
KernOnSpecialSpacing = {
L = symbols;
R = symbols;
};
};
},
{
glyphname = Euro;
lastChange = "2025-10-03 15:49:50 +0000";
layers = (
{
layerId = m01;
shapes = (
{
closed = 1;
nodes = (
(25,272,l),
(88,272,l,{
"Letterink-NibData" = {
AngleInDegrees = 0;
};
}),
(115,104,o),
(229,-14,o),
(388,-14,cs),
(442,-14,o),
(493,1,o),
(538,27,c),
(538,152,l,{
"Letterink-NibData" = {
AngleInDegrees = 0;
};
}),
(497,112,o),
(445,90,o),
(388,90,cs),
(292,90,o),
(222,159,o),
(200,272,c),
(504,272,l),
(504,335,l),
(193,335,l),
(193,340,o),
(193,345,o),
(193,350,cs),
(193,366,o),
(193,382,o),
(195,397,c),
(528,397,l),
(528,459,l),
(207,459,l,{
"Letterink-NibData" = {
AngleInDegrees = 0;
};
}),
(235,553,o),
(301,610,o),
(388,610,cs),
(445,610,o),
(497,588,o),
(538,548,c),
(538,673,l,{
"Letterink-NibData" = {
AngleInDegrees = 0;
};
}),
(493,699,o),
(442,714,o),
(388,714,cs),
(239,714,o),
(130,611,o),
(95,459,c),
(31,459,l),
(31,397,l),
(85,397,l,{
"Letterink-NibData" = {
AngleInDegrees = 359.99999;
};
}),
(83,382,o),
(83,366,o),
(83,350,cs),
(83,345,o),
(83,340,o),
(83,335,c),
(25,335,l)
);
}
);
width = 610;
}
);
note = Euro;
unicode = 8364;
userData = {
KernOnSpecialSpacing = {
L = symbols;
R = symbols;
};
};
},
{
glyphname = ruble;
lastChange = "2025-10-03 15:49:50 +0000";
layers = (
{
layerId = m01;
shapes = (
{
closed = 1;
nodes = (
(30,94,l),
(150,94,l),
(150,0,l),
(269,0,l),
(269,94,l),
(460,94,l),
(460,191,l),
(269,191,l),
(269,285,l),
(365,285,ls),
(518,285,o),
(628,344,o),
(628,493,cs),
(628,642,o),
(518,700,o),
(365,700,cs),
(150,700,l),
(150,385,l),
(30,385,l),
(30,288,l),
(150,288,l),
(150,191,l),
(30,191,l)
);
},
{
closed = 1;
nodes = (
(365,596,ls),
(458,596,o),
(516,566,o),
(516,493,cs),
(516,419,o),
(458,389,o),
(365,389,cs),
(269,389,l),
(269,596,l)
);
}
);
width = 666;
}
);
note = ruble;
unicode = 8381;
userData = {
KernOnSpecialSpacing = {
L = symbols;
R = symbols;
};
};
},
{
glyphname = asciicircum;
kernLeft = KO_asciicircum;
kernRight = KO_asciicircum;
lastChange = "2025-10-03 15:49:50 +0000";
layers = (
{
layerId = m01;
shapes = (
{
closed = 1;
nodes = (
(255,605,l,{
"Letterink-NibData" = {
AngleInDegrees = 359.99999;
};
}),
(353,455,l),
(455,455,l,{
"Letterink-NibData" = {
AngleInDegrees = 0;
};
}),
(285,710,l),
(225,710,l,{
"Letterink-NibData" = {
AngleInDegrees = 360;
};
}),
(55,455,l),
(158,455,l,{
"Letterink-NibData" = {
AngleInDegrees = 0;
};
})
);
}
);
width = 510;
}
);
note = asciicircum;
unicode = 94;
userData = {
KernOnSpecialSpacing = {
L = math;
R = math;
};
};
},
{
glyphname = asciitilde;
kernLeft = KO_asciitilde;
kernRight = KO_asciitilde;
lastChange = "2025-10-03 15:49:50 +0000";
layers = (
{
layerId = m01;
shapes = (
{
closed = 1;
nodes = (
(148,171,l,{
"Letterink-NibData" = {
AngleInDegrees = 359.99999;
};
}),
(145,179,o),
(143,186,o),
(143,196,cs),
(143,225,o),
(159,247,o),
(193,247,cs),
(218,247,o),
(247,236,o),
(278,213,cs,{
"Letterink-NibData" = {
AngleInDegrees = 360;
};
}),
(323,181,o),
(360,165,o),
(397,165,cs),
(440,165,o),
(472,180,o),
(498,214,cs,{
"Letterink-NibData" = {
AngleInDegrees = 0;
};
}),
(517,239,o),
(523,270,o),
(523,295,cs),
(523,305,o),
(521,315,o),
(519,323,c,{
"Letterink-NibData" = {
AngleInDegrees = 0;
};
}),
(423,328,l,{
"Letterink-NibData" = {
AngleInDegrees = 0;
};
}),
(427,318,o),
(428,308,o),
(428,299,cs),
(428,271,o),
(416,253,o),
(390,253,cs),
(372,253,o),
(348,264,o),
(318,286,cs,{
"Letterink-NibData" = {
AngleInDegrees = 360;
};
}),
(273,318,o),
(236,335,o),
(194,335,cs),
(142,335,o),
(106,315,o),
(80,280,cs,{
"Letterink-NibData" = {
AngleInDegrees = 0;
};
}),
(59,254,o),
(53,226,o),
(53,200,cs),
(53,191,o),
(54,183,o),
(56,176,c,{
"Letterink-NibData" = {
AngleInDegrees = 360;
};
})
);
}
);
width = 575;
}
);
note = asciitilde;
unicode = 126;
userData = {
KernOnSpecialSpacing = {
L = math;
R = math;
};
};
},
{
glyphname = acute;
lastChange = "2025-10-03 15:49:50 +0000";
layers = (
{
layerId = m01;
shapes = (
{
closed = 1;
nodes = (
(308,658,l,{
"Letterink-NibData" = {
AngleInDegrees = 0;
};
}),
(216,703,l,{
"Letterink-NibData" = {
AngleInDegrees = 0;
};
}),
(66,543,l,{
"Letterink-NibData" = {
AngleInDegrees = 360;
};
}),
(128,508,l,{
"Letterink-NibData" = {
AngleInDegrees = 360;
};
})
);
}
);
width = 375;
}
);
note = acute;
unicode = 180;
},
{
glyphname = grave;
lastChange = "2025-10-03 15:49:50 +0000";
layers = (
{
layerId = m01;
shapes = (
{
closed = 1;
nodes = (
(66,658,l,{
"Letterink-NibData" = {
AngleInDegrees = 0;
};
}),
(246,508,l,{
"Letterink-NibData" = {
AngleInDegrees = 0;
};
}),
(308,543,l,{
"Letterink-NibData" = {
AngleInDegrees = 0;
};
}),
(158,703,l,{
"Letterink-NibData" = {
AngleInDegrees = 360;
};
})
);
}
);
width = 375;
}
);
note = grave;
unicode = 96;
},
{
glyphname = hungarumlaut;
lastChange = "2025-10-03 15:49:50 +0000";
layers = (
{
layerId = m01;
shapes = (
{
closed = 1;
nodes = (
(68,516,l,{
"Letterink-NibData" = {
AngleInDegrees = 0;
};
}),
(207,704,l,{
"Letterink-NibData" = {
AngleInDegrees = 359.99999;
};
}),
(108,728,l,{
"Letterink-NibData" = {
AngleInDegrees = 0;
};
}),
(0,536,l,{
"Letterink-NibData" = {
AngleInDegrees = 0;
};
})
);
},
{
closed = 1;
nodes = (
(241,516,l,{
"Letterink-NibData" = {
AngleInDegrees = 0;
};
}),
(381,704,l,{
"Letterink-NibData" = {
AngleInDegrees = 359.99999;
};
}),
(281,728,l,{
"Letterink-NibData" = {
AngleInDegrees = 0;
};
}),
(174,536,l,{
"Letterink-NibData" = {
AngleInDegrees = 0;
};
})
);
}
);
width = 0;
}
);
note = hungarumlaut;
unicode = 733;
},
{
glyphname = circumflex;
lastChange = "2025-10-03 15:49:50 +0000";
layers = (
{
layerId = m01;
shapes = (
{
closed = 1;
nodes = (
(240,639,l,{
"Letterink-NibData" = {
AngleInDegrees = 359.99999;
};
}),
(343,548,l,{
"Letterink-NibData" = {
AngleInDegrees = 0;
};
}),
(415,600,l,{
"Letterink-NibData" = {
AngleInDegrees = 0;
};
}),
(240,740,l,{
"Letterink-NibData" = {
AngleInDegrees = 0;
};
}),
(65,600,l,{
"Letterink-NibData" = {
AngleInDegrees = 360;
};
}),
(138,548,l,{
"Letterink-NibData" = {
AngleInDegrees = 360;
};
})
);
}
);
width = 480;
}
);
note = circumflex;
unicode = 710;
},
{
glyphname = caron;
lastChange = "2025-10-03 15:49:50 +0000";
layers = (
{
layerId = m01;
shapes = (
{
closed = 1;
nodes = (
(240,664,l,{
"Letterink-NibData" = {
AngleInDegrees = 0;
};
}),
(138,755,l,{
"Letterink-NibData" = {
AngleInDegrees = 360;
};
}),
(65,702,l,{
"Letterink-NibData" = {
AngleInDegrees = 360;
};
}),
(240,562,l,{
"Letterink-NibData" = {
AngleInDegrees = 0;
};
}),
(415,702,l,{
"Letterink-NibData" = {
AngleInDegrees = 0;
};
}),
(343,755,l,{
"Letterink-NibData" = {
AngleInDegrees = 0;
};
})
);
}
);
width = 480;
}
);
note = caron;
unicode = 711;
},
{
glyphname = breve;
lastChange = "2025-10-03 15:49:50 +0000";
layers = (
{
layerId = m01;
shapes = (
{
closed = 1;
nodes = (
(113,850,l),
(113,776,o),
(168,708,o),
(273,708,cs),
(378,708,o),
(434,776,o),
(434,850,c),
(351,850,l),
(351,820,o),
(331,781,o),
(273,781,cs),
(216,781,o),
(195,820,o),
(195,850,c)
);
}
);
width = 546;
}
);
note = breve;
unicode = 728;
},
{
glyphname = tilde;
lastChange = "2025-10-03 15:49:50 +0000";
layers = (
{
layerId = m01;
shapes = (
{
closed = 1;
nodes = (
(151,583,l),
(151,598,o),
(160,634,o),
(199,634,cs),
(246,634,o),
(273,585,o),
(328,585,cs),
(383,585,o),
(429,626,o),
(445,663,c,{
"Letterink-NibData" = {
AngleInDegrees = 359.99999;
};
}),
(389,718,l,{
"Letterink-NibData" = {
AngleInDegrees = 0;
};
}),
(369,686,o),
(351,668,o),
(329,668,cs),
(274,668,o),
(266,717,o),
(200,717,cs),
(148,717,o),
(100,679,o),
(90,630,c,{
"Letterink-NibData" = {
AngleInDegrees = 0;
};
})
);
}
);
width = 530;
}
);
note = tilde;
unicode = 732;
},
{
glyphname = macron;
lastChange = "2025-10-03 15:49:50 +0000";
layers = (
{
layerId = m01;
shapes = (
{
closed = 1;
nodes = (
(80,589,l),
(439,589,l),
(439,686,l),
(80,686,l)
);
}
);
width = 519;
}
);
note = macron;
unicode = 175;
},
{
glyphname = dieresis;
lastChange = "2025-10-03 15:49:50 +0000";
layers = (
{
layerId = m01;
shapes = (
{
closed = 1;
nodes = (
(284,612,o),
(315,583,o),
(352,583,cs),
(390,583,o),
(420,612,o),
(420,649,cs),
(420,686,o),
(390,715,o),
(352,715,cs),
(315,715,o),
(284,686,o),
(284,649,cs)
);
},
{
closed = 1;
nodes = (
(66,612,o),
(97,583,o),
(135,583,cs),
(172,583,o),
(203,612,o),
(203,649,cs),
(203,686,o),
(172,715,o),
(135,715,cs),
(97,715,o),
(66,686,o),
(66,649,cs)
);
}
);
width = 487;
}
);
note = dieresis;
unicode = 168;
},
{
glyphname = dotaccent;
lastChange = "2025-10-03 15:49:50 +0000";
layers = (
{
layerId = m01;
shapes = (
{
closed = 1;
nodes = (
(82,762,o),
(113,734,o),
(150,734,cs),
(188,734,o),
(218,762,o),
(218,799,cs),
(218,837,o),
(188,865,o),
(150,865,cs),
(113,865,o),
(82,837,o),
(82,799,cs)
);
}
);
width = 300;
}
);
note = dotaccent;
unicode = 729;
},
{
glyphname = ring;
lastChange = "2025-10-03 15:49:50 +0000";
layers = (
{
layerId = m01;
shapes = (
{
closed = 1;
nodes = (
(38,715,o),
(90,673,o),
(149,673,cs),
(208,673,o),
(260,715,o),
(260,779,cs),
(260,842,o),
(208,885,o),
(149,885,cs),
(90,885,o),
(38,842,o),
(38,779,cs)
);
},
{
closed = 1;
nodes = (
(100,811,o),
(124,830,o),
(149,830,cs),
(174,830,o),
(198,811,o),
(198,779,cs),
(198,747,o),
(174,728,o),
(149,728,cs),
(124,728,o),
(100,747,o),
(100,779,cs)
);
}
);
width = 298;
}
);
note = ring;
unicode = 730;
},
{
glyphname = cedilla;
lastChange = "2025-10-03 15:49:50 +0000";
layers = (
{
layerId = m01;
shapes = (
{
closed = 1;
nodes = (
(191,65,l,{
"Letterink-NibData" = {
AngleInDegrees = 0;
};
}),
(105,-114,l,{
"Letterink-NibData" = {
AngleInDegrees = 0;
};
}),
(132,-100,o),
(162,-97,o),
(172,-97,cs),
(205,-97,o),
(226,-106,o),
(226,-131,cs),
(226,-155,o),
(209,-169,o),
(175,-169,cs),
(151,-169,o),
(131,-162,o),
(110,-145,c,{
"Letterink-NibData" = {
AngleInDegrees = 0;
};
}),
(72,-196,l,{
"Letterink-NibData" = {
AngleInDegrees = 0;
};
}),
(107,-225,o),
(138,-235,o),
(183,-235,cs),
(241,-235,o),
(299,-200,o),
(299,-135,cs),
(299,-79,o),
(255,-51,o),
(219,-51,cs),
(212,-51,o),
(205,-52,o),
(199,-53,c,{
"Letterink-NibData" = {
AngleInDegrees = 360;
};
}),
(272,63,l,{
"Letterink-NibData" = {
AngleInDegrees = 0;
};
})
);
}
);
width = 368;
}
);
note = cedilla;
unicode = 184;
},
{
glyphname = ogonek;
lastChange = "2025-10-03 15:49:50 +0000";
layers = (
{
layerId = m01;
shapes = (
{
closed = 1;
nodes = (
(194,-122,l,{
"Letterink-NibData" = {
AngleInDegrees = 360;
};
}),
(180,-135,o),
(168,-142,o),
(144,-142,cs),
(117,-142,o),
(101,-129,o),
(101,-97,cs),
(101,-63,o),
(137,-24,o),
(189,0,c,{
"Letterink-NibData" = {
AngleInDegrees = 0;
};
}),
(148,25,l,{
"Letterink-NibData" = {
AngleInDegrees = 0;
};
}),
(78,-11,o),
(14,-58,o),
(14,-120,cs),
(14,-181,o),
(58,-220,o),
(134,-220,cs),
(182,-220,o),
(212,-200,o),
(227,-180,c,{
"Letterink-NibData" = {
AngleInDegrees = 359.99999;
};
})
);
}
);
width = 260;
}
);
note = ogonek;
unicode = 731;
},
{
glyphname = copyright;
lastChange = "2025-10-03 15:49:50 +0000";
layers = (
{
layerId = m01;
shapes = (
{
closed = 1;
nodes = (
(40,141,o),
(196,-10,o),
(400,-10,cs),
(604,-10,o),
(760,141,o),
(760,350,cs),
(760,559,o),
(604,710,o),
(400,710,cs),
(196,710,o),
(40,559,o),
(40,350,cs)
);
},
{
closed = 1;
nodes = (
(95,528,o),
(227,660,o),
(400,660,cs),
(573,660,o),
(705,528,o),
(705,350,cs),
(705,172,o),
(573,40,o),
(400,40,cs),
(227,40,o),
(95,172,o),
(95,350,cs)
);
},
{
closed = 1;
nodes = (
(259,440,o),
(322,498,o),
(403,498,cs),
(462,498,o),
(506,473,o),
(534,439,c),
(534,523,l,{
"Letterink-NibData" = {
AngleInDegrees = 359.99999;
};
}),
(500,552,o),
(462,568,o),
(401,568,cs),
(277,568,o),
(182,477,o),
(182,350,cs),
(182,223,o),
(277,133,o),
(401,133,cs),
(462,133,o),
(500,148,o),
(534,177,c),
(534,261,l,{
"Letterink-NibData" = {
AngleInDegrees = 360;
};
}),
(506,227,o),
(462,202,o),
(403,202,cs),
(322,202,o),
(259,260,o),
(259,350,cs)
);
}
);
width = 800;
}
);
note = copyright;
unicode = 169;
userData = {
KernOnSpecialSpacing = {
R = symbols;
};
};
},
{
glyphname = registered;
kernLeft = KO_registered;
lastChange = "2025-10-03 15:49:50 +0000";
layers = (
{
layerId = m01;
shapes = (
{
closed = 1;
nodes = (
(40,141,o),
(196,-10,o),
(400,-10,cs),
(604,-10,o),
(760,141,o),
(760,350,cs),
(760,559,o),
(604,710,o),
(400,710,cs),
(196,710,o),
(40,559,o),
(40,350,cs)
);
},
{
closed = 1;
nodes = (
(95,528,o),
(227,660,o),
(400,660,cs),
(573,660,o),
(705,528,o),
(705,350,cs),
(705,172,o),
(573,40,o),
(400,40,cs),
(227,40,o),
(95,172,o),
(95,350,cs)
);
},
{
closed = 1;
nodes = (
(266,570,l),
(266,150,l),
(337,150,l),
(337,312,l),
(382,312,l,{
"Letterink-NibData" = {
AngleInDegrees = 359.99999;
};
}),
(484,150,l),
(569,150,l,{
"Letterink-NibData" = {
AngleInDegrees = 0;
};
}),
(450,319,l,{
"Letterink-NibData" = {
AngleInDegrees = 360;
};
}),
(510,335,o),
(547,381,o),
(547,442,cs),
(547,518,o),
(487,570,o),
(396,570,cs)
);
},
{
closed = 1;
nodes = (
(393,509,ls),
(441,509,o),
(474,485,o),
(474,440,cs),
(474,394,o),
(441,370,o),
(393,370,cs),
(337,370,l),
(337,509,l)
);
}
);
width = 800;
}
);
note = registered;
unicode = 174;
userData = {
KernOnSpecialSpacing = {
L = superiors;
};
};
},
{
glyphname = trademark;
kernLeft = KO_trademark;
lastChange = "2025-10-03 15:49:50 +0000";
layers = (
{
layerId = m01;
shapes = (
{
closed = 1;
nodes = (
(620,717,l,{
"Letterink-NibData" = {
AngleInDegrees = 0;
};
}),
(476,480,l,{
"Letterink-NibData" = {
AngleInDegrees = 360;
};
}),
(332,717,l,{
"Letterink-NibData" = {
AngleInDegrees = 360;
};
}),
(284,350,l),
(345,350,l,{
"Letterink-NibData" = {
AngleInDegrees = 360;
};
}),
(369,559,l,{
"Letterink-NibData" = {
AngleInDegrees = 0;
};
}),
(476,382,l,{
"Letterink-NibData" = {
AngleInDegrees = 0;
};
}),
(583,559,l,{
"Letterink-NibData" = {
AngleInDegrees = 359.99999;
};
}),
(607,350,l),
(667,350,l,{
"Letterink-NibData" = {
AngleInDegrees = 0;
};
})
);
},
{
closed = 1;
nodes = (
(31,646,l),
(124,646,l),
(124,350,l),
(183,350,l),
(183,646,l),
(276,646,l),
(276,700,l),
(31,700,l)
);
}
);
width = 698;
}
);
note = trademark;
unicode = 8482;
userData = {
KernOnSpecialSpacing = {
L = superiors;
};
};
},
{
glyphname = degree;
kernRight = KO_degree;
lastChange = "2025-10-11 16:12:09 +0000";
layers = (
{
layerId = m01;
shapes = (
{
closed = 1;
nodes = (
(19,528,o),
(72,478,o),
(143,478,cs),
(214,478,o),
(267,528,o),
(267,599,cs),
(267,670,o),
(214,720,o),
(143,720,cs),
(72,720,o),
(19,670,o),
(19,599,cs)
);
},
{
closed = 1;
nodes = (
(73,642,o),
(103,672,o),
(143,672,cs),
(183,672,o),
(213,642,o),
(213,599,cs),
(213,556,o),
(183,526,o),
(143,526,cs),
(103,526,o),
(73,556,o),
(73,599,cs)
);
}
);
width = 286;
}
);
note = degree;
unicode = 176;
userData = {
KernOnSpecialSpacing = {
L = superiors;
R = superiors;
};
};
},
{
glyphname = lozenge;
lastChange = "2025-10-03 15:49:50 +0000";
layers = (
{
layerId = m01;
shapes = (
{
closed = 1;
nodes = (
(306,15,l,{
"Letterink-NibData" = {
AngleInDegrees = 360;
};
}),
(500,356,l,{
"Letterink-NibData" = {
AngleInDegrees = 359.99999;
};
}),
(306,696,l,{
"Letterink-NibData" = {
AngleInDegrees = 0;
};
}),
(100,356,l,{
"Letterink-NibData" = {
AngleInDegrees = 0;
};
})
);
},
{
closed = 1;
nodes = (
(303,200,l,{
"Letterink-NibData" = {
AngleInDegrees = 0;
};
}),
(208,356,l,{
"Letterink-NibData" = {
AngleInDegrees = 0;
};
}),
(303,512,l,{
"Letterink-NibData" = {
AngleInDegrees = 360;
};
}),
(393,356,l,{
"Letterink-NibData" = {
AngleInDegrees = 0;
};
})
);
}
);
width = 600;
}
);
note = lozenge;
unicode = 9674;
},
{
glyphname = uni00AD;
kernLeft = KO_uni00AD;
kernRight = KO_uni00AD;
lastChange = "2025-10-03 15:49:50 +0000";
layers = (
{
layerId = m01;
shapes = (
{
closed = 1;
nodes = (
(5,200,l),
(205,200,l),
(205,275,l),
(5,275,l)
);
}
);
width = 210;
}
);
note = uni00AD;
unicode = 173;
},
{
glyphname = Ohorn;
kernLeft = KO_O;
kernRight = KO_D;
lastChange = "2025-10-11 14:43:46 +0000";
layers = (
{
anchors = (
{
name = bottom;
pos = (334,0);
},
{
name = top;
pos = (334,515);
}
);
hints = (
{
name = _corner.ink;
origin = (1,9);
type = Corner;
}
);
layerId = m01;
shapes = (
{
ref = O;
},
{
closed = 1;
nodes = (
(472,630,o),
(465,545,o),
(371,545,c),
(409,524,l),
(460,513,o),
(505,513,o),
(527,561,cs),
(552,615,o),
(502,703,o),
(419,640,c),
(439,689,l)
);
}
);
width = 667;
}
);
unicode = 416;
},
{
glyphname = Uhorn;
kernLeft = KO_U;
kernRight = KO_Uhorn;
lastChange = "2025-10-11 14:45:56 +0000";
layers = (
{
anchors = (
{
name = bottom;
pos = (300,0);
},
{
name = top;
pos = (300,533);
}
);
hints = (
{
name = _corner.ink;
origin = (1,9);
type = Corner;
}
);
layerId = m01;
shapes = (
{
ref = U;
},
{
closed = 1;
nodes = (
(544,616,o),
(545,533,o),
(451,533,c),
(481,510,l),
(532,499,o),
(577,499,o),
(599,547,cs),
(624,601,o),
(574,689,o),
(491,626,c),
(511,675,l)
);
}
);
width = 600;
}
);
unicode = 431;
},
{
glyphname = idotless;
kernLeft = KO_n;
kernRight = KO_i;
lastChange = "2025-10-11 14:47:51 +0000";
layers = (
{
anchors = (
{
name = bottom;
pos = (134,0);
},
{
name = ogonek;
pos = (170,0);
},
{
name = top;
pos = (134,460);
}
);
hints = (
{
name = _corner.ink;
options = 2;
origin = (0,3);
scale = (-1,1);
type = Corner;
},
{
name = _corner.ink;
options = 2;
origin = (0,7);
scale = (-1,1);
type = Corner;
},
{
name = _corner.ink;
origin = (0,8);
type = Corner;
}
);
layerId = m01;
shapes = (
{
closed = 1;
nodes = (
(170,359,l),
(170,418,o),
(157,494,o),
(59,458,c,{
"Letterink-NibData" = {
AngleInDegrees = "0";
};
}),
(74,417,o),
(82,374,o),
(82,330,cs),
(82,0,l),
(170,0,l)
);
}
);
width = 267;
}
);
unicode = 305;
},
{
glyphname = uhorn;
kernLeft = KO_u;
kernRight = KO_uhorn;
lastChange = "2025-10-11 16:20:21 +0000";
layers = (
{
anchors = (
{
name = bottom;
pos = (265,0);
},
{
name = top;
pos = (244,460);
}
);
hints = (
{
name = _corner.ink;
origin = (1,9);
type = Corner;
}
);
layerId = m01;
shapes = (
{
ref = u;
},
{
closed = 1;
nodes = (
(445,552,o),
(448,462,o),
(386,459,c),
(387,438,l),
(438,427,o),
(483,427,o),
(505,475,cs),
(530,529,o),
(480,617,o),
(397,554,c),
(417,603,l)
);
}
);
width = 530;
}
);
unicode = 432;
},
{
glyphname = l.ss02;
kernLeft = KO_l.ss02;
kernRight = KO_l.ss02;
lastChange = "2025-10-11 15:38:50 +0000";
layers = (
{
background = {
shapes = (
{
pos = (13,0);
ref = c;
}
);
};
layerId = m01;
shapes = (
{
closed = 1;
nodes = (
(148,159,cs),
(148,370,ls),
(148,471,o),
(158,548,o),
(224,548,cs),
(301,548,o),
(229,331,o),
(128,242,c,{
"Letterink-NibData" = {
AngleInDegrees = 360;
};
}),
(138,182,l,{
"Letterink-NibData" = {
AngleInDegrees = 0;
};
}),
(303,281,o),
(463,619,o),
(242,619,cs),
(134,619,o),
(60,534,o),
(60,367,cs),
(60,170,ls),
(60,-63,o),
(335,-79,o),
(379,128,c),
(292,128,l,{
"Letterink-NibData" = {
AngleInDegrees = 0;
};
}),
(274,13,o),
(148,42,o)
);
}
);
width = 409;
}
);
note = e;
},
{
glyphname = y.001;
lastChange = "2025-10-11 15:38:50 +0000";
layers = (
{
layerId = m01;
shapes = (
{
closed = 1;
nodes = (
(255,80,l,{
"Letterink-NibData" = {
AngleInDegrees = 0;
};
}),
(428,445,l),
(336,445,l,{
"Letterink-NibData" = {
AngleInDegrees = 0;
};
}),
(207,143,l),
(233,143,l,{
"Letterink-NibData" = {
AngleInDegrees = 0;
};
}),
(100,445,l),
(1,445,l,{
"Letterink-NibData" = {
AngleInDegrees = 0;
};
}),
(167,83,l,{
"Letterink-NibData" = {
AngleInDegrees = 0;
};
}),
(60,-150,l),
(148,-150,l,{
"Letterink-NibData" = {
AngleInDegrees = 0;
};
})
);
}
);
width = 425;
}
);
note = y;
},
{
glyphname = circumflexcomb;
lastChange = "2025-10-11 16:20:57 +0000";
layers = (
{
anchors = (
{
name = _top;
pos = (150,460);
},
{
name = top;
pos = (142,641);
}
);
hints = (
{
name = _corner.ink;
options = 2;
origin = (0,9);
scale = (-1,1);
type = Corner;
},
{
name = _corner.ink;
options = 2;
origin = (0,13);
scale = (-1,1);
type = Corner;
},
{
name = _corner.ink;
origin = (0,3);
type = Corner;
}
);
layerId = m01;
shapes = (
{
closed = 1;
nodes = (
(38,579,ls),
(-9,558,o),
(9,514,o),
(27,500,c),
(57,506,o),
(108,532,o),
(142,560,c),
(171,535,o),
(221,509,o),
(257,500,c),
(275,514,o),
(303,554,o),
(233,586,cs),
(142,627,l)
);
}
);
width = 300;
}
);
unicode = 770;
},
{
glyphname = brevecomb;
lastChange = "2025-10-11 14:37:10 +0000";
layers = (
{
anchors = (
{
name = _top;
pos = (144,460);
}
);
hints = (
{
name = _corner.ink;
origin = (0,5);
type = Corner;
},
{
name = _corner.ink;
options = 2;
origin = (0,2);
scale = (-1,1);
type = Corner;
}
);
layerId = m01;
shapes = (
{
closed = 1;
nodes = (
(233,522,o),
(300,601,o),
(257,652,c),
(195,574,o),
(82,586,o),
(27,652,c),
(-3,622,o),
(36,522,o),
(142,522,cs)
);
}
);
width = 300;
}
);
unicode = 774;
},
{
glyphname = hookabovecomb;
lastChange = "2025-10-11 14:37:33 +0000";
layers = (
{
anchors = (
{
name = _top;
pos = (152,460);
},
{
name = top;
pos = (152,649);
}
);
hints = (
{
name = _corner.ink;
origin = (0,11);
type = Corner;
}
);
layerId = m01;
shapes = (
{
closed = 1;
nodes = (
(181,597,o),
(173,556,o),
(142,544,cs),
(121,536,o),
(118,513,o),
(151,513,cs),
(257,513,o),
(292,650,o),
(151,650,cs),
(66,650,o),
(24,601,o),
(95,563,c,{
"Letterink-NibData" = {
AngleInDegrees = "0";
};
}),
(111,590,o),
(131,604,o),
(150,601,cs)
);
}
);
width = 300;
}
);
unicode = 777;
},
{
glyphname = horncomb;
lastChange = "2025-10-10 12:21:07 +0000";
layers = (
{
hints = (
{
name = _corner.ink;
origin = (0,9);
type = Corner;
}
);
layerId = m01;
shapes = (
{
closed = 1;
nodes = (
(408,544,o),
(403,460,o),
(309,460,c),
(345,438,l),
(396,427,o),
(441,427,o),
(463,475,cs),
(488,529,o),
(438,617,o),
(355,554,c),
(375,603,l)
);
}
);
width = 300;
}
);
unicode = 795;
},
{
glyphname = dotbelowcomb;
lastChange = "2025-10-11 16:31:11 +0000";
layers = (
{
anchors = (
{
name = _bottom;
pos = (157,0);
},
{
name = bottom;
pos = (157,-150);
}
);
layerId = m01;
shapes = (
{
closed = 1;
nodes = (
(105,-138,o),
(128,-160,o),
(156,-160,cs),
(185,-160,o),
(208,-138,o),
(208,-110,cs),
(208,-82,o),
(185,-60,o),
(156,-60,cs),
(128,-60,o),
(105,-82,o),
(105,-110,cs)
);
}
);
width = 300;
}
);
unicode = 803;
},
{
glyphname = brevecomb_acutecomb;
lastChange = "2025-10-11 16:19:39 +0000";
layers = (
{
hints = (
{
name = _corner.ink;
options = 2;
origin = (1,5);
type = Corner;
}
);
layerId = m01;
shapes = (
{
pos = (0,-8);
ref = brevecomb;
},
{
closed = 1;
nodes = (
(109,642,o),
(121,636,o),
(138,640,cs),
(307,686,o),
(227,790,o),
(183,783,c),
(111,667,ls),
(107,661,o),
(105,655,o),
(106,650,cs)
);
}
);
width = 300;
}
);
},
